<?xml version="1.0" encoding="utf-8"?>
<!-- Generator: Adobe Illustrator 16.0.0, SVG Export Plug-In . SVG Version: 6.00 Build 0)  -->
<!DOCTYPE svg PUBLIC "-//W3C//DTD SVG 1.1//EN" "http://www.w3.org/Graphics/SVG/1.1/DTD/svg11.dtd">
<svg version="1.1" id="Layer_1" xmlns="http://www.w3.org/2000/svg" xmlns:xlink="http://www.w3.org/1999/xlink" x="0px" y="0px"
	 width="100px" height="100px" viewBox="0 0 100 100" enable-background="new 0 0 100 100" xml:space="preserve">
<g id="Captions">
</g>
<g>
	<path fill-rule="evenodd" clip-rule="evenodd" d="M59.93,52.16c0-0.76-0.619-1.37-1.39-1.37s-1.39,0.61-1.39,1.37
		c0,0.75,0.619,1.37,1.39,1.37S59.93,52.91,59.93,52.16z"/>
	<path fill-rule="evenodd" clip-rule="evenodd" d="M49.18,72.971c0-0.381-0.31-0.69-0.69-0.69c-0.38,0-0.69,0.31-0.69,0.69
		c0,0.369,0.31,0.68,0.69,0.68C48.87,73.65,49.18,73.34,49.18,72.971z"/>
	<path fill-rule="evenodd" clip-rule="evenodd" d="M49.77,65.311c0-1.511-1.25-2.74-2.779-2.74c-1.53,0-2.771,1.229-2.771,2.74
		c0,1.52,1.24,2.75,2.771,2.75C48.52,68.061,49.77,66.83,49.77,65.311z"/>
	<path fill-rule="evenodd" clip-rule="evenodd" d="M50.76,14.91c0-1.52-1.24-2.74-2.77-2.74c-1.53,0-2.771,1.22-2.771,2.74
		c0,1.51,1.24,2.74,2.771,2.74C49.52,17.65,50.76,16.42,50.76,14.91z"/>
	<path fill-rule="evenodd" clip-rule="evenodd" d="M50.17,52.55c0-1.51-1.24-2.74-2.77-2.74c-1.53,0-2.77,1.23-2.77,2.74
		c0,1.511,1.24,2.74,2.77,2.74C48.93,55.29,50.17,54.061,50.17,52.55z"/>
	<path fill-rule="evenodd" clip-rule="evenodd" d="M67.141,40.69c0-1.51-1.24-2.74-2.771-2.74S61.6,39.18,61.6,40.69
		c0,1.51,1.24,2.74,2.771,2.74S67.141,42.2,67.141,40.69z"/>
	<path fill-rule="evenodd" clip-rule="evenodd" d="M71.13,25.37c0-1.51-1.239-2.74-2.771-2.74c-1.529,0-2.77,1.23-2.77,2.74
		c0,1.51,1.24,2.74,2.77,2.74C69.891,28.11,71.13,26.88,71.13,25.37z"/>
	<path fill-rule="evenodd" clip-rule="evenodd" d="M35.7,51.561c0-1.511-1.24-2.74-2.77-2.74c-1.53,0-2.77,1.229-2.77,2.74
		c0,1.52,1.24,2.739,2.77,2.739C34.46,54.3,35.7,53.08,35.7,51.561z"/>
	<path fill-rule="evenodd" clip-rule="evenodd" d="M45.04,45.45c0-0.38-0.31-0.68-0.69-0.68c-0.39,0-0.7,0.3-0.7,0.68
		s0.31,0.69,0.7,0.69C44.73,46.14,45.04,45.83,45.04,45.45z"/>
	<path fill-rule="evenodd" clip-rule="evenodd" d="M54.609,48.71c0-0.76-0.619-1.37-1.39-1.37c-0.76,0-1.38,0.61-1.38,1.37
		c0,0.75,0.62,1.37,1.38,1.37C53.99,50.08,54.609,49.46,54.609,48.71z"/>
	<path fill-rule="evenodd" clip-rule="evenodd" d="M28.16,48.21c0-0.75-0.62-1.37-1.39-1.37c-0.76,0-1.38,0.62-1.38,1.37
		c0,0.76,0.62,1.37,1.38,1.37C27.54,49.58,28.16,48.97,28.16,48.21z"/>
	<path fill-rule="evenodd" clip-rule="evenodd" d="M55.76,70.26c0-0.76-0.619-1.369-1.39-1.369s-1.39,0.609-1.39,1.369
		s0.619,1.37,1.39,1.37S55.76,71.02,55.76,70.26z"/>
	<path fill-rule="evenodd" clip-rule="evenodd" d="M51.109,23.5c0-0.75-0.619-1.37-1.379-1.37c-0.771,0-1.391,0.62-1.391,1.37
		c0,0.76,0.62,1.38,1.391,1.38C50.49,24.88,51.109,24.26,51.109,23.5z"/>
	<path fill-rule="evenodd" clip-rule="evenodd" d="M36.09,34.32c0-0.76-0.62-1.37-1.38-1.37c-0.77,0-1.39,0.61-1.39,1.37
		c0,0.76,0.62,1.37,1.39,1.37C35.47,35.69,36.09,35.08,36.09,34.32z"/>
	<path fill-rule="evenodd" clip-rule="evenodd" d="M40.62,56.609c0-0.76-0.62-1.369-1.38-1.369c-0.771,0-1.39,0.609-1.39,1.369
		c0,0.761,0.62,1.371,1.39,1.371C40,57.98,40.62,57.37,40.62,56.609z"/>
	<path fill-rule="evenodd" clip-rule="evenodd" d="M64.689,50.67c0-0.76-0.619-1.37-1.379-1.37c-0.771,0-1.391,0.61-1.391,1.37
		s0.62,1.37,1.391,1.37C64.07,52.04,64.689,51.43,64.689,50.67z"/>
	<path fill-rule="evenodd" clip-rule="evenodd" d="M44.13,26.9c0-0.76-0.62-1.37-1.38-1.37c-0.77,0-1.39,0.61-1.39,1.37
		c0,0.76,0.62,1.37,1.39,1.37C43.51,28.27,44.13,27.66,44.13,26.9z"/>
	<path fill-rule="evenodd" clip-rule="evenodd" d="M49.14,6.37c0-0.76-0.62-1.37-1.39-1.37c-0.76,0-1.38,0.61-1.38,1.37
		c0,0.76,0.62,1.37,1.38,1.37C48.52,7.74,49.14,7.13,49.14,6.37z"/>
	<path fill-rule="evenodd" clip-rule="evenodd" d="M56.109,11.09c0-0.76-0.619-1.38-1.39-1.38c-0.76,0-1.38,0.62-1.38,1.38
		c0,0.75,0.62,1.37,1.38,1.37C55.49,12.46,56.109,11.84,56.109,11.09z"/>
	<path fill-rule="evenodd" clip-rule="evenodd" d="M40.97,20.53c0-0.76-0.62-1.37-1.39-1.37c-0.76,0-1.38,0.61-1.38,1.37
		c0,0.75,0.62,1.37,1.38,1.37C40.35,21.9,40.97,21.28,40.97,20.53z"/>
	<path fill-rule="evenodd" clip-rule="evenodd" d="M70.08,35.3c0-0.76-0.62-1.37-1.38-1.37c-0.771,0-1.39,0.61-1.39,1.37
		c0,0.76,0.619,1.37,1.39,1.37C69.46,36.67,70.08,36.06,70.08,35.3z"/>
	<path fill-rule="evenodd" clip-rule="evenodd" d="M74.92,37.69c0-0.76-0.62-1.37-1.38-1.37c-0.771,0-1.39,0.61-1.39,1.37
		c0,0.76,0.619,1.37,1.39,1.37C74.3,39.06,74.92,38.45,74.92,37.69z"/>
	<path fill-rule="evenodd" clip-rule="evenodd" d="M53.75,35.3c0-0.76-0.62-1.37-1.391-1.37c-0.76,0-1.379,0.61-1.379,1.37
		c0,0.76,0.619,1.37,1.379,1.37C53.13,36.67,53.75,36.06,53.75,35.3z"/>
	<path fill-rule="evenodd" clip-rule="evenodd" d="M38.14,40.74c0-0.76-0.62-1.37-1.38-1.37c-0.77,0-1.39,0.61-1.39,1.37
		c0,0.75,0.62,1.37,1.39,1.37C37.52,42.11,38.14,41.49,38.14,40.74z"/>
	<path fill-rule="evenodd" clip-rule="evenodd" d="M60.5,31.27c0-0.76-0.62-1.38-1.391-1.38c-0.76,0-1.39,0.62-1.39,1.38
		c0,0.75,0.63,1.37,1.39,1.37C59.88,32.64,60.5,32.02,60.5,31.27z"/>
	<path fill-rule="evenodd" clip-rule="evenodd" d="M30.65,44.11c0-0.38-0.31-0.69-0.69-0.69s-0.69,0.31-0.69,0.69
		c0,0.37,0.31,0.68,0.69,0.68S30.65,44.48,30.65,44.11z"/>
	<path fill-rule="evenodd" clip-rule="evenodd" d="M27.16,37.68c0-0.38-0.31-0.68-0.69-0.68c-0.39,0-0.7,0.3-0.7,0.68
		c0,0.38,0.31,0.69,0.7,0.69C26.85,38.37,27.16,38.06,27.16,37.68z"/>
	<path fill-rule="evenodd" clip-rule="evenodd" d="M71.57,43.61c0-0.38-0.311-0.68-0.69-0.68s-0.69,0.3-0.69,0.68
		c0,0.38,0.311,0.69,0.69,0.69S71.57,43.99,71.57,43.61z"/>
	<path fill-rule="evenodd" clip-rule="evenodd" d="M80.061,40.65c0-0.38-0.311-0.69-0.69-0.69c-0.39,0-0.7,0.31-0.7,0.69
		c0,0.37,0.311,0.68,0.7,0.68C79.75,41.33,80.061,41.02,80.061,40.65z"/>
	<path fill-rule="evenodd" clip-rule="evenodd" d="M73.07,30.76c0-0.38-0.311-0.68-0.69-0.68s-0.69,0.3-0.69,0.68
		c0,0.38,0.311,0.69,0.69,0.69S73.07,31.14,73.07,30.76z"/>
	<path fill-rule="evenodd" clip-rule="evenodd" d="M22.17,49.54c0-0.38-0.31-0.68-0.69-0.68c-0.39,0-0.7,0.3-0.7,0.68
		s0.31,0.69,0.7,0.69C21.86,50.23,22.17,49.92,22.17,49.54z"/>
	<path fill-rule="evenodd" clip-rule="evenodd" d="M38.64,63.38c0-0.38-0.31-0.69-0.69-0.69c-0.39,0-0.7,0.311-0.7,0.69
		s0.31,0.681,0.7,0.681C38.33,64.061,38.64,63.76,38.64,63.38z"/>
	<path fill-rule="evenodd" clip-rule="evenodd" d="M41.13,14.95c0-0.38-0.31-0.69-0.69-0.69s-0.69,0.311-0.69,0.69
		s0.31,0.68,0.69,0.68S41.13,15.33,41.13,14.95z"/>
	<path fill-rule="evenodd" clip-rule="evenodd" d="M69.08,56.95c0-0.37-0.311-0.681-0.689-0.681c-0.391,0-0.701,0.311-0.701,0.681
		c0,0.38,0.311,0.69,0.701,0.69C68.77,57.641,69.08,57.33,69.08,56.95z"/>
	<path fill-rule="evenodd" clip-rule="evenodd" d="M63.71,64.66c0-0.38-0.31-0.68-0.69-0.68c-0.379,0-0.699,0.3-0.699,0.68
		s0.32,0.689,0.699,0.689C63.4,65.35,63.71,65.04,63.71,64.66z"/>
	<path fill-rule="evenodd" clip-rule="evenodd" d="M44.26,48.76c0-0.38-0.32-0.689-0.7-0.689s-0.69,0.31-0.69,0.689
		c0,0.38,0.31,0.68,0.69,0.68S44.26,49.14,44.26,48.76z"/>
	<path fill-rule="evenodd" clip-rule="evenodd" d="M53.329,29.537c0-0.833-0.673-1.512-1.499-1.512s-1.499,0.679-1.499,1.512
		c0,0.832,0.673,1.488,1.499,1.488S53.329,30.369,53.329,29.537z"/>
	<path fill-rule="evenodd" clip-rule="evenodd" d="M64.62,34.3c0-0.37-0.31-0.68-0.69-0.68c-0.39,0-0.699,0.31-0.699,0.68
		c0,0.38,0.31,0.69,0.699,0.69C64.311,34.99,64.62,34.68,64.62,34.3z"/>
	<path fill-rule="evenodd" clip-rule="evenodd" d="M57.82,44.33c0-0.38-0.311-0.68-0.69-0.68c-0.39,0-0.7,0.3-0.7,0.68
		s0.311,0.69,0.7,0.69C57.51,45.02,57.82,44.71,57.82,44.33z"/>
	<path fill-rule="evenodd" clip-rule="evenodd" d="M47.84,30c0-0.38-0.31-0.69-0.69-0.69c-0.39,0-0.7,0.31-0.7,0.69
		s0.31,0.69,0.7,0.69C47.53,30.69,47.84,30.38,47.84,30z"/>
	<path fill-rule="evenodd" clip-rule="evenodd" d="M59.029,39.7c0-0.75-0.619-1.37-1.389-1.37c-0.761,0-1.381,0.62-1.381,1.37
		c0,0.76,0.62,1.37,1.381,1.37C58.41,41.07,59.029,40.46,59.029,39.7z"/>
	<path fill-rule="evenodd" clip-rule="evenodd" d="M62.385,21.541c0-2.48-2.016-4.495-4.504-4.495s-4.495,2.015-4.495,4.495
		c0,2.49,2.007,4.504,4.495,4.504S62.385,24.03,62.385,21.541z"/>
	<path fill-rule="evenodd" clip-rule="evenodd" d="M51.275,40.731c0-1.65-1.343-2.996-2.997-2.996c-1.661,0-3.003,1.345-3.003,2.996
		c0,1.659,1.343,3.004,3.003,3.004C49.932,43.735,51.275,42.39,51.275,40.731z"/>
	<path fill-rule="evenodd" clip-rule="evenodd" d="M34.995,27.229c0-1.659-1.343-3.004-3.004-3.004
		c-1.653,0-2.996,1.345-2.996,3.004c0,1.65,1.343,2.996,2.996,2.996C33.652,30.225,34.995,28.879,34.995,27.229z"/>
	<path fill-rule="evenodd" clip-rule="evenodd" d="M59.095,61.539c0-1.658-1.342-3.004-3.004-3.004
		c-1.653,0-2.995,1.346-2.995,3.004c0,1.65,1.342,2.996,2.995,2.996C57.753,64.535,59.095,63.189,59.095,61.539z"/>
	<path fill-rule="evenodd" clip-rule="evenodd" d="M38.01,46.84c0-0.38-0.31-0.68-0.7-0.68c-0.38,0-0.69,0.3-0.69,0.68
		c0,0.38,0.31,0.69,0.69,0.69C37.7,47.53,38.01,47.22,38.01,46.84z"/>
	<path fill-rule="evenodd" clip-rule="evenodd" d="M54.34,55.2c0-0.38-0.311-0.681-0.699-0.681c-0.381,0-0.69,0.301-0.69,0.681
		s0.31,0.69,0.69,0.69C54.029,55.891,54.34,55.58,54.34,55.2z"/>
	<polygon fill-rule="evenodd" clip-rule="evenodd" points="22.98,78.67 79.38,78.67 97,87.43 97,95 3,95 3,87.721 	"/>
</g>
<path fill-rule="evenodd" clip-rule="evenodd" d="M43.86,34.993c0-1.382-1.119-2.503-2.503-2.503c-1.377,0-2.497,1.121-2.497,2.503
	c0,1.375,1.119,2.497,2.497,2.497C42.741,37.49,43.86,36.369,43.86,34.993z"/>
</svg>
