<?xml version="1.0" encoding="utf-8"?>
<!-- Generator: Adobe Illustrator 16.0.0, SVG Export Plug-In . SVG Version: 6.00 Build 0)  -->
<!DOCTYPE svg PUBLIC "-//W3C//DTD SVG 1.1//EN" "http://www.w3.org/Graphics/SVG/1.1/DTD/svg11.dtd">
<svg version="1.1" id="Livello_1" xmlns="http://www.w3.org/2000/svg" xmlns:xlink="http://www.w3.org/1999/xlink" x="0px" y="0px"
	 width="100px" height="100px" viewBox="0 0 100 100" enable-background="new 0 0 100 100" xml:space="preserve">
<g id="Layer_1_1_">
	<path fill="#FFFFFF" d="M55.588,66.83c0-0.57-0.471-1.04-1.039-1.04c-0.58,0-1.051,0.47-1.051,1.04c0,0.58,0.471,1.05,1.051,1.05
		C55.117,67.88,55.588,67.41,55.588,66.83z"/>
	<path fill="#FFFFFF" d="M47.499,82.67c0-0.29-0.23-0.52-0.521-0.52c-0.29,0-0.52,0.229-0.52,0.52s0.23,0.52,0.52,0.52
		C47.267,83.189,47.499,82.96,47.499,82.67z"/>
	<path fill="#FFFFFF" d="M47.938,76.85c0-1.149-0.93-2.09-2.09-2.09c-1.15,0-2.08,0.94-2.08,2.09c0,1.15,0.93,2.09,2.08,2.09
		C47.008,78.939,47.938,78,47.938,76.85z"/>
	<path fill="#FFFFFF" d="M48.688,38.48c0-1.15-0.93-2.09-2.09-2.09c-1.15,0-2.08,0.94-2.08,2.09s0.93,2.09,2.08,2.09
		C47.758,40.57,48.688,39.63,48.688,38.48z"/>
	<path fill="#FFFFFF" d="M48.249,67.13c0-1.149-0.94-2.08-2.09-2.08s-2.09,0.931-2.09,2.08c0,1.16,0.94,2.091,2.09,2.091
		S48.249,68.29,48.249,67.13z"/>
	<path fill="#FFFFFF" d="M61.018,58.1c0-1.149-0.93-2.08-2.09-2.08c-1.15,0-2.08,0.931-2.08,2.08c0,1.16,0.93,2.09,2.08,2.09
		C60.088,60.189,61.018,59.26,61.018,58.1z"/>
	<path fill="#FFFFFF" d="M64.027,46.44c0-1.15-0.939-2.08-2.09-2.08c-1.16,0-2.09,0.93-2.09,2.08c0,1.16,0.93,2.09,2.09,2.09
		C63.088,48.53,64.027,47.6,64.027,46.44z"/>
	<path fill="#FFFFFF" d="M37.347,66.38c0-1.149-0.93-2.09-2.08-2.09c-1.16,0-2.09,0.94-2.09,2.09s0.93,2.091,2.09,2.091
		C36.418,68.471,37.347,67.529,37.347,66.38z"/>
	<path fill="#FFFFFF" d="M44.378,61.73c0-0.291-0.23-0.521-0.52-0.521s-0.52,0.229-0.52,0.521c0,0.289,0.23,0.52,0.52,0.52
		S44.378,62.02,44.378,61.73z"/>
	<path fill="#FFFFFF" d="M13.387,48c-1.04,1.69-3.1,5.439-3.3,5.75c-0.21,0.311,0.1,0.92,0,1.23c-0.1,0.299-0.41,0.819-0.41,0.819
		s-0.1,1.021,0,1.63c0.1,0.62,1.92,6.801,2.33,10.07s0.74,10.8,0.74,10.8s-0.51,0.31-1.22,0.41c-0.72,0.101-0.9-0.08-1.8,1.25
		c-0.229,0.34-0.31,2.069-0.31,2.069S8.168,83.01,7.758,82.8c-0.22-0.11-0.57,0.99-0.53,1.681c0.03,0.6-0.36,1.81-2.38,0.31
		c-0.72-0.54-1.06,1.09-2,1.13c-1.44,0.12-0.63,0.01-0.44-1.88c0.19-1.95-0.07-3.95-0.13-5.33c0-3.2,0.19-8.12,0.19-9.59
		c0-2.64,0.1-4.21,0-6.149c-0.1-1.941,0-6.641-0.13-8.65c-0.1-1.75,0.01-32.86,0.13-36.99c0.13-4.39-0.792-3.832,5.458-3.768
		c1.198,0.012,9.562,6.288,13.913,9.107C22.338,23.5,17.677,41,13.387,48z"/>
	<path fill="#FFFFFF" d="M78.008,23.83c1.67-1,3.35-1.74,5.98-3.34c7.51-3.85,8.74-6.81,9.76-6.86c2.57-0.13,2.52-0.63,2.82,1.79
		c0.189,1.5,0.439,36.24,0.439,37.27c0,3.951-0.189,12.351-0.189,14.92c0,2.451,0,5.33-0.061,7.021
		c-0.061,1.649,0.189,6.649,0.061,8.47c-0.09,1.32,0.129,2.99-0.01,3.371c-0.07,0.18-0.34-0.451-0.941-0.941
		c-0.26-0.209-0.609,0.281-1.129,0.281c-0.561-0.24-0.1-0.871-0.52-1.181c-0.41-0.31-1.221,0.61-1.451-0.229
		c-0.139-0.5,0.324-2.11,0-2.78c-0.096-0.201-0.459-0.149-0.77-0.04c-0.301,0.1-0.711,0.199-1.221,0
		c-0.51-0.21-0.535-1.436-0.832-2.018c-0.254-0.502-0.344-0.859-1.188-1.25c-0.51-0.237-1.062,0.375-1.371,0.066
		c-0.166-0.167,0-4,0.5-8.38c0.26-2.319,0.871-7.12,1.871-9.88c0.639-1.74,0.531-4.684-0.25-6c-0.977-1.645-3.25-5.03-4.846-8.408
		C83.258,42.735,77.299,24.26,78.008,23.83z"/>
	<path fill="#FFFFFF" d="M89.836,56.984c-0.318,0.759-0.047,1.703,0.168,1.805c0.133,0.062,0.928-0.032,1.129-0.102
		c0.613-0.205,0.576-0.36,1-0.484c0.471-0.141,0.604-0.561,0.395-1.041c-0.199-0.48-0.273-0.737-0.809-0.82
		c-0.428-0.066-0.496-0.081-0.977,0.189C90.271,56.812,90.133,56.275,89.836,56.984z"/>
	<path fill="#FFFFFF" d="M10.477,13.82c-0.82,0.15,0.23,0.14,3.9,2.689c3.67,2.561,9.92,6.45,13.18,7.78
		c3.27,1.33,9.08,3.58,12.65,4.09c3.56,0.51,7.1,0.834,12.3,0.834c5.199,0,11.324-1.265,15.668-2.568
		c5.816-1.745,12.832-5.154,16.281-7.276c3.258-2.004,7.771-5.234,7.363-5.599c0,0-21.502,0.299-41.803,0.476
		C37.758,14.354,11.858,13.57,10.477,13.82z"/>
	<path fill="#FFFFFF" d="M51.588,64.21c0-0.58-0.471-1.05-1.051-1.05c-0.568,0-1.039,0.47-1.039,1.05c0,0.569,0.47,1.04,1.039,1.04
		C51.117,65.25,51.588,64.779,51.588,64.21z"/>
	<path fill="#FFFFFF" d="M31.677,63.83c0-0.57-0.47-1.04-1.05-1.04c-0.57,0-1.04,0.47-1.04,1.04c0,0.58,0.47,1.04,1.04,1.04
		C31.208,64.87,31.677,64.41,31.677,63.83z"/>
	<path fill="#FFFFFF" d="M53.088,81.891c0-0.58-0.471-1.051-1.051-1.051c-0.568,0-1.039,0.471-1.039,1.051
		c0,0.569,0.471,1.039,1.039,1.039C52.617,82.93,53.088,82.46,53.088,81.891z"/>
	<path fill="#FFFFFF" d="M48.958,45.02c0-0.57-0.47-1.04-1.05-1.04c-0.57,0-1.04,0.47-1.04,1.04c0,0.58,0.47,1.05,1.04,1.05
		C48.487,46.07,48.958,45.6,48.958,45.02z"/>
	<path fill="#FFFFFF" d="M37.648,53.26c0-0.58-0.47-1.05-1.04-1.05c-0.58,0-1.05,0.47-1.05,1.05c0,0.57,0.47,1.04,1.05,1.04
		C37.177,54.3,37.648,53.83,37.648,53.26z"/>
	<path fill="#FFFFFF" d="M41.057,70.221c0-0.57-0.47-1.041-1.05-1.041c-0.57,0-1.04,0.471-1.04,1.041c0,0.579,0.47,1.049,1.04,1.049
		C40.588,71.27,41.057,70.8,41.057,70.221z"/>
	<path fill="#FFFFFF" d="M59.178,65.7c0-0.57-0.471-1.04-1.051-1.04c-0.57,0-1.039,0.47-1.039,1.04c0,0.579,0.469,1.05,1.039,1.05
		C58.709,66.75,59.178,66.279,59.178,65.7z"/>
	<path fill="#FFFFFF" d="M55.268,56.689c0-0.58-0.471-1.049-1.041-1.049c-0.58,0-1.049,0.469-1.049,1.049
		c0,0.57,0.469,1.041,1.049,1.041C54.799,57.73,55.268,57.26,55.268,56.689z"/>
	<path fill="#FFFFFF" d="M43.697,47.61c0-0.58-0.47-1.05-1.04-1.05c-0.58,0-1.05,0.47-1.05,1.05c0,0.57,0.47,1.04,1.05,1.04
		C43.227,48.65,43.697,48.18,43.697,47.61z"/>
	<path fill="#FFFFFF" d="M43.318,32.94c0-0.58-0.46-1.05-1.04-1.05s-1.04,0.47-1.04,1.05c0,0.57,0.46,1.04,1.04,1.04
		S43.318,33.51,43.318,32.94z"/>
	<path fill="#FFFFFF" d="M52.717,35.57c0-0.58-0.469-1.04-1.049-1.04c-0.57,0-1.041,0.46-1.041,1.04c0,0.58,0.471,1.04,1.041,1.04
		C52.248,36.61,52.717,36.15,52.717,35.57z"/>
	<path fill="#FFFFFF" d="M54.588,51.37c0-0.58-0.459-1.04-1.039-1.04s-1.041,0.46-1.041,1.04s0.461,1.04,1.041,1.04
		S54.588,51.95,54.588,51.37z"/>
	<path fill="#FFFFFF" d="M63.227,54c0-0.57-0.459-1.04-1.039-1.04s-1.041,0.47-1.041,1.04c0,0.58,0.461,1.05,1.041,1.05
		S63.227,54.58,63.227,54z"/>
	<path fill="#FFFFFF" d="M39.188,58.141c0-0.58-0.47-1.041-1.04-1.041c-0.58,0-1.05,0.461-1.05,1.041s0.47,1.039,1.05,1.039
		C38.717,59.18,39.188,58.721,39.188,58.141z"/>
	<path fill="#FFFFFF" d="M70.748,50.99c0-0.57-0.471-1.04-1.051-1.04c-0.568,0-1.039,0.47-1.039,1.04c0,0.58,0.471,1.05,1.039,1.05
		C70.277,52.04,70.748,51.57,70.748,50.99z"/>
	<path fill="#FFFFFF" d="M43.697,47.61c0-0.58-0.47-1.05-1.04-1.05c-0.58,0-1.05,0.47-1.05,1.05c0,0.57,0.47,1.04,1.05,1.04
		C43.227,48.65,43.697,48.18,43.697,47.61z"/>
	<path fill="#FFFFFF" d="M58.887,49.66c0-0.58-0.469-1.05-1.049-1.05c-0.57,0-1.041,0.47-1.041,1.05c0,0.57,0.471,1.04,1.041,1.04
		C58.418,50.7,58.887,50.23,58.887,49.66z"/>
	<path fill="#FFFFFF" d="M33.548,60.7c0-0.28-0.23-0.521-0.52-0.521s-0.52,0.24-0.52,0.521c0,0.29,0.23,0.53,0.52,0.53
		S33.548,60.99,33.548,60.7z"/>
	<path fill="#FFFFFF" d="M30.918,55.811c0-0.281-0.23-0.521-0.52-0.521s-0.52,0.239-0.52,0.521c0,0.289,0.23,0.529,0.52,0.529
		S30.918,56.1,30.918,55.811z"/>
	<path fill="#FFFFFF" d="M64.357,60.33c0-0.29-0.24-0.52-0.52-0.52c-0.289,0-0.529,0.229-0.529,0.52s0.24,0.52,0.529,0.52
		C64.117,60.85,64.357,60.62,64.357,60.33z"/>
	<path fill="#FFFFFF" d="M70.736,58.07c0-0.291-0.229-0.521-0.52-0.521c-0.289,0-0.52,0.23-0.52,0.521c0,0.289,0.23,0.52,0.52,0.52
		C70.508,58.59,70.736,58.359,70.736,58.07z"/>
	<path fill="#FFFFFF" d="M65.477,50.55c0-0.29-0.229-0.52-0.52-0.52s-0.52,0.229-0.52,0.52s0.23,0.521,0.52,0.521
		S65.477,50.84,65.477,50.55z"/>
	<path fill="#FFFFFF" d="M27.168,64.84c0-0.29-0.24-0.52-0.52-0.52c-0.29,0-0.53,0.229-0.53,0.52s0.24,0.52,0.53,0.52
		C26.927,65.359,27.168,65.13,27.168,64.84z"/>
	<path fill="#FFFFFF" d="M39.557,75.38c0-0.29-0.23-0.53-0.52-0.53c-0.29,0-0.52,0.24-0.52,0.53c0,0.28,0.23,0.521,0.52,0.521
		C39.327,75.9,39.557,75.66,39.557,75.38z"/>
	<path fill="#FFFFFF" d="M41.438,38.51c0-0.29-0.23-0.52-0.52-0.52s-0.52,0.23-0.52,0.52c0,0.29,0.23,0.521,0.52,0.521
		S41.438,38.8,41.438,38.51z"/>
	<path fill="#FFFFFF" d="M62.477,70.48c0-0.28-0.229-0.521-0.52-0.521s-0.52,0.24-0.52,0.521c0,0.289,0.23,0.529,0.52,0.529
		C62.248,71.01,62.477,70.77,62.477,70.48z"/>
	<path fill="#FFFFFF" d="M56.838,81.77c0-0.289-0.23-0.52-0.52-0.52c-0.291,0-0.52,0.23-0.52,0.52c0,0.291,0.229,0.521,0.52,0.521
		C56.607,82.29,56.838,82.061,56.838,81.77z"/>
	<path fill="#FFFFFF" d="M50.076,85.91c0-0.29-0.229-0.52-0.52-0.52c-0.29,0-0.52,0.229-0.52,0.52s0.23,0.52,0.52,0.52
		C49.848,86.43,50.076,86.2,50.076,85.91z"/>
	<path fill="#FFFFFF" d="M43.787,64.25c0-0.29-0.23-0.529-0.52-0.529s-0.52,0.239-0.52,0.529c0,0.279,0.229,0.52,0.52,0.52
		S43.787,64.529,43.787,64.25z"/>
	<path fill="#FFFFFF" d="M50.018,49.61c0-0.29-0.24-0.52-0.53-0.52c-0.28,0-0.52,0.23-0.52,0.52s0.24,0.52,0.52,0.52
		C49.778,50.13,50.018,49.9,50.018,49.61z"/>
	<path fill="#FFFFFF" d="M53.998,60.88c0-0.29-0.23-0.53-0.521-0.53c-0.289,0-0.52,0.24-0.52,0.53c0,0.28,0.23,0.521,0.52,0.521
		C53.768,61.4,53.998,61.16,53.998,60.88z"/>
	<path fill="#FFFFFF" d="M46.487,49.97c0-0.29-0.23-0.52-0.52-0.52s-0.52,0.23-0.52,0.52c0,0.29,0.23,0.52,0.52,0.52
		S46.487,50.26,46.487,49.97z"/>
	<path fill="#FFFFFF" d="M51.088,58.63c0-0.58-0.471-1.05-1.051-1.05c-0.569,0-1.039,0.47-1.039,1.05c0,0.57,0.47,1.04,1.039,1.04
		C50.617,59.67,51.088,59.2,51.088,58.63z"/>
	<path fill="#FFFFFF" d="M57.928,42.01c0-2.15-1.74-3.9-3.881-3.9s-3.879,1.75-3.879,3.9c0,2.15,1.738,3.89,3.879,3.89
		S57.928,44.16,57.928,42.01z"/>
	<path fill="#FFFFFF" d="M47.467,55.859c0-1.619-1.3-2.92-2.91-2.92c-1.6,0-2.91,1.301-2.91,2.92c0,1.611,1.31,2.92,2.91,2.92
		C46.168,58.779,47.467,57.471,47.467,55.859z"/>
	<path fill="#FFFFFF" d="M37.467,47.86c0-1.62-1.3-2.92-2.91-2.92c-1.6,0-2.91,1.3-2.91,2.92c0,1.61,1.31,2.919,2.91,2.919
		C36.168,50.779,37.467,49.47,37.467,47.86z"/>
	<path fill="#FFFFFF" d="M55.607,73.971c0-1.611-1.299-2.921-2.91-2.921c-1.6,0-2.909,1.31-2.909,2.921
		c0,1.619,1.31,2.92,2.909,2.92C54.307,76.891,55.607,75.59,55.607,73.971z"/>
</g>
</svg>
