<?xml version="1.0" encoding="utf-8"?>
<!-- Generator: Adobe Illustrator 16.0.0, SVG Export Plug-In . SVG Version: 6.00 Build 0)  -->
<!DOCTYPE svg PUBLIC "-//W3C//DTD SVG 1.1//EN" "http://www.w3.org/Graphics/SVG/1.1/DTD/svg11.dtd">
<svg version="1.1" id="Livello_1" xmlns="http://www.w3.org/2000/svg" xmlns:xlink="http://www.w3.org/1999/xlink" x="0px" y="0px"
	 width="100px" height="100px" viewBox="0 0 100 100" enable-background="new 0 0 100 100" xml:space="preserve">
<path fill-rule="evenodd" clip-rule="evenodd" fill="#FFFFFF" d="M20.265,69.684c-0.919,1.955-0.078,4.282,1.877,5.191
	c1.956,0.908,4.282,0.059,5.202-1.906c0.919-1.955,0.078-4.283-1.877-5.191C23.511,66.868,21.185,67.718,20.265,69.684z"/>
<path fill-rule="evenodd" clip-rule="evenodd" fill="#FFFFFF" d="M55.989,68.247c-1.007,2.18-0.088,4.76,2.063,5.768
	c2.141,1.007,4.692,0.068,5.698-2.112c1.008-2.17,0.079-4.761-2.062-5.768S56.996,66.075,55.989,68.247z"/>
<path fill-rule="evenodd" clip-rule="evenodd" fill="#FFFFFF" d="M14.429,16.918c0.245,0.107,0.538,0,0.655-0.244
	c0.107-0.245,0-0.538-0.244-0.655c-0.245-0.117-0.538-0.01-0.646,0.245C14.076,16.508,14.184,16.801,14.429,16.918z"/>
<path fill-rule="evenodd" clip-rule="evenodd" fill="#FFFFFF" d="M54.288,61.012c0.488,0.233,1.076,0.02,1.3-0.469
	c0.226-0.489,0.021-1.076-0.479-1.311c-0.489-0.234-1.065-0.021-1.301,0.469C53.584,60.2,53.799,60.787,54.288,61.012z"/>
<path fill-rule="evenodd" clip-rule="evenodd" fill="#FFFFFF" d="M62.901,60.807c0.489,0.225,1.075,0.019,1.301-0.479
	c0.225-0.489,0.01-1.075-0.479-1.31c-0.488-0.226-1.075-0.02-1.3,0.479C62.197,59.985,62.413,60.571,62.901,60.807z"/>
<path fill-rule="evenodd" clip-rule="evenodd" fill="#FFFFFF" d="M18.242,18.678c0.489,0.235,1.075,0.02,1.3-0.469
	c0.225-0.499,0.01-1.085-0.479-1.31c-0.489-0.235-1.075-0.02-1.3,0.469C17.538,17.867,17.753,18.444,18.242,18.678z"/>
<path fill-rule="evenodd" clip-rule="evenodd" fill="#FFFFFF" d="M13.539,21.543c0.489,0.235,1.065,0.02,1.3-0.469
	c0.225-0.489,0.009-1.076-0.479-1.311c-0.489-0.234-1.075-0.019-1.3,0.479C12.835,20.731,13.041,21.318,13.539,21.543z"/>
<path fill-rule="evenodd" clip-rule="evenodd" fill="#FFFFFF" d="M24.723,10.994c0.606,0.284,1.33,0.02,1.613-0.596
	c0.284-0.616,0.02-1.339-0.586-1.633c-0.606-0.283-1.33-0.019-1.613,0.597C23.844,9.977,24.107,10.71,24.723,10.994z"/>
<path fill-rule="evenodd" clip-rule="evenodd" fill="#FFFFFF" d="M37.893,74.582c0.606,0.293,1.33,0.02,1.613-0.597
	c0.284-0.605,0.02-1.339-0.587-1.633c-0.616-0.284-1.339-0.02-1.623,0.597C37.013,73.564,37.277,74.298,37.893,74.582z"/>
<path fill-rule="evenodd" clip-rule="evenodd" fill="#FFFFFF" d="M8.181,49.612c0.489,0.225,1.076,0.02,1.3-0.479
	c0.225-0.489,0.01-1.075-0.479-1.31c-0.489-0.225-1.065-0.02-1.3,0.479C7.477,48.791,7.692,49.377,8.181,49.612z"/>
<path fill-rule="evenodd" clip-rule="evenodd" fill="#FFFFFF" d="M31.782,76.028c0.978,0.46,2.141,0.04,2.591-0.938
	c0.46-0.978,0.029-2.142-0.949-2.602c-0.978-0.46-2.141-0.04-2.59,0.938C30.374,74.405,30.805,75.568,31.782,76.028z"/>
<path fill-rule="evenodd" clip-rule="evenodd" fill="#FFFFFF" d="M34.715,82.872c0.978,0.46,2.141,0.04,2.591-0.938
	c0.459-0.979,0.029-2.142-0.949-2.602c-0.978-0.46-2.141-0.04-2.591,0.938C33.307,81.249,33.738,82.412,34.715,82.872z"/>
<path fill-rule="evenodd" clip-rule="evenodd" fill="#FFFFFF" d="M39.467,88.699c0.499,0.225,1.076,0.02,1.3-0.479
	c0.234-0.489,0.02-1.075-0.469-1.311c-0.499-0.226-1.076-0.02-1.3,0.479C38.763,87.879,38.978,88.465,39.467,88.699z"/>
<path fill-rule="evenodd" clip-rule="evenodd" fill="#FFFFFF" d="M51.053,88.787c0.732,0.342,1.603,0.029,1.944-0.704
	c0.343-0.733,0.021-1.612-0.713-1.955c-0.733-0.342-1.604-0.029-1.946,0.704C49.996,87.565,50.319,88.444,51.053,88.787z"/>
<path fill-rule="evenodd" clip-rule="evenodd" fill="#FFFFFF" d="M68.386,73.878c0.489,0.235,1.076,0.02,1.301-0.47
	s0.009-1.075-0.479-1.31c-0.489-0.235-1.065-0.02-1.301,0.47C67.683,73.066,67.897,73.652,68.386,73.878z"/>
<path fill-rule="evenodd" clip-rule="evenodd" fill="#FFFFFF" d="M33.161,58.743c0.489,0.234,1.075,0.02,1.3-0.469
	c0.225-0.498,0.02-1.086-0.479-1.31c-0.489-0.235-1.065-0.021-1.3,0.469C32.457,57.922,32.672,58.509,33.161,58.743z"/>
<path fill-rule="evenodd" clip-rule="evenodd" fill="#FFFFFF" d="M29.044,88.211c0.489,0.233,1.076,0.019,1.3-0.47
	c0.225-0.499,0.01-1.085-0.479-1.311c-0.489-0.234-1.076-0.019-1.3,0.47C28.34,87.399,28.556,87.985,29.044,88.211z"/>
<path fill-rule="evenodd" clip-rule="evenodd" fill="#FFFFFF" d="M52.313,67.229c0.978,0.46,2.141,0.04,2.591-0.938
	c0.46-0.978,0.029-2.141-0.948-2.601c-0.979-0.46-2.141-0.04-2.592,0.938C50.905,65.605,51.336,66.77,52.313,67.229z"/>
<path fill-rule="evenodd" clip-rule="evenodd" fill="#FFFFFF" d="M38.626,67.229c0.978,0.46,2.141,0.04,2.591-0.938
	c0.46-0.978,0.029-2.141-0.949-2.601c-0.978-0.46-2.141-0.04-2.59,0.938C37.218,65.605,37.648,66.77,38.626,67.229z"/>
<path fill-rule="evenodd" clip-rule="evenodd" fill="#FFFFFF" d="M7.624,58.381c1.222,0.577,2.679,0.05,3.246-1.172
	c0.567-1.223,0.029-2.679-1.193-3.246c-1.222-0.577-2.678-0.05-3.246,1.172C5.864,56.357,6.402,57.814,7.624,58.381z"/>
<path fill-rule="evenodd" clip-rule="evenodd" fill="#FFFFFF" d="M11.251,45.721c0.978,0.46,2.141,0.039,2.59-0.938
	c0.46-0.978,0.029-2.141-0.948-2.601s-2.141-0.04-2.591,0.938C9.843,44.098,10.273,45.261,11.251,45.721z"/>
<path fill-rule="evenodd" clip-rule="evenodd" fill="#FFFFFF" d="M16.423,53.493c1.222,0.576,2.678,0.049,3.246-1.173
	c0.567-1.223,0.029-2.679-1.193-3.246c-1.222-0.577-2.679-0.049-3.246,1.173C14.663,51.469,15.201,52.927,16.423,53.493z"/>
<path fill-rule="evenodd" clip-rule="evenodd" fill="#FFFFFF" d="M2.853,49.504c0.489,0.234,1.075,0.02,1.3-0.469
	c0.225-0.499,0.02-1.085-0.479-1.311c-0.489-0.234-1.065-0.02-1.3,0.469C2.149,48.683,2.364,49.27,2.853,49.504z"/>
<path fill-rule="evenodd" clip-rule="evenodd" fill="#FFFFFF" d="M13.382,27.252c0.489,0.225,1.065,0.02,1.3-0.479
	c0.225-0.489,0.01-1.075-0.479-1.31c-0.489-0.225-1.075-0.02-1.3,0.479C12.679,26.431,12.894,27.018,13.382,27.252z"/>
<path fill-rule="evenodd" clip-rule="evenodd" fill="#FFFFFF" d="M10.89,38.065c0.489,0.235,1.075,0.02,1.3-0.469
	c0.225-0.499,0.019-1.085-0.479-1.31c-0.489-0.235-1.065-0.02-1.3,0.469C10.186,37.254,10.4,37.841,10.89,38.065z"/>
<path fill-rule="evenodd" clip-rule="evenodd" fill="#FFFFFF" d="M20.812,64.307c0.489,0.225,1.076,0.01,1.301-0.479
	c0.225-0.489,0.01-1.076-0.479-1.31c-0.489-0.235-1.076-0.021-1.3,0.479C20.108,63.484,20.324,64.071,20.812,64.307z"/>
<path fill-rule="evenodd" clip-rule="evenodd" fill="#FFFFFF" d="M6.285,62.146c0.244,0.117,0.538,0.01,0.655-0.234
	c0.107-0.254,0-0.547-0.244-0.655c-0.245-0.117-0.528-0.011-0.646,0.235C5.932,61.735,6.04,62.028,6.285,62.146z"/>
<path fill-rule="evenodd" clip-rule="evenodd" fill="#FFFFFF" d="M9.53,24.564c0.245,0.117,0.538,0.01,0.646-0.234
	c0.117-0.245,0.01-0.538-0.234-0.656c-0.245-0.117-0.538-0.009-0.655,0.235C9.179,24.153,9.286,24.446,9.53,24.564z"/>
<path fill-rule="evenodd" clip-rule="evenodd" fill="#FFFFFF" d="M22.025,14.435c0.244,0.118,0.538,0.01,0.645-0.234
	c0.118-0.244,0.01-0.538-0.234-0.655c-0.244-0.117-0.538-0.01-0.655,0.235C21.673,14.034,21.78,14.328,22.025,14.435z"/>
<path fill-rule="evenodd" clip-rule="evenodd" fill="#FFFFFF" d="M66.187,79.167c0.244,0.117,0.538,0.01,0.645-0.234
	c0.118-0.244,0.01-0.539-0.234-0.655c-0.244-0.117-0.537-0.01-0.646,0.235C65.835,78.767,65.941,79.06,66.187,79.167z"/>
<path fill-rule="evenodd" clip-rule="evenodd" fill="#FFFFFF" d="M67.389,58.528c0.489,0.226,1.065,0.01,1.301-0.479
	c0.225-0.488,0.01-1.065-0.479-1.3c-0.488-0.226-1.065-0.01-1.3,0.479C66.685,57.717,66.9,58.293,67.389,58.528z"/>
<path fill-rule="evenodd" clip-rule="evenodd" fill="#FFFFFF" d="M23.677,82.922c0.733,0.342,1.603,0.028,1.945-0.705
	s0.02-1.612-0.713-1.955c-0.733-0.342-1.603-0.029-1.946,0.704C22.622,81.699,22.944,82.579,23.677,82.922z"/>
<path fill-rule="evenodd" clip-rule="evenodd" fill="#FFFFFF" d="M5.482,38.809c0.245,0.117,0.538,0.01,0.655-0.235
	c0.108-0.244,0-0.538-0.245-0.655c-0.244-0.118-0.538-0.01-0.645,0.235C5.131,38.398,5.238,38.691,5.482,38.809z"/>
<path fill-rule="evenodd" clip-rule="evenodd" fill="#FFFFFF" d="M44.99,65.499c0.987,0.459,2.151,0.039,2.601-0.948
	c0.459-0.988,0.029-2.16-0.949-2.621c-0.978-0.459-2.141-0.038-2.6,0.949C43.583,63.866,44.013,65.04,44.99,65.499z"/>
<circle fill-rule="evenodd" clip-rule="evenodd" fill="#FFFFFF" cx="43.358" cy="81.103" r="2.935"/>
<path fill-rule="evenodd" clip-rule="evenodd" fill="#FFFFFF" d="M12.747,74.015c1.144,0.537,2.503,0.039,3.04-1.124
	c0.538-1.154,0.04-2.533-1.104-3.07c-1.153-0.538-2.512-0.039-3.041,1.125C11.104,72.099,11.603,73.468,12.747,74.015z"/>
<path fill-rule="evenodd" clip-rule="evenodd" fill="#FFFFFF" d="M14.399,61.51c0.978,0.46,2.142,0.03,2.601-0.948
	c0.45-0.986,0.029-2.16-0.958-2.619c-0.978-0.461-2.141-0.04-2.591,0.948C12.991,59.868,13.421,61.041,14.399,61.51z"/>
<path fill-rule="evenodd" clip-rule="evenodd" fill="#FFFFFF" d="M56.703,56.231c1.339,0.635,2.934,0.038,3.559-1.32
	c0.635-1.359,0.049-2.973-1.291-3.599c-1.339-0.635-2.933-0.049-3.559,1.32C54.786,53.991,55.364,55.604,56.703,56.231z"/>
<path fill-rule="evenodd" clip-rule="evenodd" fill="#FFFFFF" d="M10.479,33.969c0.978,0.459,2.141,0.039,2.601-0.948
	c0.45-0.988,0.029-2.161-0.958-2.62c-0.978-0.46-2.141-0.04-2.601,0.948C9.071,32.336,9.491,33.51,10.479,33.969z"/>
<path fill-rule="evenodd" clip-rule="evenodd" fill="#FFFFFF" d="M28.751,66.624c0.978,0.459,2.141,0.028,2.6-0.949
	c0.46-0.987,0.03-2.161-0.948-2.62c-0.987-0.459-2.151-0.039-2.601,0.948C27.344,64.98,27.774,66.154,28.751,66.624z"/>
<path fill-rule="evenodd" clip-rule="evenodd" fill="#FFFFFF" d="M45.753,74.024c1.222,0.577,2.679,0.048,3.246-1.174
	s0.029-2.678-1.193-3.245c-1.222-0.578-2.679-0.049-3.246,1.173C43.993,72.001,44.531,73.458,45.753,74.024z"/>
<path fill-rule="evenodd" clip-rule="evenodd" fill="#FFFFFF" d="M44.492,57.619c0.978,0.46,2.15,0.029,2.601-0.949
	c0.459-0.986,0.029-2.16-0.948-2.619c-0.988-0.46-2.151-0.039-2.601,0.948C43.084,55.986,43.515,57.149,44.492,57.619z"/>
<path fill-rule="evenodd" clip-rule="evenodd" fill="#FFFFFF" d="M50.75,79.089c0.978,0.459,2.141,0.038,2.59-0.949
	c0.459-0.987,0.029-2.16-0.948-2.619c-0.978-0.46-2.142-0.039-2.601,0.947C49.341,77.456,49.761,78.629,50.75,79.089z"/>
<path fill-rule="evenodd" clip-rule="evenodd" fill="#FFFFFF" d="M18.799,45.232c0.978,0.469,2.141,0.039,2.601-0.938
	c0.45-0.988,0.02-2.161-0.958-2.621c-0.978-0.469-2.141-0.039-2.601,0.949C17.391,43.599,17.812,44.772,18.799,45.232z"/>
<path fill-rule="evenodd" clip-rule="evenodd" fill="#FFFFFF" d="M59.509,85.277c0.978,0.469,2.142,0.039,2.601-0.948
	c0.449-0.979,0.029-2.15-0.958-2.61c-0.978-0.47-2.142-0.039-2.601,0.948C58.102,83.646,58.521,84.817,59.509,85.277z"/>
<path fill-rule="evenodd" clip-rule="evenodd" fill="#FFFFFF" d="M68.65,67.278c0.733,0.342,1.603,0.029,1.944-0.704
	c0.343-0.733,0.021-1.612-0.713-1.955c-0.733-0.342-1.603-0.029-1.945,0.704C67.595,66.057,67.917,66.936,68.65,67.278z"/>
<path fill-rule="evenodd" clip-rule="evenodd" fill="#FFFFFF" d="M23.677,56.523c0.733,0.343,1.603,0.03,1.945-0.703
	s0.02-1.613-0.713-1.955c-0.733-0.343-1.603-0.03-1.946,0.703C22.622,55.301,22.944,56.182,23.677,56.523z"/>
<path fill-rule="evenodd" clip-rule="evenodd" fill="#FFFFFF" d="M78.994,24.378c1.095-1.887,0.469-4.272-1.389-5.338
	c-1.867-1.065-4.263-0.401-5.357,1.477c-1.096,1.877-0.469,4.263,1.388,5.328C75.494,26.911,77.899,26.255,78.994,24.378z"/>
<path fill-rule="evenodd" clip-rule="evenodd" fill="#FFFFFF" d="M40.982,27.731c1.202-2.082,0.518-4.742-1.516-5.924
	c-2.034-1.183-4.654-0.45-5.856,1.643c-1.193,2.082-0.509,4.731,1.524,5.915C37.169,30.547,39.79,29.824,40.982,27.731z"/>
<path fill-rule="evenodd" clip-rule="evenodd" fill="#FFFFFF" d="M81.976,82.217c-0.459-0.273-1.065-0.116-1.33,0.353
	c-0.273,0.469-0.117,1.065,0.353,1.33c0.459,0.272,1.065,0.116,1.329-0.353C82.602,83.078,82.445,82.481,81.976,82.217z"/>
<path fill-rule="evenodd" clip-rule="evenodd" fill="#FFFFFF" d="M74.937,90.303c-0.234-0.137-0.538-0.059-0.675,0.187
	c-0.137,0.233-0.059,0.536,0.177,0.674c0.234,0.138,0.537,0.049,0.675-0.186C75.25,90.743,75.171,90.439,74.937,90.303z"/>
<path fill-rule="evenodd" clip-rule="evenodd" fill="#FFFFFF" d="M41.412,31.505c-0.938-0.538-2.131-0.215-2.679,0.714
	c-0.538,0.938-0.225,2.131,0.704,2.669c0.938,0.538,2.131,0.215,2.679-0.714C42.654,33.236,42.341,32.043,41.412,31.505z"/>
<path fill-rule="evenodd" clip-rule="evenodd" fill="#FFFFFF" d="M47.513,7.973c-0.694-0.401-1.593-0.167-2.004,0.538
	c-0.401,0.704-0.166,1.604,0.538,2.004c0.694,0.401,1.594,0.167,2.004-0.538C48.452,9.273,48.217,8.374,47.513,7.973z"/>
<path fill-rule="evenodd" clip-rule="evenodd" fill="#FFFFFF" d="M37.149,36.863c-0.469-0.273-1.065-0.117-1.339,0.362
	c-0.265,0.469-0.108,1.076,0.361,1.34c0.459,0.273,1.056,0.107,1.33-0.362C37.775,37.733,37.609,37.127,37.149,36.863z"/>
<path fill-rule="evenodd" clip-rule="evenodd" fill="#FFFFFF" d="M76.882,85.18c-0.469-0.274-1.065-0.118-1.339,0.361
	c-0.274,0.47-0.118,1.075,0.352,1.35c0.47,0.273,1.066,0.107,1.34-0.362C77.508,86.06,77.351,85.453,76.882,85.18z"/>
<path fill-rule="evenodd" clip-rule="evenodd" fill="#FFFFFF" d="M83.101,77.925c-0.47-0.273-1.076-0.107-1.35,0.362
	c-0.264,0.479-0.107,1.075,0.361,1.349c0.47,0.274,1.066,0.118,1.34-0.352C83.726,78.805,83.569,78.209,83.101,77.925z"/>
<path fill-rule="evenodd" clip-rule="evenodd" fill="#FFFFFF" d="M90.922,74.992c-0.47-0.274-1.076-0.108-1.35,0.361
	c-0.264,0.479-0.107,1.075,0.361,1.35c0.47,0.274,1.066,0.117,1.34-0.353C91.547,75.871,91.391,75.275,90.922,74.992z"/>
<path fill-rule="evenodd" clip-rule="evenodd" fill="#FFFFFF" d="M68.015,91.388c-0.577-0.342-1.319-0.137-1.662,0.449
	c-0.342,0.597-0.146,1.35,0.431,1.683c0.587,0.342,1.329,0.146,1.671-0.45C68.797,92.482,68.602,91.73,68.015,91.388z"/>
<path fill-rule="evenodd" clip-rule="evenodd" fill="#FFFFFF" d="M62.148,93.344c-0.577-0.343-1.319-0.138-1.662,0.448
	c-0.342,0.597-0.146,1.351,0.431,1.683c0.587,0.342,1.33,0.146,1.672-0.45C62.931,94.438,62.735,93.686,62.148,93.344z"/>
<path fill-rule="evenodd" clip-rule="evenodd" fill="#FFFFFF" d="M68.357,14.348c-0.577-0.333-1.33-0.128-1.662,0.459
	c-0.343,0.596-0.147,1.35,0.431,1.682c0.586,0.342,1.328,0.137,1.671-0.459C69.139,15.442,68.943,14.689,68.357,14.348z"/>
<path fill-rule="evenodd" clip-rule="evenodd" fill="#FFFFFF" d="M91.146,39.229c-0.469-0.274-1.075-0.107-1.35,0.362
	c-0.273,0.469-0.117,1.075,0.362,1.349c0.469,0.274,1.065,0.117,1.34-0.362C91.771,40.109,91.615,39.503,91.146,39.229z"/>
<path fill-rule="evenodd" clip-rule="evenodd" fill="#FFFFFF" d="M68.64,21.954c-0.469-0.264-1.065-0.107-1.339,0.371
	c-0.273,0.469-0.117,1.076,0.352,1.349c0.47,0.274,1.065,0.108,1.34-0.371C69.267,22.833,69.109,22.228,68.64,21.954z"/>
<path fill-rule="evenodd" clip-rule="evenodd" fill="#FFFFFF" d="M60.614,12.9c-0.47-0.274-1.065-0.108-1.34,0.361
	c-0.273,0.479-0.107,1.076,0.362,1.35c0.459,0.273,1.065,0.107,1.338-0.362C61.239,13.771,61.083,13.164,60.614,12.9z"/>
<path fill-rule="evenodd" clip-rule="evenodd" fill="#FFFFFF" d="M47.904,12.9c-0.469-0.274-1.065-0.108-1.339,0.361
	c-0.274,0.479-0.108,1.076,0.361,1.35c0.459,0.273,1.066,0.107,1.339-0.362C48.53,13.771,48.373,13.164,47.904,12.9z"/>
<path fill-rule="evenodd" clip-rule="evenodd" fill="#FFFFFF" d="M54.161,8.628C53.692,8.354,53.096,8.52,52.821,9
	c-0.264,0.469-0.106,1.075,0.362,1.339c0.459,0.273,1.065,0.107,1.33-0.362C54.786,9.498,54.631,8.901,54.161,8.628z"/>
<path fill-rule="evenodd" clip-rule="evenodd" fill="#FFFFFF" d="M35.781,14.817c-0.694-0.401-1.593-0.157-2.004,0.547
	c-0.401,0.694-0.166,1.594,0.538,1.995c0.694,0.401,1.593,0.156,2.004-0.547C36.719,16.117,36.484,15.217,35.781,14.817z"/>
<path fill-rule="evenodd" clip-rule="evenodd" fill="#FFFFFF" d="M75.279,41.008c-0.47-0.274-1.065-0.108-1.34,0.362
	c-0.273,0.479-0.117,1.075,0.352,1.349c0.47,0.274,1.066,0.107,1.34-0.362S75.748,41.282,75.279,41.008z"/>
<path fill-rule="evenodd" clip-rule="evenodd" fill="#FFFFFF" d="M66.831,7.054c-0.938-0.528-2.131-0.206-2.679,0.733
	c-0.537,0.939-0.225,2.132,0.705,2.669c0.938,0.528,2.131,0.206,2.679-0.733C68.073,8.794,67.761,7.592,66.831,7.054z"/>
<path fill-rule="evenodd" clip-rule="evenodd" fill="#FFFFFF" d="M48.989,29.609c-1.173-0.675-2.668-0.264-3.343,0.909
	c-0.675,1.164-0.284,2.66,0.88,3.334c1.173,0.665,2.668,0.264,3.343-0.909C50.543,31.779,50.153,30.283,48.989,29.609z"/>
<path fill-rule="evenodd" clip-rule="evenodd" fill="#FFFFFF" d="M62.677,35.289c-0.469-0.274-1.065-0.107-1.34,0.361
	c-0.274,0.47-0.107,1.076,0.353,1.35c0.47,0.273,1.075,0.107,1.339-0.362C63.303,36.159,63.146,35.562,62.677,35.289z"/>
<path fill-rule="evenodd" clip-rule="evenodd" fill="#FFFFFF" d="M84.918,38.476c-1.397-0.811-3.196-0.322-4.008,1.076
	c-0.821,1.408-0.342,3.197,1.057,4.008c1.397,0.812,3.196,0.323,4.008-1.076C86.796,41.077,86.316,39.288,84.918,38.476z"/>
<path fill-rule="evenodd" clip-rule="evenodd" fill="#FFFFFF" d="M91.43,50.199c-0.47-0.274-1.075-0.107-1.349,0.362
	c-0.274,0.469-0.108,1.074,0.361,1.35c0.469,0.273,1.065,0.116,1.34-0.362C92.057,51.078,91.899,50.472,91.43,50.199z"/>
<path fill-rule="evenodd" clip-rule="evenodd" fill="#FFFFFF" d="M94.079,30.811c-0.469-0.273-1.075-0.107-1.349,0.362
	c-0.274,0.479-0.117,1.085,0.361,1.349c0.469,0.274,1.065,0.118,1.34-0.362C94.705,31.691,94.548,31.085,94.079,30.811z"/>
<path fill-rule="evenodd" clip-rule="evenodd" fill="#FFFFFF" d="M81.829,72.068c-0.469-0.273-1.075-0.107-1.35,0.362
	c-0.273,0.47-0.107,1.075,0.362,1.349c0.47,0.274,1.065,0.118,1.339-0.361C82.455,72.949,82.299,72.343,81.829,72.068z"/>
<path fill-rule="evenodd" clip-rule="evenodd" fill="#FFFFFF" d="M85.993,68.207c-0.233-0.137-0.536-0.059-0.674,0.177
	c-0.137,0.233-0.049,0.537,0.186,0.675c0.234,0.137,0.528,0.058,0.665-0.177C86.307,68.646,86.229,68.344,85.993,68.207z"/>
<path fill-rule="evenodd" clip-rule="evenodd" fill="#FFFFFF" d="M91.186,55.771c-0.47-0.272-1.065-0.106-1.34,0.362
	c-0.273,0.469-0.117,1.076,0.353,1.349c0.469,0.274,1.075,0.118,1.34-0.36C91.812,56.651,91.655,56.045,91.186,55.771z"/>
<path fill-rule="evenodd" clip-rule="evenodd" fill="#FFFFFF" d="M83.364,56.006c-0.235-0.138-0.538-0.049-0.674,0.186
	c-0.138,0.234-0.06,0.538,0.175,0.675c0.235,0.137,0.538,0.059,0.675-0.187C83.677,56.446,83.599,56.144,83.364,56.006z"/>
<path fill-rule="evenodd" clip-rule="evenodd" fill="#FFFFFF" d="M88.585,33.363c-0.235-0.137-0.538-0.059-0.675,0.176
	c-0.137,0.234-0.059,0.538,0.176,0.674c0.235,0.137,0.538,0.059,0.675-0.176C88.897,33.793,88.819,33.5,88.585,33.363z"/>
<path fill-rule="evenodd" clip-rule="evenodd" fill="#FFFFFF" d="M77.636,78.601c-0.235-0.138-0.539-0.06-0.675,0.175
	c-0.137,0.235-0.049,0.538,0.186,0.675s0.527,0.059,0.665-0.176C77.947,79.03,77.869,78.736,77.636,78.601z"/>
<path fill-rule="evenodd" clip-rule="evenodd" fill="#FFFFFF" d="M92.251,65.725c-0.938-0.539-2.131-0.226-2.679,0.713
	c-0.538,0.929-0.225,2.132,0.704,2.669c0.938,0.538,2.131,0.225,2.679-0.714C93.493,67.464,93.18,66.262,92.251,65.725z"/>
<path fill-rule="evenodd" clip-rule="evenodd" fill="#FFFFFF" d="M70.85,86.06c-0.234-0.137-0.527-0.06-0.665,0.176
	c-0.137,0.235-0.059,0.537,0.177,0.675c0.233,0.137,0.528,0.059,0.664-0.177C71.162,86.5,71.084,86.196,70.85,86.06z"/>
<path fill-rule="evenodd" clip-rule="evenodd" fill="#FFFFFF" d="M29.68,25.639c-0.938-0.538-2.131-0.215-2.679,0.723
	c-0.538,0.929-0.225,2.132,0.714,2.66c0.929,0.538,2.121,0.215,2.669-0.723C30.922,27.37,30.609,26.167,29.68,25.639z"/>
<path fill-rule="evenodd" clip-rule="evenodd" fill="#FFFFFF" d="M31.44,36.599c-0.225-0.127-0.528-0.049-0.665,0.186
	c-0.136,0.235-0.048,0.538,0.176,0.674c0.234,0.137,0.538,0.049,0.665-0.186C31.753,37.039,31.674,36.736,31.44,36.599z"/>
<path fill-rule="evenodd" clip-rule="evenodd" fill="#FFFFFF" d="M59.245,20.683c-0.694-0.401-1.594-0.166-2.004,0.538
	c-0.401,0.704-0.166,1.604,0.537,2.004c0.694,0.401,1.594,0.167,2.004-0.538C60.184,21.983,59.948,21.083,59.245,20.683z"/>
<path fill-rule="evenodd" clip-rule="evenodd" fill="#FFFFFF" d="M97.374,44.147c-0.694-0.401-1.594-0.167-2.004,0.538
	c-0.401,0.704-0.166,1.604,0.537,2.004c0.694,0.401,1.594,0.167,2.005-0.538C98.312,45.447,98.078,44.547,97.374,44.147z"/>
<path fill-rule="evenodd" clip-rule="evenodd" fill="#FFFFFF" d="M77.82,13.839c-0.693-0.401-1.593-0.166-2.004,0.538
	c-0.4,0.704-0.166,1.594,0.538,2.004c0.694,0.401,1.593,0.167,2.004-0.537C78.759,15.139,78.524,14.25,77.82,13.839z"/>
<path fill-rule="evenodd" clip-rule="evenodd" fill="#FFFFFF" d="M97.648,50.697c-0.235-0.137-0.538-0.059-0.675,0.176
	s-0.049,0.537,0.186,0.675c0.234,0.137,0.538,0.059,0.674-0.177C97.97,51.137,97.882,50.834,97.648,50.697z"/>
<path fill-rule="evenodd" clip-rule="evenodd" fill="#FFFFFF" d="M64.378,18.659c-0.459-0.264-1.065-0.107-1.33,0.362
	c-0.274,0.469-0.117,1.065,0.353,1.339c0.459,0.264,1.065,0.107,1.329-0.362C65.003,19.529,64.848,18.933,64.378,18.659z"/>
<path fill-rule="evenodd" clip-rule="evenodd" fill="#FFFFFF" d="M65.609,26.676c-1.173-0.665-2.669-0.264-3.344,0.899
	c-0.674,1.173-0.283,2.669,0.881,3.343c1.172,0.665,2.668,0.264,3.343-0.899C67.164,28.846,66.773,27.35,65.609,26.676z"/>
<path fill-rule="evenodd" clip-rule="evenodd" fill="#FFFFFF" d="M56.331,13.115c-1.633-0.938-3.734-0.362-4.682,1.281
	c-0.959,1.643-0.401,3.725,1.222,4.664c1.633,0.938,3.725,0.362,4.682-1.281C58.512,16.136,57.954,14.054,56.331,13.115z"/>
<path fill-rule="evenodd" clip-rule="evenodd" fill="#FFFFFF" d="M88.731,24.446c-1.095-0.635-2.503-0.254-3.148,0.861
	c-0.645,1.115-0.273,2.532,0.822,3.167c1.095,0.636,2.512,0.254,3.147-0.86C90.198,26.5,89.827,25.082,88.731,24.446z"/>
<path fill-rule="evenodd" clip-rule="evenodd" fill="#FFFFFF" d="M81.39,31.682c-0.939-0.538-2.142-0.215-2.688,0.733
	c-0.548,0.948-0.226,2.151,0.713,2.698c0.938,0.548,2.142,0.225,2.688-0.723C82.65,33.441,82.327,32.229,81.39,31.682z"/>
<path fill-rule="evenodd" clip-rule="evenodd" fill="#FFFFFF" d="M42.185,38.936c-1.271-0.743-2.913-0.293-3.656,1.017
	c-0.753,1.3-0.323,2.953,0.948,3.695c1.271,0.743,2.904,0.293,3.656-1.017C43.886,41.331,43.456,39.669,42.185,38.936z"/>
<path fill-rule="evenodd" clip-rule="evenodd" fill="#FFFFFF" d="M85.358,59.907c-0.938-0.548-2.151-0.226-2.688,0.724
	c-0.547,0.948-0.234,2.16,0.704,2.707c0.938,0.548,2.142,0.225,2.688-0.724C86.61,61.667,86.297,60.454,85.358,59.907z"/>
<path fill-rule="evenodd" clip-rule="evenodd" fill="#FFFFFF" d="M73.47,31.721c-0.938-0.548-2.142-0.226-2.688,0.723
	c-0.537,0.949-0.225,2.161,0.714,2.699c0.938,0.547,2.141,0.225,2.679-0.724C74.722,33.471,74.408,32.258,73.47,31.721z"/>
<path fill-rule="evenodd" clip-rule="evenodd" fill="#FFFFFF" d="M57.544,28.699c-1.398-0.811-3.197-0.322-4.009,1.085
	c-0.82,1.398-0.342,3.198,1.057,3.999c1.397,0.812,3.196,0.323,4.008-1.085C59.421,31.3,58.941,29.501,57.544,28.699z"/>
<path fill-rule="evenodd" clip-rule="evenodd" fill="#FFFFFF" d="M50.387,37.107c-0.928-0.547-2.131-0.225-2.668,0.724
	c-0.547,0.948-0.225,2.15,0.704,2.688c0.938,0.547,2.131,0.225,2.68-0.724C51.639,38.857,51.326,37.645,50.387,37.107z"/>
<path fill-rule="evenodd" clip-rule="evenodd" fill="#FFFFFF" d="M49.722,20.878c-1.397-0.811-3.196-0.322-4.008,1.085
	c-0.821,1.408-0.342,3.198,1.056,3.999c1.398,0.812,3.197,0.323,4.008-1.085C51.6,23.469,51.12,21.68,49.722,20.878z"/>
<path fill-rule="evenodd" clip-rule="evenodd" fill="#FFFFFF" d="M81.096,46.855c-0.938-0.547-2.141-0.225-2.68,0.723
	c-0.547,0.949-0.233,2.161,0.705,2.699c0.938,0.547,2.141,0.225,2.688-0.724C82.356,48.615,82.035,47.402,81.096,46.855z"/>
<path fill-rule="evenodd" clip-rule="evenodd" fill="#FFFFFF" d="M95.761,59.565c-0.938-0.548-2.141-0.226-2.679,0.723
	c-0.548,0.948-0.234,2.16,0.704,2.698c0.938,0.548,2.141,0.225,2.688-0.724C97.021,61.324,96.7,60.112,95.761,59.565z"/>
<path fill-rule="evenodd" clip-rule="evenodd" fill="#FFFFFF" d="M43.543,14.748c-0.928-0.538-2.122-0.206-2.669,0.733
	c-0.538,0.949-0.225,2.151,0.714,2.699c0.928,0.538,2.121,0.215,2.669-0.733C44.795,16.498,44.482,15.295,43.543,14.748z"/>
<path fill-rule="evenodd" clip-rule="evenodd" fill="#FFFFFF" d="M34.803,32.415c-0.694-0.401-1.593-0.166-2.004,0.538
	c-0.401,0.704-0.167,1.604,0.538,2.004c0.694,0.401,1.593,0.167,2.004-0.538C35.742,33.715,35.507,32.815,34.803,32.415z"/>
<path fill-rule="evenodd" clip-rule="evenodd" fill="#FFFFFF" d="M67.105,41.556c-0.469-0.264-1.065-0.107-1.34,0.372
	c-0.273,0.47-0.117,1.076,0.353,1.349c0.469,0.264,1.065,0.107,1.34-0.362C67.73,42.436,67.574,41.83,67.105,41.556z"/>
<path fill-rule="evenodd" clip-rule="evenodd" fill="#FFFFFF" d="M90.922,45.662c-0.47-0.273-1.076-0.107-1.35,0.362
	c-0.264,0.479-0.107,1.076,0.361,1.349c0.47,0.274,1.066,0.117,1.34-0.352C91.547,46.542,91.391,45.946,90.922,45.662z"/>
</svg>
