<?xml version="1.0" encoding="utf-8"?>
<!-- Generator: Adobe Illustrator 16.0.0, SVG Export Plug-In . SVG Version: 6.00 Build 0)  -->
<!DOCTYPE svg PUBLIC "-//W3C//DTD SVG 1.1//EN" "http://www.w3.org/Graphics/SVG/1.1/DTD/svg11.dtd">
<svg version="1.1" id="Your_Icon" xmlns="http://www.w3.org/2000/svg" xmlns:xlink="http://www.w3.org/1999/xlink" x="0px" y="0px"
	 width="100px" height="100px" viewBox="0 0 100 100" enable-background="new 0 0 100 100" xml:space="preserve">
<g id="Layer_1_1_">
	<circle cx="18.652" cy="33.217" r="1.231"/>
	<circle cx="47.218" cy="34.922" r="1.231"/>
	<circle cx="16.395" cy="23.002" r="1.232"/>
	<circle cx="45.346" cy="46.48" r="1.23"/>
	<circle cx="20.412" cy="42.937" r="1.231"/>
	<circle cx="41.339" cy="38.951" r="1.231"/>
	<circle cx="6.165" cy="46.48" r="1.23"/>
	<ellipse cx="37.777" cy="74.826" rx="1.232" ry="1.225"/>
	<ellipse cx="56.079" cy="33.652" rx="1.231" ry="1.226"/>
	<circle cx="68.055" cy="75.27" r="1.231"/>
	<circle cx="64.938" cy="67.297" r="1.23"/>
	<circle cx="23.529" cy="16.364" r="1.231"/>
	<circle cx="62.266" cy="5.291" r="1.23"/>
	<circle cx="59.258" cy="24.81" r="1.232"/>
	<circle cx="44.622" cy="7.022" r="1.232"/>
	<circle cx="41.44" cy="18.771" r="1.232"/>
	<circle cx="12.179" cy="31.752" r="0.615"/>
	<circle cx="46.935" cy="16.397" r="0.616"/>
	<circle cx="50.44" cy="68.942" r="0.615"/>
	<circle cx="27.355" cy="30.167" r="0.616"/>
	<circle cx="32.479" cy="20.925" r="0.616"/>
	<circle cx="32.751" cy="35.047" r="0.615"/>
	<circle cx="59.088" cy="64.271" r="0.616"/>
	<circle cx="56.971" cy="86.947" r="0.617"/>
	<circle cx="59.641" cy="20.437" r="0.616"/>
	<circle cx="60.537" cy="41.593" r="0.616"/>
	<circle cx="48.582" cy="64.706" r="0.616"/>
	<circle cx="43.892" cy="58.528" r="0.615"/>
	<circle cx="49.612" cy="41.373" r="0.615"/>
	<circle cx="32.243" cy="29.313" r="1.23"/>
	<circle cx="56.266" cy="39.607" r="1.231"/>
	<circle cx="36.965" cy="9.783" r="4.576"/>
	<circle cx="40.396" cy="26.937" r="3.432"/>
	<ellipse cx="52.105" cy="24.644" rx="2.463" ry="2.451"/>
	<circle cx="67.852" cy="34.944" r="3.432"/>
	<ellipse cx="56.898" cy="14.554" rx="2.463" ry="2.451"/>
	<circle cx="35.82" cy="48.67" r="3.431"/>
	<path d="M74.003,26.779c-0.323-0.976-1.614-1.25-2.603-1.27c-0.436-0.01-1.797-0.449-2.397-0.599
		c-0.601-0.149-0.396-0.915-0.474-1.266c-0.074-0.349,0.059-0.819,0.022-0.912C68.518,22.637,68.2,22.18,68.2,22.18
		s0.022-0.228,0.5-0.411c0.196-0.074-0.138-0.22-0.332-0.307c-0.2-0.089-0.606-0.488-0.669-0.617
		c-0.151-0.305,0.102-0.456,0.322-0.597c0.22-0.139,0.369-0.761,0.203-0.917c-0.168-0.153-0.805-0.776-0.748-1.024
		c0.086-0.362,0.502-0.571,0.668-0.657c0.485-0.263,1.082-0.767,1.231-1.098c0.151-0.334,0.325-0.95,0.403-1.476
		c0.078-0.527-0.148-1.725-0.326-2.262c-0.303-0.917,0.047-1.458,0.357-1.909c0.304-0.444,0.931-1.157,2.131-1.788
		c1.201-0.634,2.636-0.838,4.095-1.071c2.104-0.335,5.396,0.177,6.563,0.457c1.004,0.24,2.741,1.653,3.008,1.938
		c0.266,0.283,0.775-0.042,1.147-0.076c0.373-0.034,0.625,0.313,0.625,0.313s-0.746-0.137-0.563,0.068
		c0.186,0.206,0.479,0.882,0.802,1.639c0.323,0.753,0.063,0.944-0.054,1.704c-0.114,0.756-0.061,0.133,0.082,0.844
		c0.145,0.712,0.679,3.29,0.653,3.68c-0.024,0.391-0.319,2.168-0.805,2.95c-0.483,0.78-0.349,0.35-0.443,0.387
		c-0.097,0.036-0.14-0.997-0.265-0.333c-0.036,0.182-0.062,0.53-0.471,1.225c-0.403,0.695-0.377,0.802-1.233,1.452
		c-0.853,0.649-1.381,0.319-1.89,0.885c-0.284,0.229-1.045,1.127-1.045,1.746c-0.039,0.378,0.189,1.149,0.369,1.43
		c0.086,0.137,0.562,0.334,0.848,0.761c0.283,0.428,1.236,0.83,1.191,0.673c-0.041-0.157,0.244-0.713,0.465-1.014
		c0.224-0.299,0.644-0.539,0.853-0.583c0.207-0.042,0.667-0.022,0.796,0.449c0.132,0.472-0.429,1.327-0.484,1.429
		c-0.058,0.1,0.465-0.032,0.832-0.169c0.365-0.141,0.951,0.457,1.607,0.692c0.654,0.237,1.867,1.692,2.172,1.757
		c0.309,0.066,0.756,0,1.271,0.023c0.512,0.022,1.099,0.244,1.271,0.647c0.095,0.21,0.028,2.458-0.028,2.561
		c-0.058,0.102,0.121,0.68,0.359,1.055s-0.002,1.04,0.15,1.046c0.154,0.008,0.654-0.299,1.217-0.22
		c0.566,0.08,0.352,0.208,0.787,0.8c0.434,0.593-0.037,2.374-0.135,3.253c-0.099,0.879-1.182,3.214-1.746,4.386
		c-0.616,1.285-1.344,4.299-1.647,5.218c-0.307,0.918-1.138,3.006-1.646,3.859c-0.51,0.856-0.303,0.834-0.594,1.494
		c-0.293,0.659-0.582,1.301-0.804,1.549c-0.22,0.246-0.881,0.106-1.231-0.069c-0.354-0.175-0.653-0.347-1.61-0.712
		c-0.958-0.363-0.788-0.665-0.972-1.09c-0.183-0.428-0.061-0.834-0.377-0.646c-0.319,0.191,0.013,0.729,0.148,1.046
		c0.139,0.32-0.089,1.706-0.118,2.277c-0.028,0.567,0.019,2.595-0.389,3.507c-0.408,0.909-1.761,3.215-2.046,3.82
		c-0.289,0.604-0.83,1.144-0.702,1.619c0.131,0.472-0.138,1.647-0.312,2.054c-0.176,0.403-0.383,0.442-0.451,0.802
		c-0.071,0.357,0.293,0.227,0.386,0.439c0.091,0.211-0.054,1.031-0.054,1.031s0.506,0.795,0.549,1.279
		c0.043,0.487,0.529,1.694,0.518,1.9c-0.012,0.207,0.189,0.287,0.379,0.646c0.186,0.359,0.885,2.688,0.838,3.586
		c-0.049,0.896,0.252,6.354,0.252,6.354s0.356,0.696,0.201,0.741c-0.529,0.14-0.162,0.473-0.031,0.619
		c0.129,0.147,0.381-0.113,0.58,0.039c0.196,0.151,0.527,0.418,0.604,1.532c0.081,1.116,0.317,1.166,0.28,1.858
		c-0.035,0.691,0.39,1.102,0.429,1.658c0.04,0.56-1.651,1.412-2.556,1.625c-0.899,0.213-1.494,0.414-3.006,0.517
		c-1.508,0.101-2.744,0.877-3.707,1.017c-0.961,0.139-2.147-0.178-3.062-0.668c-0.893-0.477-1.475-1.07-1.412-2.238
		s0.34-0.994,0.932-1.523c0.586-0.527,2.076-0.684,2.386-0.766c0.311-0.082,0.819-0.702,0.942-1.109
		c0.125-0.404,0.53-0.707,1.105-0.927c0.574-0.22,0.665-0.627,0.304-0.601c-0.358,0.026-2.028-0.295-2.842-0.4
		c-0.812-0.105-0.649-0.251-1.412-0.305c-0.761-0.053-0.669,0.109-1.228,0.123c-0.563,0.016-2.08-0.141-3.032-0.412
		c-0.951-0.271-1.632-0.836-2.172-1.18c-0.539-0.349-0.419-0.857-0.316-1.674c0.06-0.477,0.802-0.788,1.371-1.009
		c0.569-0.222,1.958-0.524,2.166-0.615c0.209-0.089,0.454-0.245,0.46-0.349s1.291-0.379,1.441-0.318
		c0.147,0.062,0.41-0.075,0.832-0.357c0.423-0.283,0.285-0.227,0.59-0.203c0.305,0.02,0.23-0.504,0.438-0.594
		c0.209-0.088,0.363-0.132,0.227-0.397c-0.141-0.271-0.217-0.739-0.141-1.252c0.078-0.511,0.754-0.728,1.071-0.966
		c0.317-0.237-0.53-0.553-0.577-0.657c-0.044-0.106,0.438-0.593,0.451-0.8c0.012-0.205-0.287-0.379-0.376-0.646
		c-0.09-0.264,0.033-0.619,0.041-0.823c0.011-0.207-0.095-0.438-0.319-1.021c-0.227-0.58-0.775-5.303-0.746-5.87
		c0.03-0.567-0.61-0.967-0.746-1.284c-0.137-0.316-0.672-2.729-0.648-3.139c0.021-0.412-0.141-0.541-0.816-1.251
		s-1.379-4.052-1.438-4.829c-0.062-0.775,0.03-2.867-0.118-2.928s-0.414,0.184-0.618,0.174c-0.202-0.014-0.806-0.098-1.011-0.057
		c-0.206,0.039-0.889,1.17-1.16,1.516s-0.688,0.254-1.396,0.265c-0.709,0.015-0.865-0.235-1.062-0.299
		c-0.199-0.062-0.495-0.851-0.893-0.974c-0.396-0.127-0.533-0.733-0.721-1c-0.188-0.269-0.27-0.633-0.158-0.832
		c0.109-0.197,0.408-1.057,0.584-1.51c0.177-0.453,0.211-0.468,0.77-0.543c0.561-0.07,0.898-0.088,0.867-0.502
		c-0.026-0.412,1.047-0.972,1.422-1.364s2.398-2.294,2.574-2.748c0.177-0.455,0.378-0.443,0.447-0.802
		c0.068-0.356,0.322-6.163,0.432-8.215c0.105-2.054,0.831-4.757,1.062-5.441c0.317-0.947,1.035-2.013,1.31-2.413
		c0.274-0.399,0.792-1.218,0.956-1.468c0.054-0.079,0.438-0.563,0.475-1.25"/>
	<ellipse cx="57.451" cy="47.676" rx="2.461" ry="2.453"/>
	<circle cx="56.032" cy="79.699" r="1.231"/>
	<circle cx="54.188" cy="8.206" r="0.615"/>
</g>
</svg>
