<?xml version="1.0" encoding="utf-8"?>
<!-- Generator: Adobe Illustrator 16.0.0, SVG Export Plug-In . SVG Version: 6.00 Build 0)  -->
<!DOCTYPE svg PUBLIC "-//W3C//DTD SVG 1.1//EN" "http://www.w3.org/Graphics/SVG/1.1/DTD/svg11.dtd">
<svg version="1.1" id="Your_Icon" xmlns="http://www.w3.org/2000/svg" xmlns:xlink="http://www.w3.org/1999/xlink" x="0px" y="0px"
	 width="100px" height="100px" viewBox="0 0 100 100" enable-background="new 0 0 100 100" xml:space="preserve">
<g id="Layer_1_1_">
	<circle fill="#FFFFFF" cx="18.652" cy="33.217" r="1.231"/>
	<circle fill="#FFFFFF" cx="47.218" cy="34.922" r="1.231"/>
	<circle fill="#FFFFFF" cx="16.395" cy="23.002" r="1.232"/>
	<circle fill="#FFFFFF" cx="45.346" cy="46.48" r="1.23"/>
	<circle fill="#FFFFFF" cx="20.412" cy="42.937" r="1.231"/>
	<circle fill="#FFFFFF" cx="41.339" cy="38.951" r="1.231"/>
	<circle fill="#FFFFFF" cx="6.165" cy="46.48" r="1.23"/>
	<ellipse fill="#FFFFFF" cx="37.777" cy="74.826" rx="1.232" ry="1.225"/>
	<ellipse fill="#FFFFFF" cx="56.079" cy="33.652" rx="1.231" ry="1.226"/>
	<circle fill="#FFFFFF" cx="68.054" cy="75.27" r="1.231"/>
	<circle fill="#FFFFFF" cx="64.937" cy="67.297" r="1.23"/>
	<circle fill="#FFFFFF" cx="23.529" cy="16.364" r="1.231"/>
	<circle fill="#FFFFFF" cx="62.266" cy="5.291" r="1.23"/>
	<circle fill="#FFFFFF" cx="59.258" cy="24.81" r="1.232"/>
	<circle fill="#FFFFFF" cx="44.622" cy="7.022" r="1.232"/>
	<circle fill="#FFFFFF" cx="41.44" cy="18.771" r="1.232"/>
	<circle fill="#FFFFFF" cx="12.179" cy="31.752" r="0.615"/>
	<circle fill="#FFFFFF" cx="46.935" cy="16.397" r="0.616"/>
	<circle fill="#FFFFFF" cx="50.44" cy="68.942" r="0.615"/>
	<circle fill="#FFFFFF" cx="27.355" cy="30.167" r="0.616"/>
	<circle fill="#FFFFFF" cx="32.479" cy="20.925" r="0.616"/>
	<circle fill="#FFFFFF" cx="32.751" cy="35.047" r="0.615"/>
	<circle fill="#FFFFFF" cx="59.088" cy="64.271" r="0.616"/>
	<circle fill="#FFFFFF" cx="56.971" cy="86.947" r="0.617"/>
	<circle fill="#FFFFFF" cx="59.64" cy="20.437" r="0.616"/>
	<circle fill="#FFFFFF" cx="60.537" cy="41.593" r="0.616"/>
	<circle fill="#FFFFFF" cx="48.582" cy="64.706" r="0.616"/>
	<circle fill="#FFFFFF" cx="43.892" cy="58.528" r="0.615"/>
	<circle fill="#FFFFFF" cx="49.612" cy="41.373" r="0.615"/>
	<circle fill="#FFFFFF" cx="32.243" cy="29.313" r="1.23"/>
	<circle fill="#FFFFFF" cx="56.265" cy="39.607" r="1.231"/>
	<circle fill="#FFFFFF" cx="36.965" cy="9.783" r="4.576"/>
	<circle fill="#FFFFFF" cx="40.396" cy="26.937" r="3.432"/>
	<ellipse fill="#FFFFFF" cx="52.106" cy="24.644" rx="2.463" ry="2.451"/>
	<circle fill="#FFFFFF" cx="67.851" cy="34.944" r="3.432"/>
	<ellipse fill="#FFFFFF" cx="56.899" cy="14.554" rx="2.462" ry="2.451"/>
	<circle fill="#FFFFFF" cx="35.82" cy="48.67" r="3.431"/>
	<path fill="#FFFFFF" d="M74.003,26.779c-0.323-0.976-1.615-1.25-2.602-1.27c-0.436-0.01-1.797-0.449-2.398-0.599
		c-0.6-0.149-0.396-0.915-0.473-1.266c-0.075-0.349,0.058-0.819,0.022-0.912C68.517,22.637,68.2,22.18,68.2,22.18
		s0.023-0.228,0.5-0.411c0.197-0.074-0.138-0.22-0.332-0.307c-0.2-0.089-0.606-0.488-0.669-0.617
		c-0.151-0.305,0.102-0.456,0.322-0.597c0.22-0.139,0.37-0.761,0.204-0.917c-0.168-0.153-0.805-0.776-0.748-1.024
		c0.085-0.362,0.502-0.571,0.667-0.657c0.486-0.263,1.083-0.767,1.232-1.098c0.151-0.334,0.325-0.95,0.403-1.476
		c0.079-0.527-0.148-1.725-0.326-2.262c-0.303-0.917,0.047-1.458,0.358-1.909c0.303-0.444,0.93-1.157,2.131-1.788
		c1.2-0.634,2.635-0.838,4.094-1.071c2.104-0.335,5.396,0.177,6.563,0.457c1.005,0.24,2.742,1.653,3.008,1.938
		c0.266,0.283,0.776-0.042,1.148-0.076c0.373-0.034,0.625,0.313,0.625,0.313s-0.746-0.137-0.563,0.068
		c0.185,0.206,0.478,0.882,0.801,1.639c0.324,0.753,0.063,0.944-0.053,1.704c-0.115,0.756-0.061,0.133,0.081,0.844
		c0.145,0.712,0.679,3.29,0.654,3.68c-0.025,0.391-0.319,2.168-0.805,2.95c-0.484,0.78-0.349,0.35-0.443,0.387
		c-0.097,0.036-0.14-0.997-0.265-0.333c-0.036,0.182-0.063,0.53-0.47,1.225c-0.404,0.695-0.378,0.802-1.234,1.452
		c-0.853,0.649-1.381,0.319-1.889,0.885c-0.285,0.229-1.045,1.127-1.045,1.746c-0.04,0.378,0.189,1.149,0.368,1.43
		c0.086,0.137,0.562,0.334,0.848,0.761c0.284,0.428,1.237,0.83,1.192,0.673c-0.042-0.157,0.244-0.713,0.465-1.014
		c0.223-0.299,0.643-0.539,0.852-0.583c0.207-0.042,0.667-0.022,0.796,0.449c0.132,0.472-0.429,1.327-0.484,1.429
		c-0.058,0.1,0.465-0.032,0.831-0.169c0.366-0.141,0.952,0.457,1.608,0.692c0.654,0.237,1.867,1.692,2.172,1.757
		c0.308,0.066,0.756,0,1.271,0.023c0.512,0.022,1.099,0.244,1.271,0.647c0.094,0.21,0.028,2.458-0.028,2.561
		c-0.058,0.102,0.12,0.68,0.359,1.055c0.238,0.375-0.002,1.04,0.151,1.046c0.154,0.008,0.653-0.299,1.216-0.22
		c0.566,0.08,0.351,0.208,0.787,0.8c0.434,0.593-0.037,2.374-0.134,3.253c-0.099,0.879-1.182,3.214-1.747,4.386
		c-0.616,1.285-1.343,4.299-1.647,5.218c-0.307,0.918-1.138,3.006-1.646,3.86c-0.509,0.856-0.303,0.834-0.594,1.493
		c-0.292,0.66-0.581,1.301-0.803,1.549c-0.22,0.247-0.881,0.107-1.232-0.069c-0.353-0.174-0.653-0.347-1.61-0.712
		c-0.958-0.363-0.788-0.665-0.971-1.09c-0.183-0.428-0.061-0.834-0.377-0.646c-0.32,0.191,0.012,0.729,0.148,1.046
		c0.139,0.32-0.089,1.706-0.118,2.277c-0.029,0.568,0.019,2.595-0.389,3.507c-0.408,0.909-1.76,3.215-2.046,3.82
		c-0.289,0.605-0.83,1.144-0.702,1.619c0.131,0.472-0.137,1.648-0.312,2.054c-0.175,0.404-0.382,0.443-0.451,0.802
		c-0.071,0.358,0.294,0.226,0.386,0.439c0.091,0.211-0.054,1.032-0.054,1.032s0.506,0.794,0.549,1.279
		c0.043,0.487,0.529,1.694,0.518,1.901c-0.012,0.206,0.189,0.287,0.378,0.646c0.186,0.359,0.886,2.688,0.839,3.585
		c-0.049,0.896,0.251,6.355,0.251,6.355s0.357,0.697,0.201,0.741c-0.529,0.14-0.162,0.473-0.031,0.619
		c0.129,0.148,0.382-0.113,0.58,0.04c0.197,0.151,0.528,0.417,0.605,1.532c0.081,1.116,0.318,1.166,0.28,1.858
		c-0.035,0.692,0.39,1.102,0.429,1.659c0.04,0.559-1.652,1.412-2.555,1.625c-0.9,0.213-1.495,0.413-3.006,0.516
		c-1.509,0.1-2.744,0.877-3.707,1.016c-0.962,0.139-2.148-0.177-3.063-0.667c-0.892-0.477-1.475-1.07-1.412-2.239
		c0.062-1.168,0.339-0.994,0.931-1.523c0.587-0.527,2.076-0.683,2.386-0.766c0.311-0.081,0.82-0.702,0.943-1.109
		c0.125-0.404,0.53-0.707,1.105-0.927c0.574-0.22,0.665-0.627,0.304-0.6c-0.358,0.026-2.028-0.295-2.842-0.401
		c-0.811-0.105-0.649-0.251-1.412-0.304c-0.761-0.053-0.669,0.109-1.228,0.123c-0.563,0.015-2.08-0.141-3.032-0.413
		c-0.951-0.271-1.632-0.835-2.172-1.179c-0.539-0.349-0.418-0.857-0.316-1.674c0.059-0.477,0.801-0.788,1.371-1.009
		c0.569-0.222,1.958-0.524,2.166-0.615c0.209-0.089,0.454-0.245,0.46-0.349c0.006-0.103,1.291-0.379,1.441-0.318
		c0.148,0.062,0.411-0.075,0.833-0.358c0.422-0.282,0.284-0.226,0.589-0.203c0.305,0.02,0.23-0.503,0.438-0.593
		c0.209-0.088,0.363-0.132,0.226-0.398c-0.14-0.27-0.216-0.739-0.14-1.252c0.078-0.511,0.753-0.727,1.071-0.965
		s-0.531-0.553-0.577-0.658c-0.044-0.106,0.438-0.592,0.451-0.799c0.011-0.206-0.287-0.38-0.376-0.646
		c-0.09-0.264,0.033-0.619,0.041-0.823c0.011-0.208-0.095-0.438-0.319-1.022c-0.227-0.58-0.776-5.303-0.747-5.87
		c0.031-0.567-0.61-0.967-0.746-1.284s-0.671-2.728-0.648-3.139c0.021-0.412-0.141-0.541-0.817-1.251
		c-0.675-0.71-1.379-4.052-1.438-4.829c-0.062-0.775,0.031-2.867-0.118-2.928c-0.149-0.06-0.414,0.184-0.618,0.174
		c-0.202-0.014-0.806-0.097-1.011-0.057c-0.206,0.04-0.889,1.171-1.16,1.516c-0.272,0.346-0.688,0.254-1.397,0.265
		c-0.709,0.014-0.865-0.235-1.062-0.299c-0.199-0.062-0.495-0.85-0.892-0.974c-0.397-0.127-0.534-0.733-0.721-0.999
		c-0.188-0.269-0.27-0.633-0.159-0.832c0.11-0.198,0.409-1.058,0.585-1.511c0.176-0.452,0.21-0.467,0.769-0.542
		c0.56-0.071,0.898-0.088,0.867-0.502c-0.026-0.412,1.047-0.972,1.422-1.364s2.399-2.294,2.574-2.748
		c0.177-0.455,0.378-0.443,0.447-0.802c0.069-0.356,0.323-6.163,0.432-8.215c0.106-2.054,0.831-4.757,1.062-5.441
		c0.318-0.947,1.036-2.013,1.31-2.413c0.275-0.399,0.792-1.218,0.957-1.468c0.053-0.079,0.438-0.563,0.474-1.25"/>
	<ellipse fill="#FFFFFF" cx="57.451" cy="47.676" rx="2.461" ry="2.453"/>
	<circle fill="#FFFFFF" cx="56.032" cy="79.699" r="1.231"/>
	<circle fill="#FFFFFF" cx="54.188" cy="8.206" r="0.615"/>
</g>
</svg>
