<?xml version="1.0" encoding="utf-8"?>
<!-- Generator: Adobe Illustrator 16.0.0, SVG Export Plug-In . SVG Version: 6.00 Build 0)  -->
<!DOCTYPE svg PUBLIC "-//W3C//DTD SVG 1.1//EN" "http://www.w3.org/Graphics/SVG/1.1/DTD/svg11.dtd">
<svg version="1.1" id="Livello_1" xmlns="http://www.w3.org/2000/svg" xmlns:xlink="http://www.w3.org/1999/xlink" x="0px" y="0px"
	 width="100px" height="100px" viewBox="0 0 100 100" enable-background="new 0 0 100 100" xml:space="preserve">
<g id="Layer_1_1_">
	<path d="M11.708,22.057c0.378,0.174,0.825,0.014,1.001-0.36c0.163-0.373,0-0.827-0.365-1c-0.378-0.174-0.825-0.014-1.001,0.359
		C11.167,21.431,11.329,21.885,11.708,22.057z"/>
	<path d="M28.537,72.273c0.524,0.248,1.153,0.02,1.401-0.517c0.248-0.532,0.009-1.172-0.515-1.42s-1.153-0.019-1.401,0.517
		C27.775,71.387,28.013,72.016,28.537,72.273z"/>
	<path d="M25.087,83.73c0.534,0.246,1.153,0.018,1.401-0.517c0.248-0.534,0.019-1.172-0.515-1.42
		c-0.524-0.248-1.153-0.021-1.401,0.515C24.334,82.844,24.563,83.471,25.087,83.73z"/>
	<path d="M22.475,88.857c0.658,0.305,1.43,0.02,1.744-0.648c0.305-0.666,0.019-1.457-0.639-1.771
		c-0.657-0.305-1.439-0.02-1.744,0.648C21.532,87.752,21.818,88.543,22.475,88.857z"/>
	<path d="M71.074,87.646c0.791,0.371,1.734,0.028,2.096-0.763c0.373-0.793,0.029-1.745-0.762-2.116s-1.734-0.027-2.098,0.772
		C69.939,86.332,70.283,87.275,71.074,87.646z"/>
	<path d="M75.906,89.971c0.523,0.258,1.152,0.021,1.391-0.504c0.248-0.535,0.02-1.172-0.504-1.42c-0.535-0.258-1.164-0.02-1.4,0.514
		C75.145,89.086,75.371,89.725,75.906,89.971z"/>
	<path d="M58.539,65.287c0.535,0.248,1.164,0.018,1.402-0.516c0.248-0.533,0.018-1.172-0.506-1.42
		c-0.533-0.248-1.162-0.021-1.4,0.516C57.787,64.4,58.016,65.039,58.539,65.287z"/>
	<path d="M30.443,25.924c0.524,0.248,1.153,0.019,1.401-0.515c0.248-0.534,0.009-1.163-0.515-1.411
		c-0.524-0.257-1.153-0.028-1.4,0.506C29.681,25.038,29.919,25.676,30.443,25.924z"/>
	<path d="M63.602,75.227c0.523,0.248,1.152,0.021,1.394-0.514c0.248-0.523,0.019-1.154-0.506-1.4
		c-0.533-0.248-1.152-0.026-1.4,0.506C62.838,74.35,63.068,74.98,63.602,75.227z"/>
	<path d="M66.498,25.875c0.791,0.372,1.725,0.038,2.098-0.762c0.361-0.791,0.021-1.734-0.771-2.106s-1.728-0.029-2.099,0.762
		C65.365,24.561,65.707,25.505,66.498,25.875z"/>
	<path d="M73.533,26.229c1.057,0.505,2.305,0.047,2.801-1.02c0.486-1.067,0.029-2.335-1.029-2.84
		c-1.057-0.496-2.307-0.039-2.801,1.029C72.018,24.466,72.475,25.734,73.533,26.229z"/>
	<path d="M25.897,80.279c1.439,0.688,3.165,0.049,3.841-1.43c0.677-1.47,0.047-3.222-1.392-3.898
		c-1.449-0.688-3.165-0.047-3.841,1.43C23.828,77.848,24.448,79.602,25.897,80.279z"/>
	<path d="M61.629,70.529c1.314,0.619,2.877,0.057,3.488-1.269c0.619-1.323,0.039-2.905-1.277-3.524
		c-1.314-0.619-2.877-0.047-3.498,1.274C59.732,68.336,60.303,69.91,61.629,70.529z"/>
	<path d="M21.922,93.756c0.792,0.373,1.735,0.029,2.097-0.762c0.372-0.801,0.029-1.744-0.762-2.117
		c-0.791-0.371-1.735-0.029-2.097,0.762C20.788,92.432,21.131,93.385,21.922,93.756z"/>
	<path d="M79.012,90.021c0.793,0.369,1.736,0.026,2.098-0.765c0.373-0.791,0.021-1.743-0.771-2.116
		c-0.791-0.371-1.726-0.027-2.098,0.764C77.879,88.705,78.221,89.648,79.012,90.021z"/>
	<path d="M63.52,23.98c-0.506-0.286-1.153-0.114-1.438,0.391c-0.295,0.505-0.125,1.154,0.381,1.449
		c0.494,0.286,1.146,0.114,1.438-0.391C64.186,24.923,64.014,24.275,63.52,23.98z"/>
	<path d="M60.428,48.579c-0.248-0.143-0.572-0.057-0.725,0.2c-0.143,0.248-0.057,0.582,0.191,0.725
		c0.256,0.153,0.58,0.067,0.723-0.19C60.771,49.055,60.686,48.732,60.428,48.579z"/>
	<path d="M70.979,81.385c-0.504-0.295-1.151-0.125-1.438,0.391c-0.295,0.507-0.123,1.164,0.383,1.459
		c0.504,0.295,1.152,0.123,1.449-0.393C71.654,82.338,71.484,81.68,70.979,81.385z"/>
	<path d="M93.461,20.596c-0.627-0.372-1.428-0.152-1.801,0.496c-0.361,0.639-0.152,1.449,0.477,1.821
		c0.621,0.362,1.432,0.143,1.793-0.496C94.301,21.768,94.082,20.958,93.461,20.596z"/>
	<path d="M38.669,51.686c-0.505-0.295-1.153-0.125-1.449,0.392c-0.295,0.514-0.125,1.172,0.381,1.467
		c0.505,0.297,1.153,0.115,1.448-0.399C39.345,52.639,39.173,51.982,38.669,51.686z"/>
	<path d="M60.455,51.828c-0.504-0.295-1.152-0.113-1.438,0.391c-0.297,0.516-0.125,1.172,0.381,1.469
		c0.506,0.295,1.145,0.113,1.438-0.399S60.961,52.125,60.455,51.828z"/>
	<path d="M39.546,63.037c-0.506-0.295-1.153-0.113-1.449,0.391c-0.286,0.516-0.124,1.174,0.381,1.469s1.153,0.115,1.449-0.399
		C40.213,63.99,40.051,63.334,39.546,63.037z"/>
	<path d="M62.113,56.727c-1.258-0.731-2.869-0.295-3.592,0.974c-0.734,1.268-0.308,2.889,0.953,3.61
		c1.248,0.734,2.856,0.297,3.592-0.971C63.801,59.072,63.373,57.453,62.113,56.727z"/>
	<path d="M21.722,21.025c-0.505-0.286-1.153-0.115-1.448,0.4c-0.287,0.505-0.125,1.163,0.38,1.458
		c0.505,0.295,1.154,0.114,1.449-0.391C22.389,21.978,22.218,21.321,21.722,21.025z"/>
	<path d="M36.076,65.572c-1.505-0.877-3.44-0.354-4.317,1.164c-0.877,1.522-0.362,3.469,1.144,4.346
		c1.505,0.877,3.44,0.352,4.317-1.172C38.096,68.393,37.582,66.449,36.076,65.572z"/>
	<path d="M31.491,74.121c-0.505-0.295-1.153-0.123-1.448,0.391c-0.296,0.516-0.124,1.174,0.381,1.469
		c0.505,0.297,1.153,0.125,1.449-0.391C32.168,75.074,31.997,74.418,31.491,74.121z"/>
	<path d="M19.282,89.525c-0.505-0.295-1.153-0.125-1.449,0.391c-0.295,0.504-0.124,1.162,0.382,1.457
		c0.505,0.295,1.153,0.125,1.449-0.391C19.959,90.477,19.788,89.82,19.282,89.525z"/>
	<path d="M40.031,47.588c-0.257-0.142-0.582-0.057-0.724,0.201c-0.153,0.257-0.067,0.581,0.19,0.734
		c0.248,0.143,0.572,0.057,0.724-0.2C40.365,48.064,40.279,47.74,40.031,47.588z"/>
	<path d="M66.885,71.527c-0.352-0.213-0.811-0.082-1.025,0.266c-0.202,0.359-0.082,0.826,0.283,1.025
		c0.353,0.213,0.812,0.092,1.012-0.269C67.371,72.193,67.25,71.74,66.885,71.527z"/>
	<path d="M63.592,62.838c-0.258-0.152-0.582-0.066-0.725,0.189c-0.152,0.258-0.066,0.582,0.191,0.733
		c0.246,0.144,0.569,0.06,0.723-0.2C63.926,63.305,63.84,62.98,63.592,62.838z"/>
	<path d="M16.871,21.578c-0.753-0.439-1.715-0.171-2.154,0.582c-0.438,0.762-0.181,1.734,0.572,2.173
		c0.753,0.438,1.716,0.18,2.154-0.582C17.881,22.989,17.624,22.016,16.871,21.578z"/>
	<path d="M71.061,23.358c-0.352-0.213-0.811-0.094-1.026,0.266c-0.203,0.359-0.08,0.826,0.271,1.025
		c0.364,0.213,0.823,0.08,1.024-0.267C71.545,24.024,71.422,23.558,71.061,23.358z"/>
	<path d="M80.59,21.452c-0.352-0.213-0.809-0.093-1.025,0.266c-0.201,0.359-0.08,0.826,0.271,1.025
		c0.365,0.213,0.824,0.08,1.024-0.266C81.076,22.117,80.955,21.652,80.59,21.452z"/>
	<path d="M6.101,20.358c-0.505-0.286-1.144-0.114-1.439,0.401c-0.296,0.505-0.124,1.153,0.381,1.439
		c0.505,0.295,1.144,0.114,1.439-0.391C6.778,21.302,6.606,20.654,6.101,20.358z"/>
	<path d="M79.441,23.75c-0.496-0.286-1.146-0.114-1.439,0.391c-0.285,0.515-0.123,1.163,0.381,1.449
		c0.506,0.295,1.154,0.114,1.439-0.391C80.119,24.695,79.947,24.046,79.441,23.75z"/>
	<path d="M83.93,22.998c-0.494-0.286-1.143-0.114-1.438,0.391c-0.287,0.515-0.115,1.163,0.381,1.449
		c0.504,0.295,1.152,0.114,1.438-0.391C84.609,23.942,84.438,23.292,83.93,22.998z"/>
	<path d="M68.043,76.924c-1.258-0.732-2.869-0.295-3.604,0.973c-0.726,1.269-0.306,2.89,0.953,3.611
		c1.258,0.734,2.869,0.295,3.604-0.971C69.721,79.268,69.301,77.648,68.043,76.924z"/>
	<path d="M74.562,89.887c-1.013-0.592-2.308-0.238-2.896,0.781c-0.582,1.029-0.238,2.334,0.771,2.926
		c1.01,0.59,2.307,0.238,2.887-0.783C75.916,91.783,75.572,90.467,74.562,89.887z"/>
	<path d="M89.316,21.311c-1.021-0.59-2.316-0.238-2.898,0.781c-0.59,1.03-0.248,2.335,0.764,2.927
		c1.012,0.6,2.307,0.248,2.896-0.772C90.67,23.217,90.326,21.902,89.316,21.311z"/>
	<path d="M37.963,57.119c-1.01-0.592-2.297-0.238-2.888,0.791c-0.591,1.029-0.248,2.334,0.762,2.926
		c1.01,0.59,2.307,0.238,2.888-0.791C39.317,59.016,38.973,57.709,37.963,57.119z"/>
	<path d="M26.955,22.245c-1-0.591-2.287-0.238-2.878,0.782c-0.581,1.029-0.238,2.335,0.762,2.926
		c1.011,0.582,2.297,0.229,2.878-0.791C28.299,24.142,27.965,22.836,26.955,22.245z"/>
	<path d="M10.266,21.873c-1.011-0.591-2.307-0.238-2.897,0.792c-0.591,1.02-0.248,2.325,0.762,2.916
		c1.01,0.6,2.307,0.248,2.897-0.781C11.61,23.78,11.276,22.464,10.266,21.873z"/>
	<path d="M42.137,41.631c0.172-0.753,0.563-1.535,0.877-2.554c0.61-2.011-0.172-6.033-0.467-8.416
		c-0.295-2.459,0.076-3.088-1.153-4.642c-1.191-1.497-4.089-2.545-5.471-3.298c-0.048-0.028-4.403-2.449-6.252-3.374
		c-1.849-0.924-4.604-1.22-5.833-1.687c-1.239-0.458-6.157-3.622-8.32-4.642c-2.488-1.153-3.412-0.925-4.156-1.278
		c-0.791-0.362-0.619-0.886-2.316-1.505C7.349,9.616,6.949,8.044,6.625,7.157c-0.353-0.925-1.563-3.012-0.057-2.84
		c2.164,0.247,4.794,0.657,5.251,1.277c0.467,0.62,1.392,2.936,2.773,3.717c1.382,0.771,7.549,2.163,9.245,2.783
		c1.687,0.62,3.079,2.478,4.623,2.783c1.535,0.315,2.459,0.468,3.689,0.935c1.239,0.457,1.077,0.457,2.773,0.924
		c1.696,0.467,4.013,0.62,5.547,0.925c1.544,0.314,2.774,1.401,3.699,0.934c0.924-0.467,3.059-1.887,3.002-3.307
		c-0.057-1.392,0.057-2.325-1.325-3.717c-1.392-1.392-1.22-4.89-0.753-5.976c0.457-1.086,1.678-3.25,4.68-3.25
		c2.544,0,4.212,1.802,4.68,3.66c0.459,1.849,0.059,5.137-0.695,5.976c-0.655,0.725-1.039,1.974-1.268,2.897
		c-0.238,0.935,0.114,1.916,0.571,2.85c0.467,0.924,1.277,0.867,2.201,0.867c0.926,0,3.326-0.934,4.557-1.392
		c1.744-0.658,4.451,0,5.604-0.467c1.154-0.467,5.548-2.326,6.474-2.783c0.926-0.467,1.694-1.239,3.696-1.859
		c2.003-0.62,7.103-2.229,8.322-2.964c2.021-1.21,3.631-4.003,4.735-4.527c1.449-0.687,4.213-1.392,4.853-0.868
		c0.942,0.772-0.828,2.269-0.979,2.727c-0.162,0.467,0.268,1.648-0.354,2.268c-0.608,0.62-1.248,1.258-2.135,1.677
		c-1.209,0.582-3.66,0.448-5.193,1.687c-1.545,1.239-5.7,3.87-7.396,4.642s-5.396,1.543-6.473,1.858
		c-1.076,0.305-2.384,1.115-3.498,1.888c0,0-4.402,2.173-5.347,2.554c-1.086,0.438-2.078,0.982-3.049,1.592
		c-1.24,0.772-1.041,0.467-1.041,2.326c0,1.848-1.277,6.919-1.277,8.473c0,1.544,0.115,3.822,0.354,6.376
		c0.115,1.316,0.639,2.897,0.725,4.042c0.23,3.06-0.236,12.819-1.039,15.411c-0.143,0.859-0.771,3.842-1.076,6.777
		c-0.305,2.943-0.533,4.412-0.695,4.879c-0.151,0.467-0.688,1.707-0.688,2.314c0,0.621-0.771,14.401,0,15.793
		c0.764,1.393,3.232,3.09,4.613,3.709c1.393,0.619,3.242,0.313,3.699,0.934c0.467,0.621-2.736,2.164-3.812,1.857
		c-1.078-0.312-1.85-0.468-3.928-0.468c-2.201,0-2.887,0.925-3.582,0.115c-1.115-1.315,0.543-4.91,0.238-6.147
		c-0.314-1.238-2.47-7.271-2.773-10.218c-0.314-2.942,1.076-6.348,0.924-8.356c-0.152-2.012,0.609-12.838,0-13
		c-0.62-0.152-1.393,8.356-1.85,10.217c-0.466,1.857-2,2.783-1.848,4.641c0.153,1.859,0.458,13.621,0.924,14.859
		c0.458,1.24,1.536,3.557,2.774,5.566c1.229,2.012,1.535,2.479,0.925,2.791c-0.621,0.307-1.393,0-2.774,0
		c-1.391,0-1.924,0.19-2.772,0c-1.268-0.295-1.392-1.687-0.924-2.791c0.295-0.715,0.038-1.076,0-2.783
		c-0.057-2.896-2.907-8.549-3.06-11.027c-0.153-2.479-0.019-4.604,0.286-7.539c0.305-2.945,1.077-2.631,0.925-4.641
		c-0.153-2.021-0.21-3.062-0.734-7.701c-0.143-1.297-0.515-4.318-0.658-6.082C40.546,50.4,40.832,47.369,42.137,41.631z"/>
	<path d="M32.95,22.264c-0.248-0.152-0.572-0.057-0.725,0.191c-0.143,0.257-0.057,0.59,0.191,0.734
		c0.257,0.153,0.581,0.066,0.725-0.191C33.293,22.74,33.207,22.407,32.95,22.264z"/>
	<path d="M34.939,23.968c-0.363-0.213-0.821-0.093-1.036,0.267c-0.203,0.36-0.081,0.826,0.283,1.025
		c0.35,0.212,0.807,0.08,1.022-0.267C35.41,24.634,35.289,24.167,34.939,23.968z"/>
</g>
</svg>
