<?xml version="1.0" encoding="utf-8"?>
<!-- Generator: Adobe Illustrator 16.0.0, SVG Export Plug-In . SVG Version: 6.00 Build 0)  -->
<!DOCTYPE svg PUBLIC "-//W3C//DTD SVG 1.1//EN" "http://www.w3.org/Graphics/SVG/1.1/DTD/svg11.dtd">
<svg version="1.1" id="Livello_1" xmlns="http://www.w3.org/2000/svg" xmlns:xlink="http://www.w3.org/1999/xlink" x="0px" y="0px"
	 width="100px" height="100px" viewBox="0 0 100 100" enable-background="new 0 0 100 100" xml:space="preserve">
<g id="Layer_1_1_">
	<path fill="#FFFFFF" d="M28.837,80.42c0-2.549-2.047-4.605-4.585-4.605c-2.529,0-4.586,2.057-4.586,4.605
		c0,2.539,2.057,4.596,4.586,4.596C26.79,85.016,28.837,82.959,28.837,80.42z"/>
	<path fill="#FFFFFF" d="M61.324,79.859c0.598,0.039,1.101-0.416,1.129-1.016c0.028-0.598-0.436-1.107-1.023-1.146
		c-0.6-0.039-1.102,0.424-1.13,1.021C60.271,79.311,60.734,79.83,61.324,79.859z"/>
	<path fill="#FFFFFF" d="M59.287,62.482c0.598,0.039,1.1-0.416,1.129-1.016c0.02-0.598-0.435-1.107-1.023-1.146
		c-0.599-0.039-1.102,0.424-1.129,1.014C58.234,61.932,58.697,62.453,59.287,62.482z"/>
	<path fill="#FFFFFF" d="M35.846,77.822c0.599,0.029,1.101-0.424,1.12-1.023c0.029-0.598-0.425-1.109-1.014-1.148
		c-0.598-0.029-1.1,0.426-1.129,1.023C34.792,77.273,35.257,77.783,35.846,77.822z"/>
	<path fill="#FFFFFF" d="M45.605,62.482c0.599,0.039,1.101-0.416,1.13-1.016c0.019-0.598-0.435-1.107-1.023-1.146
		c-0.599-0.039-1.101,0.424-1.13,1.014C44.554,61.932,45.018,62.453,45.605,62.482z"/>
	<path fill="#FFFFFF" d="M12.994,43.559c0.589,0.029,1.091-0.424,1.11-1.023c0.029-0.599-0.424-1.111-1.013-1.14
		c-0.588-0.038-1.091,0.416-1.11,1.014C11.951,43.009,12.405,43.521,12.994,43.559z"/>
	<path fill="#FFFFFF" d="M6.236,57.074c0.589,0.029,1.091-0.424,1.11-1.021c0.029-0.6-0.425-1.111-1.014-1.141
		c-0.589-0.039-1.091,0.416-1.11,1.014C5.193,56.525,5.646,57.037,6.236,57.074z"/>
	<path fill="#FFFFFF" d="M42.681,59.277c0.579,0.039,1.071-0.414,1.091-1.004c0.029-0.59-0.425-1.102-1.004-1.141
		c-0.579-0.027-1.071,0.416-1.1,1.004C41.649,58.736,42.102,59.238,42.681,59.277z"/>
	<path fill="#FFFFFF" d="M49.708,57.297c0.28,0.021,0.521-0.191,0.532-0.473c0.009-0.289-0.203-0.531-0.493-0.539
		c-0.28-0.021-0.512,0.191-0.522,0.473C49.207,57.037,49.43,57.287,49.708,57.297z"/>
	<path fill="#FFFFFF" d="M33.596,72.908c1.738,0.105,3.253-1.178,3.37-2.867c0.116-1.689-1.197-3.146-2.935-3.273
		c-1.738-0.115-3.254,1.158-3.379,2.857C30.527,71.326,31.839,72.793,33.596,72.908z"/>
	<path fill="#FFFFFF" d="M8.224,72.164c1.738,0.117,3.254-1.166,3.369-2.857c0.116-1.688-1.196-3.154-2.935-3.271
		c-1.738-0.115-3.253,1.16-3.379,2.848C5.155,70.582,6.468,72.061,8.224,72.164z"/>
	<path fill="#FFFFFF" d="M13.052,61.545c1.737,0.117,3.253-1.168,3.369-2.857c0.116-1.689-1.197-3.156-2.935-3.271
		c-1.738-0.117-3.253,1.158-3.379,2.848C9.981,59.961,11.295,61.439,13.052,61.545z"/>
	<path fill="#FFFFFF" d="M23.672,34.513c1.737,0.116,3.253-1.168,3.369-2.857c0.116-1.689-1.197-3.156-2.936-3.272
		c-1.737-0.116-3.253,1.158-3.379,2.848C20.602,32.93,21.915,34.407,23.672,34.513z"/>
	<path fill="#FFFFFF" d="M20.776,55.752c1.737,0.117,3.253-1.168,3.369-2.857c0.116-1.688-1.197-3.156-2.935-3.271
		c-1.738-0.116-3.253,1.158-3.379,2.848C17.705,54.17,19.018,55.646,20.776,55.752z"/>
	<path fill="#FFFFFF" d="M51.938,77.957c1.748,0.115,3.255-1.168,3.37-2.857c0.116-1.689-1.188-3.156-2.925-3.271
		c-1.747-0.117-3.263,1.158-3.388,2.848C48.87,76.375,50.192,77.852,51.938,77.957z"/>
	<path fill="#FFFFFF" d="M74.357,75.91c1.747,0.117,3.252-1.168,3.368-2.857c0.125-1.689-1.188-3.156-2.925-3.271
		c-1.738-0.117-3.264,1.158-3.389,2.855C71.287,74.338,72.609,75.805,74.357,75.91z"/>
	<path fill="#FFFFFF" d="M45.461,84.889c1.97,0.137,3.65-1.359,3.756-3.33s-1.39-3.668-3.36-3.805
		c-1.959-0.135-3.649,1.354-3.765,3.322C41.976,83.055,43.492,84.764,45.461,84.889z"/>
	<path fill="#FFFFFF" d="M51.766,66.883c0.6,0.029,1.109-0.434,1.139-1.031c0.029-0.6-0.435-1.121-1.033-1.158
		c-0.599-0.029-1.109,0.434-1.14,1.033C50.704,66.334,51.166,66.846,51.766,66.883z"/>
	<path fill="#FFFFFF" d="M19.935,27.089c0.84,0.048,1.564-0.598,1.603-1.438c0.048-0.849-0.599-1.574-1.439-1.622
		c-0.85-0.059-1.564,0.588-1.612,1.429C18.438,26.307,19.096,27.031,19.935,27.089z"/>
	<path fill="#FFFFFF" d="M18.97,46.398c0.84,0.047,1.564-0.6,1.603-1.438c0.048-0.85-0.599-1.574-1.439-1.622
		c-0.85-0.059-1.564,0.588-1.612,1.428C17.473,45.615,18.13,46.339,18.97,46.398z"/>
	<path fill="#FFFFFF" d="M20.901,41.57c0.84,0.049,1.564-0.598,1.603-1.438c0.048-0.849-0.599-1.574-1.439-1.622
		c-0.849-0.059-1.562,0.588-1.612,1.429C19.405,40.788,20.061,41.513,20.901,41.57z"/>
	<path fill="#FFFFFF" d="M32.158,63.564c0.598,0.037,1.11-0.426,1.139-1.023c0.039-0.6-0.425-1.121-1.023-1.16
		c-0.598-0.027-1.11,0.426-1.149,1.025C31.096,63.012,31.559,63.525,32.158,63.564z"/>
	<path fill="#FFFFFF" d="M23.633,72.744c1.129,0.068,2.086-0.791,2.144-1.92c0.058-1.121-0.801-2.096-1.922-2.164
		c-1.129-0.066-2.085,0.793-2.143,1.922C21.644,71.711,22.513,72.676,23.633,72.744z"/>
	<path fill="#FFFFFF" d="M43.125,69.742c1.187,0.078,2.191-0.82,2.25-2.008c0.058-1.188-0.85-2.211-2.038-2.289
		c-1.178-0.078-2.192,0.811-2.25,2C41.031,68.641,41.938,69.664,43.125,69.742z"/>
	<path fill="#FFFFFF" d="M16.093,35.952c1.188,0.077,2.191-0.82,2.25-2.008c0.058-1.187-0.85-2.211-2.037-2.288
		c-1.178-0.077-2.191,0.812-2.25,1.999C13.998,34.852,14.906,35.874,16.093,35.952z"/>
	<path fill="#FFFFFF" d="M61.438,69.221c1.168,0.059,2.153-0.859,2.202-2.057c0.048-1.197-0.859-2.221-2.027-2.279
		c-1.178-0.066-2.162,0.852-2.221,2.047C59.345,68.129,60.262,69.152,61.438,69.221z"/>
	<path fill="#FFFFFF" d="M20.891,63.428c1.168,0.059,2.153-0.859,2.201-2.057c0.049-1.197-0.859-2.221-2.027-2.279
		c-1.177-0.066-2.162,0.852-2.22,2.047C18.796,62.338,19.714,63.359,20.891,63.428z"/>
	<path fill="#FFFFFF" d="M12.637,50.048c1.246,0.067,2.317-0.851,2.395-2.065c0.078-1.217-0.859-2.27-2.095-2.347
		c-1.235-0.077-2.307,0.841-2.394,2.065C10.465,48.917,11.401,49.97,12.637,50.048z"/>
	<path fill="#FFFFFF" d="M56.236,57.365l6.584,0.965v-5.039c0,0,0.473-1.643,1.506-1.516c1.158,0.153,1.535,1.188,1.593,1.901
		c0.087,0.907,0.028,4.063,0.01,5.106l6.776,0.984c0.011-1.391,0.029-6.845,0.098-7.357c0.096-0.742,0.743-1.979,1.844-1.844
		c1.622,0.185,2.124,1.207,2.124,2.724v7.075l4.074,0.59c0-0.84,0-6.652,0.067-6.826c0.309-0.955,0.752-2.52,2.259-2.402
		c1.68,0.135,2.646,1.883,2.713,2.914c0.058,0.947,0.01,6.111,0,7.059l4.924,0.715l5.213-2.568l-0.058-39.95l-3.08-1.023l0.02-4.075
		l1.158-1.361l-0.704-0.976L76.553,7.21l-16.059,4.276l-0.965,0.975l1.157,1.749v6.217l-0.579,0.782l-0.193-0.782l-0.771,0.203
		v0.965l-2.134,1.168l-2.134-1.168l-17.833-2.327l-4.832,1.05l-4.465-0.062v1.339l-4.268,0.976l0.194,33.24l6.4,1.949l2.182-0.355
		v-4.943c0-0.646,0.675-1.893,1.689-1.939c1.033-0.059,1.729,0.56,1.795,1.603c0.059,0.917,0.01,4.015,0,4.71l16.229-2.625v-4.035
		c0,0,0.299-1.217,1.023-1.342c0.782-0.145,1.11,0.965,1.11,0.965v4.064l2.327-0.377L56.236,57.365z M32.785,48.04v-5.059
		l2.906-0.125v4.991L32.785,48.04z M42.276,47.449v-4.664l2.52-0.193v4.663L42.276,47.449z M49.708,42.334l1.922-0.078l0.009,4.229
		l-1.931,0.098V42.334z M49.642,36.377h1.94v2.916h-1.94V36.377z M38.018,36.184h2.327v3.07l-2.269,0.097L38.018,36.184z
		 M32.979,36.184h2.712v3.302h-2.712V36.184z M46.542,30.546h1.545v2.326h-1.545V30.546z M33.171,29.956h2.134v2.723h-2.134V29.956z
		 M37.236,22.571l1.361,0.097v2.625h-1.361V22.571z M49.449,23.739l1.158,0.193v2.336h-1.158V23.739z M66.498,15.958
		c0.927,0.097,1.41,1.361,1.41,1.651l-0.049,3.215l-0.387,0.193l-0.193-0.975l-0.386-0.193l-0.396,0.193l-0.194,0.782l-0.386-0.396
		l-0.385-0.193h-0.58v-2.326C64.953,17.908,65.494,15.851,66.498,15.958z M73.672,15.379c1.023,0,1.554,1.119,1.554,1.746v2.53
		l-2.713,0.579l-0.386,0.193v-3.302C72.127,17.125,72.658,15.379,73.672,15.379z M81.23,14.798c1.295,0,1.682,1.613,1.748,2.134
		c0.057,0.522-0.193,0.58-0.193,0.58l-3.301,0.589v-0.976C79.484,17.125,80.072,14.798,81.23,14.798z M89.949,15.185
		c0.713,0.058,1.033,1.419,0.975,1.94c-0.067,0.522,0,1.951,0,1.951h-0.59l-1.35-1.564c0,0,0.067-0.705,0.192-0.965
		C89.302,16.286,89.699,15.156,89.949,15.185z M81.144,31.511h1.748v2.143h-1.748V31.511z M75.033,31.511h1.737v2.143h-1.737V31.511
		z M69.936,31.511h1.747v2.143h-1.747V31.511z M75.4,37.149h1.939v5.059L75.4,42.111V37.149z M81.521,37.149h1.941v5.059
		l-1.941-0.097V37.149z"/>
</g>
</svg>
