<?xml version="1.0" encoding="utf-8"?>
<!-- Generator: Adobe Illustrator 16.0.0, SVG Export Plug-In . SVG Version: 6.00 Build 0)  -->
<!DOCTYPE svg PUBLIC "-//W3C//DTD SVG 1.1//EN" "http://www.w3.org/Graphics/SVG/1.1/DTD/svg11.dtd">
<svg version="1.1" id="Layer_1" xmlns="http://www.w3.org/2000/svg" xmlns:xlink="http://www.w3.org/1999/xlink" x="0px" y="0px"
	 width="100px" height="100px" viewBox="0 0 100 100" enable-background="new 0 0 100 100" xml:space="preserve">
<g id="Captions">
</g>
<g id="Layer_1_1_">
	<path fill="#FFFFFF" d="M48.241,28.304c0,2.528,2.055,4.573,4.587,4.573c2.531,0,4.582-2.045,4.582-4.573
		c0-2.528-2.051-4.573-4.582-4.573C50.296,23.731,48.241,25.776,48.241,28.304z M58.004,55.384c0,2.523,2.055,4.573,4.587,4.573
		s4.582-2.05,4.582-4.573c0-2.526-2.05-4.577-4.582-4.577S58.004,52.857,58.004,55.384z M40.456,3.207l0.386-0.015
		c-0.145-0.004-0.299,0-0.462,0v0.015H40.456z M40.841,34.695l0.004-0.135l-0.004-0.13V34.695z M40.456,3.207h-0.077
		c-1.669,0.092-4.014,0.695-4.999,2.287c-1.688,2.739-2.7,5.031-0.428,8.591c0.531,0.83,1.717,1.099,1.298,2.609
		c-0.42,1.51-1.438,2.479-2.914,4.216c-2.205,2.585-1.157,5.335-2.518,6.193c-1.365,0.864-2.417,4.53-5.04,5.176
		c-2.625,0.646-5.456,3.02-6.715,5.175c-1.264,2.152-2.942,3.015-1.683,5.171c1.259,2.157,2.055,4.714,5.422,6.314
		c3.058,1.453,4.949,1.886,6.84,2.616c1.616,0.617,3.381-3.58,3.638-1.453c0.121,0.979-0.821,4.171-0.434,6.681
		c0.873,5.662-0.493,6.367-0.145,7.988c-0.266,0.607-0.878,1.953-1.023,2.758c-0.289,1.666-3.198,2.615-5.899,6.137
		c-1.679,1.833-3.334,3.223-5.161,5.045c-0.874,0.873-1.481,2.697-1.453,4.501c0.02,1.429,2.026,1.128,0.434,2.759
		c-1.254,1.288-3.212,1.779-3.845,3.324c-0.68,1.674,0.681,3.141,3.411,4.747c1.838,1.075,4.047,3.806,7.612,3.556
		c2.311-0.16,2.991,0,2.358-1.511c-0.627-1.509-2.252-0.053-3.83-1.886c-1.572-1.833-3.328-3.203-2.676-4.742
		c1.481-3.486,2.648-2.469,3.666-3.191c1.341-0.957,8.664-11.014,9.609-11.767c0.941-0.758,1.843-3.524,2.576-4.713
		c0.149-0.241,0.28-0.497,0.386-0.767c0.304,0.246,0.69,0.395,1.109,0.395c0.965,0,1.747-0.782,1.747-1.741
		c0-0.965-0.782-1.745-1.747-1.745c-0.202,0-0.395,0.032-0.573,0.096c-0.705-0.416-1.172-1.183-1.172-2.055
		c0-1.322,1.075-2.398,2.402-2.398c0.073,0,0.145,0.006,0.212,0.01v-0.077c0.212,0.048,0.434,0.065,0.662,0.065
		c1.809,0,3.274-1.461,3.274-3.264c0-1.805-1.466-3.271-3.274-3.271c-0.116,0-0.232,0.009-0.348,0.019
		c0.082-0.13,0.13-0.285,0.13-0.453c0-0.322-0.178-0.607-0.444-0.756v-0.301c1.273-0.443,2.189-1.658,2.189-3.083
		c0-1.423-0.916-2.638-2.189-3.087v-0.236c-0.14,0.039-0.279,0.059-0.429,0.059c-0.965,0-1.746-0.782-1.746-1.746
		c0-0.96,0.781-1.742,1.746-1.742c0.15,0,0.294,0.02,0.429,0.053v-0.299c0.7,0.434,1.524,0.68,2.407,0.68
		c2.533,0,4.588-2.045,4.588-4.573c0-2.527-2.055-4.573-4.588-4.573c-0.882,0-1.707,0.246-2.407,0.68v-0.984v-0.265l0.004-0.738
		c0.724,0,1.313-0.588,1.313-1.308c0-0.723-0.589-1.307-1.313-1.307l-0.004-0.261c-0.328,0.164-0.694,0.261-1.085,0.261
		c-1.326,0-2.402-1.076-2.402-2.397c0-1.321,1.076-2.398,2.402-2.398c0.106,0,0.212-0.072,0.309-0.173
		c0.429,0.396,0.999,0.637,1.631,0.637c1.326,0,2.402-1.071,2.402-2.397c0-1.323-1.076-2.393-2.402-2.393
		c-0.318,0-0.623,0.062-0.902,0.174l0.005-2.142c0.16,0.222,0.419,0.367,0.714,0.367c0.482,0,0.873-0.391,0.873-0.874
		c0-0.478-0.391-0.868-0.873-0.868c-0.295,0-0.555,0.141-0.714,0.362l0.009-2.976l0.633,0.048c0.535,0.382,1.191,0.604,1.9,0.604
		c1.336,0,2.484-0.796,2.996-1.939c0.034-0.077,0.067-0.155,0.092-0.236c0.126-0.342,0.188-0.709,0.188-1.09
		c0-0.121-0.004-0.241-0.02-0.357c0.063-0.154,0.155-0.328,0.275-0.516c0.309-0.487,0.708-0.729,0.564-1.292
		c-0.207-0.826-0.593-1.593-0.844-2.673C46.31,7.342,46.86,6.435,45.09,4.583c-0.662-0.69-2.132-0.984-2.542-1.12
		c-0.082-0.029-0.173-0.053-0.275-0.082c-0.304-0.12-0.636-0.188-0.984-0.188c-0.091,0-0.178,0.006-0.27,0.015
		c-0.053-0.004-0.116-0.009-0.174-0.015L40.456,3.207z M30.475,29.312c0.656-0.024,1.12,2.142,0.937,2.879
		c-0.102,0.43-0.256,0.155-1.829,0.478c-2.726,0.56-1.283-0.858-1.283-0.858L30.475,29.312z M46.335,14.711
		c0.048-0.082,0.078-0.159,0.092-0.236C46.403,14.556,46.37,14.634,46.335,14.711z M47.836,54.82c0,1.326,1.076,2.397,2.402,2.397
		c1.327,0,2.397-1.071,2.397-2.397c0-1.321-1.07-2.397-2.397-2.397C48.912,52.423,47.836,53.499,47.836,54.82z M46.297,20.346
		c0,1.326,1.075,2.396,2.402,2.396c1.327,0,2.402-1.07,2.402-2.396c0-1.322-1.076-2.393-2.402-2.393
		C47.373,17.953,46.297,19.023,46.297,20.346z M67.174,31.666c0,1.322,1.076,2.392,2.402,2.392s2.402-1.07,2.402-2.392
		c0-1.326-1.076-2.397-2.402-2.397S67.174,30.34,67.174,31.666z M57.006,44.362c0,1.327,1.075,2.397,2.402,2.397
		c1.326,0,2.396-1.07,2.396-2.397c0-1.322-1.07-2.393-2.396-2.393C58.081,41.97,57.006,43.041,57.006,44.362z M73.536,24.272
		c0,1.326,1.075,2.396,2.401,2.396c1.328,0,2.402-1.07,2.402-2.396c0-1.323-1.076-2.394-2.402-2.394
		C74.611,21.879,73.536,22.95,73.536,24.272z M46.523,35c0,0.478,0.392,0.868,0.874,0.868S48.27,35.478,48.27,35
		c0-0.482-0.391-0.873-0.873-0.873S46.523,34.518,46.523,35z M47.397,45.892c0,0.478,0.39,0.868,0.873,0.868
		c0.482,0,0.873-0.39,0.873-0.868c0-0.482-0.391-0.873-0.873-0.873C47.787,45.019,47.397,45.409,47.397,45.892z M55.693,7.986
		c0,0.479,0.392,0.869,0.873,0.869c0.482,0,0.875-0.39,0.875-0.869c0-0.481-0.393-0.873-0.875-0.873
		C56.085,7.113,55.693,7.505,55.693,7.986z M52.201,62.014c0,0.478,0.391,0.867,0.873,0.867s0.873-0.39,0.873-0.867
		c0-0.482-0.391-0.875-0.873-0.875S52.201,61.529,52.201,62.014z M58.751,64.188c0,0.482,0.392,0.873,0.874,0.873
		s0.873-0.391,0.873-0.873s-0.391-0.869-0.873-0.869S58.751,63.705,58.751,64.188z M40.412,72.466c0,0.482,0.391,0.872,0.873,0.872
		s0.874-0.39,0.874-0.872c0-0.478-0.391-0.868-0.874-0.868C40.802,71.598,40.412,71.988,40.412,72.466z M72.21,43.528
		c0,0.719,0.583,1.307,1.308,1.307c0.724,0,1.312-0.588,1.312-1.307c0-0.723-0.588-1.307-1.312-1.307
		C72.793,42.221,72.21,42.805,72.21,43.528z M49.582,74.646c0,0.481,0.391,0.873,0.873,0.873c0.482,0,0.873-0.392,0.873-0.873
		c0-0.482-0.391-0.873-0.873-0.873C49.973,73.771,49.582,74.164,49.582,74.646z M82.33,49.375c0,0.482,0.391,0.873,0.873,0.873
		s0.874-0.391,0.874-0.873c0-0.483-0.392-0.869-0.874-0.869S82.33,48.892,82.33,49.375z M54.82,81.616
		c0,0.481,0.391,0.873,0.873,0.873s0.873-0.392,0.873-0.873c0-0.482-0.39-0.873-0.873-0.873
		C55.211,80.743,54.82,81.134,54.82,81.616z M49.582,89.895c0,0.481,0.391,0.873,0.873,0.873c0.482,0,0.873-0.392,0.873-0.873
		c0-0.482-0.391-0.869-0.873-0.869C49.973,89.025,49.582,89.411,49.582,89.895z M60.498,94.249c0,0.481,0.391,0.874,0.873,0.874
		s0.873-0.391,0.873-0.874c0-0.478-0.391-0.868-0.873-0.868S60.498,93.771,60.498,94.249z M63.118,91.201
		c0,0.482,0.39,0.873,0.873,0.873c0.481,0,0.874-0.391,0.874-0.873s-0.393-0.869-0.874-0.869
		C63.508,90.332,63.118,90.719,63.118,91.201z M55.259,96.43c0,0.483,0.392,0.873,0.874,0.873s0.874-0.39,0.874-0.873
		c0-0.481-0.392-0.873-0.874-0.873S55.259,95.947,55.259,96.43z M75.346,56.344c0,0.482,0.391,0.874,0.873,0.874
		s0.873-0.391,0.873-0.874c0-0.478-0.391-0.867-0.873-0.867S75.346,55.867,75.346,56.344z M80.555,40.291
		c0,0.483,0.391,0.874,0.873,0.874s0.873-0.391,0.873-0.874c0-0.482-0.391-0.873-0.873-0.873S80.555,39.809,80.555,40.291z
		 M57.521,13.211c0,0.482,0.392,0.874,0.873,0.874s0.873-0.391,0.873-0.874c0-0.478-0.392-0.868-0.873-0.868
		S57.521,12.733,57.521,13.211z M49.143,12.776c0,0.724,0.588,1.308,1.312,1.308c0.725,0,1.307-0.584,1.307-1.308
		c0-0.723-0.582-1.307-1.307-1.307C49.731,11.469,49.143,12.053,49.143,12.776z M51.328,38.917c0,0.724,0.583,1.307,1.307,1.307
		c0.729,0,1.312-0.583,1.312-1.307c0-0.719-0.583-1.308-1.312-1.308C51.912,37.609,51.328,38.198,51.328,38.917z M57.671,21.431
		c0,0.723,0.584,1.307,1.308,1.307s1.312-0.584,1.312-1.307c0-0.724-0.589-1.308-1.312-1.308S57.671,20.707,57.671,21.431z
		 M44.213,31.203c0,0.719,0.583,1.308,1.308,1.308c0.723,0,1.311-0.589,1.311-1.308c0-0.724-0.588-1.308-1.311-1.308
		C44.796,29.896,44.213,30.479,44.213,31.203z M44.343,48.066c0,0.724,0.584,1.308,1.308,1.308s1.312-0.584,1.312-1.308
		c0-0.718-0.589-1.307-1.312-1.307C44.928,46.759,44.343,47.349,44.343,48.066z M44.343,65.061c0,0.719,0.584,1.309,1.308,1.309
		s1.312-0.59,1.312-1.309c0-0.723-0.589-1.307-1.312-1.307C44.928,63.754,44.343,64.338,44.343,65.061z M60.061,36.307
		c0,0.719,0.586,1.302,1.312,1.302c0.724,0,1.308-0.583,1.308-1.302c0-0.724-0.584-1.308-1.308-1.308
		C60.646,35,60.061,35.583,60.061,36.307z M61.323,26.592c0,0.723,0.583,1.307,1.307,1.307s1.312-0.583,1.312-1.307
		c0-0.719-0.588-1.308-1.312-1.308C61.906,25.285,61.323,25.874,61.323,26.592z M53.947,78.128c0,0.726,0.588,1.308,1.312,1.308
		c0.726,0,1.308-0.582,1.308-1.308c0-0.719-0.582-1.302-1.308-1.302C54.536,76.826,53.947,77.409,53.947,78.128z M83.372,31.338
		c0,0.724,0.589,1.307,1.312,1.307c0.725,0,1.309-0.583,1.309-1.307c0-0.719-0.583-1.303-1.309-1.303
		C83.96,30.036,83.372,30.62,83.372,31.338z M67.922,38.482c0,0.724,0.583,1.307,1.307,1.307c0.725,0,1.312-0.583,1.312-1.307
		s-0.588-1.307-1.312-1.307C68.505,37.175,67.922,37.758,67.922,38.482z M49.143,96.43c0,0.723,0.588,1.307,1.312,1.307
		c0.725,0,1.307-0.584,1.307-1.307c0-0.724-0.582-1.307-1.307-1.307C49.731,95.123,49.143,95.706,49.143,96.43z M49.582,82.923
		c0,0.724,0.584,1.308,1.307,1.308c0.725,0,1.312-0.584,1.312-1.308s-0.588-1.307-1.312-1.307
		C50.166,81.616,49.582,82.2,49.582,82.923z M44.777,77.26c0,0.719,0.589,1.309,1.312,1.309c0.723,0,1.307-0.59,1.307-1.309
		c0-0.723-0.584-1.307-1.307-1.307C45.366,75.953,44.777,76.537,44.777,77.26z M54.82,90.332c0,0.719,0.589,1.303,1.312,1.303
		c0.725,0,1.309-0.584,1.309-1.303c0-0.723-0.586-1.307-1.309-1.307S54.82,89.609,54.82,90.332z M49.143,68.544
		c0,0.724,0.588,1.308,1.312,1.308c0.725,0,1.307-0.584,1.307-1.308c0-0.719-0.582-1.308-1.307-1.308
		C49.731,67.236,49.143,67.825,49.143,68.544z M48.16,5.772c0,0.724,0.587,1.308,1.312,1.308c0.723,0,1.305-0.583,1.305-1.308
		c0-0.719-0.583-1.302-1.305-1.302C48.747,4.471,48.16,5.054,48.16,5.772z"/>
</g>
</svg>
