<?xml version="1.0" encoding="utf-8"?>
<!-- Generator: Adobe Illustrator 16.0.0, SVG Export Plug-In . SVG Version: 6.00 Build 0)  -->
<!DOCTYPE svg PUBLIC "-//W3C//DTD SVG 1.1//EN" "http://www.w3.org/Graphics/SVG/1.1/DTD/svg11.dtd">
<svg version="1.1" id="Your_Icon" xmlns="http://www.w3.org/2000/svg" xmlns:xlink="http://www.w3.org/1999/xlink" x="0px" y="0px"
	 width="100px" height="100px" viewBox="0 0 100 100" enable-background="new 0 0 100 100" xml:space="preserve">
<g id="Layer_1_1_">
	<path fill="#FFFFFF" d="M81.312,40.456c0-1.758-1.43-3.178-3.193-3.178c-1.756,0-3.184,1.42-3.184,3.178
		c0,1.756,1.426,3.178,3.184,3.178C79.883,43.633,81.312,42.212,81.312,40.456z"/>
	<path fill="#FFFFFF" d="M58.811,24.282c0-0.624-0.513-1.135-1.149-1.135c-0.632,0-1.142,0.51-1.142,1.135
		c0,0.629,0.513,1.134,1.142,1.134C58.298,25.416,58.811,24.911,58.811,24.282z"/>
	<path fill="#FFFFFF" d="M15.667,63.823c0-0.63-0.511-1.134-1.142-1.134c-0.637,0-1.148,0.504-1.148,1.134
		c0,0.622,0.511,1.134,1.148,1.134C15.156,64.957,15.667,64.445,15.667,63.823z"/>
	<path fill="#FFFFFF" d="M20.602,73.239c0-0.625-0.51-1.138-1.14-1.138c-0.631,0-1.149,0.513-1.149,1.138
		c0,0.63,0.519,1.134,1.149,1.134S20.602,73.869,20.602,73.239z"/>
	<path fill="#FFFFFF" d="M75.312,49.079c0-0.623-0.512-1.135-1.142-1.135c-0.631,0-1.142,0.512-1.142,1.135
		c0,0.631,0.511,1.135,1.142,1.135C74.801,50.214,75.312,49.711,75.312,49.079z"/>
	<path fill="#FFFFFF" d="M18.751,31.89c0-1.094-0.896-1.994-2-1.994s-2,0.9-2,1.994c0,1.109,0.896,2.006,2,2.006
		C17.855,33.898,18.751,32.999,18.751,31.89z"/>
	
		<line fill="none" stroke="#FFFFFF" stroke-linecap="round" stroke-linejoin="round" stroke-miterlimit="10" x1="39.839" y1="34.281" x2="29.766" y2="29.708"/>
	
		<line fill="none" stroke="#FFFFFF" stroke-linecap="round" stroke-linejoin="round" stroke-miterlimit="10" x1="24.831" y1="29.296" x2="17.424" y2="31.655"/>
	<path fill="#FFFFFF" d="M41.373,11.052c0-0.623-0.512-1.135-1.141-1.135c-0.63,0-1.149,0.512-1.149,1.135
		c0,0.629,0.519,1.135,1.149,1.135C40.861,12.187,41.373,11.682,41.373,11.052z"/>
	<path fill="#FFFFFF" d="M54.062,16.604c0-0.624-0.511-1.135-1.141-1.135s-1.141,0.511-1.141,1.135c0,0.63,0.511,1.135,1.141,1.135
		S54.062,17.234,54.062,16.604z"/>
	<path fill="#FFFFFF" d="M77.398,31.891c0-0.63-0.51-1.134-1.147-1.134c-0.632,0-1.142,0.504-1.142,1.134
		c0,0.623,0.511,1.134,1.142,1.134C76.889,33.025,77.398,32.515,77.398,31.891z"/>
	<path fill="#FFFFFF" d="M8.561,35.205c0-0.623-0.511-1.134-1.141-1.134s-1.147,0.511-1.147,1.134c0,0.63,0.518,1.134,1.147,1.134
		S8.561,35.834,8.561,35.205z"/>
	<path fill="#FFFFFF" d="M83.411,74.177c0-0.631-0.511-1.141-1.142-1.141s-1.141,0.51-1.141,1.141c0,0.624,0.512,1.134,1.141,1.134
		C82.9,75.311,83.411,74.799,83.411,74.177z"/>
	<path fill="#FFFFFF" d="M89.741,63.038c0-0.91-0.735-1.638-1.646-1.638c-0.902,0-1.646,0.728-1.646,1.638
		c0,0.903,0.741,1.631,1.646,1.631C89.006,64.669,89.741,63.941,89.741,63.038z"/>
	<path fill="#FFFFFF" d="M76.453,14.35c0-0.904-0.734-1.639-1.646-1.639c-0.91,0-1.645,0.736-1.645,1.639
		c0,0.909,0.734,1.638,1.645,1.638C75.719,15.987,76.453,15.26,76.453,14.35z"/>
	<path fill="#FFFFFF" d="M11.146,65.089c0-0.555-0.441-0.999-1.006-0.999c-0.552,0-0.994,0.444-0.994,0.999c0,0.546,0.441,1,0.994,1
		C10.705,66.093,11.146,65.635,11.146,65.089z"/>
	<path fill="#FFFFFF" d="M88.844,69.949c0-0.311-0.258-0.567-0.574-0.567c-0.314,0-0.565,0.259-0.565,0.567
		c0,0.314,0.251,0.574,0.565,0.574C88.586,70.523,88.844,70.264,88.844,69.949z"/>
	<circle fill="#FFFFFF" cx="6.772" cy="45.495" r="0.571"/>
	<path fill="#FFFFFF" d="M12.178,31.2c0-0.556-0.443-1-1.007-1c-0.551,0-0.993,0.444-0.993,1c0,0.555,0.442,1,0.993,1
		C11.734,32.2,12.178,31.755,12.178,31.2z"/>
	<path fill="#FFFFFF" d="M12.355,68.855c0-0.313-0.252-0.573-0.567-0.573c-0.322,0-0.575,0.26-0.575,0.573
		c0,0.309,0.252,0.567,0.575,0.567C12.103,69.424,12.355,69.164,12.355,68.855z"/>
	<circle fill="#FFFFFF" cx="92.439" cy="54.239" r="0.57"/>
	<path fill="#FFFFFF" d="M12.453,44.704c0-0.629-0.511-1.134-1.141-1.134s-1.141,0.504-1.141,1.134c0,0.631,0.511,1.135,1.141,1.135
		S12.453,45.333,12.453,44.704z"/>
	<path fill="#FFFFFF" d="M32.287,27.84c0-2.338-1.898-4.235-4.25-4.235c-2.346,0-4.249,1.897-4.249,4.235
		c0,2.338,1.903,4.236,4.249,4.236C30.389,32.076,32.287,30.177,32.287,27.84z"/>
	<ellipse fill="#FFFFFF" cx="25.054" cy="15.477" rx="3.186" ry="3.178"/>
	<path fill="#FFFFFF" d="M92.52,44.88c0-1.254-1.028-2.27-2.289-2.27c-1.26,0-2.289,1.016-2.289,2.27
		c0,1.259,1.029,2.274,2.289,2.274S92.52,46.139,92.52,44.88z"/>
	<path fill="#FFFFFF" d="M85.861,29.394c0-1.253-1.021-2.275-2.288-2.275c-1.261,0-2.283,1.021-2.283,2.275
		c0,1.252,1.022,2.268,2.283,2.268C84.84,31.662,85.861,30.646,85.861,29.394z"/>
	<path fill="#FFFFFF" d="M67.242,15.468c0-1.654-1.344-2.994-3.008-2.994c-1.65,0-2.992,1.34-2.992,2.994
		c0,1.654,1.339,3.006,2.992,3.006C65.898,18.474,67.242,17.123,67.242,15.468z"/>
	<path fill="#FFFFFF" d="M41.841,19.566c0-1.254-1.021-2.269-2.282-2.269c-1.268,0-2.289,1.015-2.289,2.269
		c0,1.253,1.022,2.275,2.289,2.275C40.82,21.841,41.841,20.819,41.841,19.566z"/>
	<path fill="#FFFFFF" d="M13.868,52.32c0-1.252-1.022-2.269-2.283-2.269c-1.268,0-2.289,1.017-2.289,2.269
		c0,1.259,1.022,2.273,2.289,2.273C12.845,54.596,13.868,53.579,13.868,52.32z"/>
	<path fill="#FFFFFF" d="M23.172,56.898c0-1.748-1.429-3.178-3.186-3.178c-1.765,0-3.192,1.43-3.192,3.178
		c0,1.758,1.428,3.179,3.192,3.179C21.743,60.079,23.172,58.656,23.172,56.898z"/>
	<path fill="#FFFFFF" d="M82.67,63.354c0-1.252-1.021-2.275-2.29-2.275c-1.26,0-2.28,1.023-2.28,2.275c0,1.254,1.021,2.27,2.28,2.27
		C81.646,65.622,82.67,64.605,82.67,63.354z"/>
	<path fill="#FFFFFF" d="M22.197,42.877c0-1.252-1.021-2.268-2.289-2.268c-1.26,0-2.282,1.015-2.282,2.268s1.022,2.276,2.282,2.276
		C21.176,45.153,22.197,44.13,22.197,42.877z"/>
	<path fill="#FFFFFF" d="M69.156,24.331c0-1.394-1.102-2.498-2.485-2.498c-1.383,0-2.515,1.104-2.515,2.498
		c0,1.389,1.131,2.502,2.515,2.502S69.156,25.722,69.156,24.331z"/>
	<path fill="#FFFFFF" d="M75.475,57.089c0-0.556-0.449-1.001-1.004-1.001s-0.996,0.445-0.996,1.001s0.441,0.999,0.996,0.999
		C75.021,58.088,75.475,57.645,75.475,57.089z"/>
	<path fill="#FFFFFF" d="M86.258,57.09c0-0.834-0.68-1.502-1.51-1.502c-0.828,0-1.49,0.668-1.49,1.502
		c0,0.832,0.66,1.498,1.49,1.498S86.258,57.922,86.258,57.09z"/>
	<path fill="#FFFFFF" d="M51.203,7.548c0-0.554-0.456-1.007-1.003-1.007c-0.552,0-0.997,0.453-0.997,1.007
		c0,0.541,0.444,0.993,0.997,0.993C50.747,8.541,51.203,8.088,51.203,7.548z"/>
	<path fill="#FFFFFF" d="M54.064,8.77c0-0.316-0.26-0.567-0.573-0.567c-0.315,0-0.568,0.251-0.568,0.567
		c0,0.315,0.253,0.567,0.568,0.567C53.807,9.338,54.064,9.085,54.064,8.77z"/>
	<path fill="#FFFFFF" d="M35.962,7.951c0-0.315-0.252-0.567-0.567-0.567S34.82,7.635,34.82,7.951c0,0.314,0.26,0.567,0.575,0.567
		C35.709,8.518,35.962,8.266,35.962,7.951z"/>
	<path fill="#FFFFFF" d="M51.545,26.636c5.215,0,10.438,3.465,11.698,5.6c1.261,2.135,2.876,6.042,2.876,8.002
		c0,1.953-0.446,5.244-0.446,5.244s0.974-0.162,1.168,0.973c0.175,1.071,0.447,3.199,0,4.088c-0.456,0.889-0.812,1.693-1.8,2.85
		c-0.482,0.551-0.812,0.616-1.084,0.709c-0.268,0.09-0.63,3.909-1.262,4.976c-0.622,1.063-1.883,1.952-2.338,2.844
		c-0.447,0.89-0.986,3.022-0.722,4.626c0.273,1.598,0.903,3.823,2.163,4.621c1.262,0.798,5.04,3.557,9.717,5.686
		c0.756,0.344,3.232,1,4.318,1.07c1.443,0.084,7.477,1.268,7.477,1.268s-4.802,5.867-11.108,9.146
		c-5.481,2.847-10.83,5.047-20.484,5.047c-10.242,0-17.88-2.927-22.57-5.321c-5.622-2.861-10.788-7.924-10.697-8.189
		c0.091-0.268,4.116-1.682,6.273-1.947c2.163-0.266,6.392-1.693,7.561-2.133c1.169-0.451,9.178-4.807,9.716-6.4
		c0.539-1.603,0.903-5.069,0.63-5.691c-0.265-0.622,0.259-1.155-0.63-1.777c-1.022-0.709-2.282-1.954-2.758-2.962
		c-0.426-0.897-0.784-2.604-0.903-3.788c-0.063-0.631,0.063-1.07-0.293-1.07c-0.365,0-0.721,0.181-1.442-0.709
		c-0.721-0.889-1.624-2.758-1.624-4.179c0-0.798,0.091-1.868,0.547-2.576c0.447-0.714,0.896-0.714,1.077-1.071
		c0.182-0.35-0.154-5.888,0.358-7.819c0.538-2.045,1.798-5.076,3.332-6.841C42.451,28.415,46.322,26.636,51.545,26.636z"/>
	
		<line fill="none" stroke="#FFFFFF" stroke-linecap="round" stroke-linejoin="round" stroke-miterlimit="10" x1="18.242" y1="56.221" x2="12.075" y2="52.636"/>
	
		<line fill="none" stroke="#FFFFFF" stroke-linecap="round" stroke-linejoin="round" stroke-miterlimit="10" x1="28.324" y1="54.996" x2="20.714" y2="57.145"/>
	
		<line fill="none" stroke="#FFFFFF" stroke-linecap="round" stroke-linejoin="round" stroke-miterlimit="10" x1="26.678" y1="64.852" x2="19.412" y2="56.67"/>
	
		<line fill="none" stroke="#FFFFFF" stroke-linecap="round" stroke-linejoin="round" stroke-miterlimit="10" x1="25.033" y1="16.604" x2="26.889" y2="24.793"/>
	
		<line fill="none" stroke="#FFFFFF" stroke-linecap="round" stroke-linejoin="round" stroke-miterlimit="10" x1="39.433" y1="39.195" x2="20.371" y2="43.29"/>
	
		<line fill="none" stroke="#FFFFFF" stroke-linecap="round" stroke-linejoin="round" stroke-miterlimit="10" x1="76.047" y1="40.356" x2="65.076" y2="39.055"/>
	
		<line fill="none" stroke="#FFFFFF" stroke-linecap="round" stroke-linejoin="round" stroke-miterlimit="10" x1="83.447" y1="29.912" x2="78.512" y2="39.741"/>
	
		<line fill="none" stroke="#FFFFFF" stroke-linecap="round" stroke-linejoin="round" stroke-miterlimit="10" x1="89.621" y1="44.858" x2="79.126" y2="41.379"/>
	
		<line fill="none" stroke="#FFFFFF" stroke-linecap="round" stroke-linejoin="round" stroke-miterlimit="10" x1="78.512" y1="54.996" x2="80.385" y2="63.35"/>
	
		<line fill="none" stroke="#FFFFFF" stroke-linecap="round" stroke-linejoin="round" stroke-miterlimit="10" x1="79.953" y1="64.102" x2="75.423" y2="66.561"/>
	<path fill="#FFFFFF" d="M31.208,54.891c0-0.902-0.742-1.639-1.652-1.639c-0.904,0-1.646,0.734-1.646,1.639
		c0,0.901,0.743,1.639,1.646,1.639C30.466,56.529,31.208,55.792,31.208,54.891z"/>
	<ellipse fill="#FFFFFF" cx="78.512" cy="54.891" rx="1.646" ry="1.639"/>
	<path fill="#FFFFFF" d="M76.047,67.177c0-0.903-0.742-1.639-1.652-1.639c-0.902,0-1.646,0.735-1.646,1.639
		c0,0.902,0.743,1.638,1.646,1.638C75.305,68.814,76.047,68.079,76.047,67.177z"/>
	<ellipse fill="#FFFFFF" cx="60.311" cy="8.77" rx="1.646" ry="1.638"/>
	<path fill="#FFFFFF" d="M29.094,64.605c0-1.252-1.03-2.269-2.289-2.269c-1.26,0-2.289,1.017-2.289,2.269s1.028,2.275,2.289,2.275
		C28.064,66.882,29.094,65.857,29.094,64.605z"/>
	<path fill="#FFFFFF" d="M14.16,22.282c0-0.315-0.258-0.568-0.574-0.568s-0.566,0.252-0.566,0.568c0,0.315,0.25,0.567,0.566,0.567
		S14.16,22.596,14.16,22.282z"/>
	<ellipse fill="#FFFFFF" cx="90.162" cy="29.891" rx="1" ry="1"/>
	<path fill="#FFFFFF" d="M81.643,19.418c0-0.556-0.44-1-0.994-1c-0.551,0-1.006,0.444-1.006,1s0.455,1,1.006,1
		C81.202,20.418,81.643,19.972,81.643,19.418z"/>
	<polyline fill="none" stroke="#FFFFFF" stroke-linecap="round" stroke-linejoin="round" stroke-miterlimit="10" points="
		74.534,14.217 64.523,15.582 60.688,9.03 	"/>
</g>
</svg>
