<?xml version="1.0" encoding="utf-8"?>
<!-- Generator: Adobe Illustrator 16.0.0, SVG Export Plug-In . SVG Version: 6.00 Build 0)  -->
<!DOCTYPE svg PUBLIC "-//W3C//DTD SVG 1.1//EN" "http://www.w3.org/Graphics/SVG/1.1/DTD/svg11.dtd">
<svg version="1.1" id="Your_Icon" xmlns="http://www.w3.org/2000/svg" xmlns:xlink="http://www.w3.org/1999/xlink" x="0px" y="0px"
	 width="100px" height="100px" viewBox="0 0 100 100" enable-background="new 0 0 100 100" xml:space="preserve">
<g id="Layer_1_1_">
	<path d="M75.175,52.441c0-0.491-0.399-0.891-0.899-0.891c-0.488,0-0.889,0.398-0.889,0.891c0,0.49,0.398,0.891,0.889,0.891
		C74.775,53.332,75.175,52.932,75.175,52.441z"/>
	<path d="M71.73,48.715c0-0.491-0.4-0.891-0.899-0.891c-0.491,0-0.89,0.399-0.89,0.891c0,0.498,0.396,0.898,0.89,0.898
		C71.331,49.613,71.73,49.213,71.73,48.715z"/>
	<path d="M60.439,54.746c0-0.491-0.398-0.891-0.892-0.891c-0.499,0-0.896,0.397-0.896,0.891c0,0.499,0.396,0.898,0.896,0.898
		C60.042,55.645,60.439,55.245,60.439,54.746z"/>
	<path d="M18.843,78.041c0-0.491-0.399-0.891-0.89-0.891c-0.499,0-0.898,0.397-0.898,0.891c0,0.499,0.399,0.898,0.898,0.898
		C18.444,78.939,18.843,78.54,18.843,78.041z"/>
	<path d="M86.723,27.408c0-0.491-0.397-0.891-0.891-0.891c-0.499,0-0.898,0.399-0.898,0.891c0,0.499,0.399,0.898,0.898,0.898
		C86.322,28.307,86.723,27.907,86.723,27.408z"/>
	<path d="M88.387,22.417c0-0.491-0.4-0.89-0.892-0.89c-0.499,0-0.897,0.399-0.897,0.89c0,0.499,0.398,0.898,0.897,0.898
		C87.986,23.315,88.387,22.916,88.387,22.417z"/>
	<path d="M83.734,15.645c0-0.491-0.398-0.89-0.889-0.89c-0.5,0-0.898,0.399-0.898,0.89c0,0.499,0.398,0.898,0.898,0.898
		C83.336,16.543,83.734,16.144,83.734,15.645z"/>
	<path d="M62.346,48.914c0-0.241-0.199-0.441-0.449-0.441s-0.446,0.2-0.446,0.441c0,0.25,0.196,0.449,0.446,0.449
		S62.346,49.164,62.346,48.914z"/>
	<path d="M49.625,54.746c0-0.491-0.399-0.891-0.89-0.891c-0.499,0-0.898,0.397-0.898,0.891c0,0.499,0.399,0.898,0.898,0.898
		C49.227,55.645,49.625,55.245,49.625,54.746z"/>
	<path d="M8.585,73.257c0-1.381-1.114-2.496-2.496-2.496c-1.382,0-2.496,1.114-2.496,2.496s1.114,2.496,2.496,2.496
		C7.471,75.753,8.585,74.639,8.585,73.257z"/>
	<path d="M27.721,78.248c0-1.381-1.115-2.496-2.496-2.496c-1.381,0-2.497,1.115-2.497,2.496s1.115,2.496,2.497,2.496
		C26.605,80.744,27.721,79.629,27.721,78.248z"/>
	<path d="M49.351,63.273c0-1.381-1.115-2.496-2.496-2.496s-2.496,1.115-2.496,2.496s1.115,2.496,2.496,2.496
		S49.351,64.654,49.351,63.273z"/>
	<path d="M80.133,61.609c0-1.381-1.115-2.496-2.496-2.496s-2.496,1.115-2.496,2.496s1.115,2.496,2.496,2.496
		S80.133,62.991,80.133,61.609z"/>
	<path d="M80.133,40.811c0-1.381-1.115-2.496-2.496-2.496s-2.496,1.114-2.496,2.496s1.115,2.496,2.496,2.496
		S80.133,42.192,80.133,40.811z"/>
	<path d="M40.524,66.593c0-0.981-0.799-1.78-1.789-1.78c-0.99,0-1.789,0.799-1.789,1.78c0,0.99,0.798,1.789,1.789,1.789
		C39.726,68.382,40.524,67.583,40.524,66.593z"/>
	<path d="M48.844,76.576c0-0.982-0.799-1.781-1.789-1.781c-0.991,0-1.789,0.799-1.789,1.781c0,0.99,0.798,1.788,1.789,1.788
		C48.045,78.364,48.844,77.566,48.844,76.576z"/>
	<path d="M89.318,32.475c0-0.491-0.4-0.89-0.899-0.89c-0.491,0-0.89,0.399-0.89,0.89c0,0.491,0.396,0.89,0.89,0.89
		C88.918,33.365,89.318,32.966,89.318,32.475z"/>
	<path d="M31.082,89.047c0-0.49-0.399-0.89-0.898-0.89c-0.491,0-0.89,0.397-0.89,0.89c0,0.491,0.399,0.891,0.89,0.891
		C30.682,89.938,31.082,89.538,31.082,89.047z"/>
	<path d="M24.426,84.055c0-0.49-0.399-0.89-0.898-0.89c-0.491,0-0.891,0.399-0.891,0.89c0,0.491,0.399,0.891,0.891,0.891
		C24.027,84.945,24.426,84.546,24.426,84.055z"/>
	<path d="M85.041,35.403c0-0.49-0.398-0.891-0.898-0.891c-0.49,0-0.89,0.4-0.89,0.891c0,0.499,0.399,0.898,0.89,0.898
		C84.643,36.302,85.041,35.902,85.041,35.403z"/>
	<path d="M97.288,29.779c0-0.241-0.2-0.441-0.449-0.441c-0.25,0-0.448,0.2-0.448,0.441c0,0.25,0.198,0.449,0.448,0.449
		C97.088,30.229,97.288,30.029,97.288,29.779z"/>
	<circle cx="80.624" cy="22.625" r="3.328"/>
	<circle cx="66.822" cy="58.282" r="3.328"/>
	<path d="M79.625,29.987c0-0.982-0.799-1.781-1.789-1.781s-1.789,0.799-1.789,1.781c0,0.99,0.799,1.789,1.789,1.789
		C78.827,31.776,79.625,30.977,79.625,29.987z"/>
	<path d="M92.938,40.803c0-0.982-0.799-1.78-1.789-1.78c-0.989,0-1.789,0.798-1.789,1.78c0,0.99,0.8,1.788,1.789,1.788
		C92.139,42.591,92.938,41.792,92.938,40.803z"/>
	<path d="M92.938,17.508c0-0.982-0.799-1.78-1.789-1.78c-0.989,0-1.789,0.798-1.789,1.78c0,0.99,0.8,1.789,1.789,1.789
		C92.139,19.297,92.938,18.498,92.938,17.508z"/>
	<path d="M78.762,16.681c0-0.982-0.799-1.781-1.789-1.781s-1.789,0.799-1.789,1.781c0,0.989,0.799,1.788,1.789,1.788
		S78.762,17.67,78.762,16.681z"/>
	<path d="M83.785,55.777c0-0.981-0.799-1.78-1.789-1.78c-0.991,0-1.789,0.799-1.789,1.78c0,0.99,0.798,1.789,1.789,1.789
		C82.986,57.566,83.785,56.768,83.785,55.777z"/>
	<path d="M30.025,71.252c0-0.5-0.399-0.898-0.898-0.898c-0.491,0-0.89,0.398-0.89,0.898c0,0.49,0.399,0.891,0.89,0.891
		C29.625,72.143,30.025,71.742,30.025,71.252z"/>
	<path d="M54.15,51.285c0-0.499-0.398-0.899-0.897-0.899c-0.489,0-0.89,0.4-0.89,0.899c0,0.49,0.396,0.89,0.89,0.89
		C53.752,52.175,54.15,51.775,54.15,51.285z"/>
	<path d="M87.279,50.478c0-0.25-0.2-0.449-0.441-0.449c-0.25,0-0.449,0.199-0.449,0.449c0,0.25,0.199,0.449,0.449,0.449
		C87.08,50.927,87.279,50.729,87.279,50.478z"/>
	<path d="M13.236,76.27c0-0.25-0.2-0.449-0.441-0.449c-0.25,0-0.449,0.199-0.449,0.449c0,0.248,0.2,0.448,0.449,0.448
		C13.037,76.718,13.236,76.518,13.236,76.27z"/>
	<path d="M9.077,82.924c0-0.25-0.199-0.449-0.441-0.449c-0.25,0-0.449,0.199-0.449,0.449s0.199,0.449,0.449,0.449
		C8.877,83.373,9.077,83.173,9.077,82.924z"/>
	<path fill="none" stroke="#000000" stroke-width="4.5" stroke-linecap="round" stroke-linejoin="round" stroke-miterlimit="10" d="
		M28.652,60.969c7.753-15.391,23.745-25.957,42.211-25.957h0.117"/>
	<path fill="none" stroke="#000000" stroke-width="4.5" stroke-linecap="round" stroke-linejoin="round" stroke-miterlimit="10" d="
		M23.478,57.791c8.702-16.997,26.448-28.636,46.93-28.636l0.574,0.009"/>
	<path fill="none" stroke="#000000" stroke-width="4.5" stroke-linecap="round" stroke-linejoin="round" stroke-miterlimit="10" d="
		M18.411,53.839c9.958-18.411,29.509-30.916,51.996-30.916h0.573"/>
	<path fill="none" stroke="#000000" stroke-width="4.5" stroke-linecap="round" stroke-linejoin="round" stroke-miterlimit="10" d="
		M13.769,50.145c10.923-19.933,32.188-33.46,56.638-33.46h0.573"/>
	<path fill="none" stroke="#000000" stroke-width="4.5" stroke-linecap="round" stroke-linejoin="round" stroke-miterlimit="10" d="
		M33.311,64.671c6.772-13.869,21.041-23.419,37.554-23.419h0.117"/>
	<path d="M6.09,64.247c0.233-0.417,0.083-0.958-0.333-1.207s-0.932-0.116-1.165,0.3c-0.225,0.416-0.075,0.948,0.333,1.197
		C5.341,64.788,5.857,64.654,6.09,64.247z"/>
	<path d="M11.914,61.751c0.233-0.416,0.083-0.957-0.333-1.207s-0.932-0.116-1.165,0.299c-0.225,0.417-0.075,0.948,0.333,1.198
		C11.165,62.292,11.68,62.159,11.914,61.751z"/>
	<path d="M19.069,71.359c0.906-1.571,0.357-3.61-1.224-4.561c-1.581-0.938-3.569-0.416-4.442,1.148
		c-0.873,1.556-0.325,3.566,1.223,4.509C16.182,73.398,18.169,72.916,19.069,71.359z"/>
	<path d="M26.722,67.232c0.499-0.864,0.208-1.979-0.666-2.496c-0.874-0.508-1.98-0.223-2.479,0.633
		c-0.499,0.865-0.2,1.972,0.665,2.479C25.108,68.365,26.215,68.09,26.722,67.232z"/>
	<path d="M10.774,56.643c0.474-0.865,0.175-1.963-0.674-2.461c-0.832-0.492-1.888-0.189-2.354,0.666
		c-0.458,0.856-0.159,1.954,0.673,2.445C9.251,57.791,10.308,57.5,10.774,56.643z"/>
	<path d="M17.755,59.186c0.475-0.865,0.175-1.963-0.674-2.463c-0.832-0.49-1.889-0.188-2.354,0.666
		c-0.458,0.856-0.158,1.955,0.674,2.445C16.233,60.333,17.29,60.042,17.755,59.186z"/>
	<path d="M36.514,73.523c0.266-0.436,0.116-0.99-0.324-1.256c-0.449-0.261-1.023-0.125-1.281,0.299
		c-0.267,0.433-0.117,0.99,0.324,1.257C35.682,74.08,36.256,73.947,36.514,73.523z"/>
	<path d="M21.539,61.876c0.267-0.433,0.117-0.99-0.324-1.257c-0.449-0.258-1.023-0.124-1.281,0.3
		c-0.267,0.433-0.117,0.989,0.324,1.256C20.707,62.434,21.281,62.3,21.539,61.876z"/>
</g>
</svg>
