<?xml version="1.0" encoding="utf-8"?>
<!-- Generator: Adobe Illustrator 16.0.0, SVG Export Plug-In . SVG Version: 6.00 Build 0)  -->
<!DOCTYPE svg PUBLIC "-//W3C//DTD SVG 1.1//EN" "http://www.w3.org/Graphics/SVG/1.1/DTD/svg11.dtd">
<svg version="1.1" id="Layer_1" xmlns="http://www.w3.org/2000/svg" xmlns:xlink="http://www.w3.org/1999/xlink" x="0px" y="0px"
	 width="100px" height="100px" viewBox="0 0 100 100" enable-background="new 0 0 100 100" xml:space="preserve">
<g id="Captions">
</g>
<g>
	<path fill-rule="evenodd" clip-rule="evenodd" fill="#FFFFFF" d="M5.155,68.282c0.618,0,1.122-0.514,1.122-1.13
		c0-0.626-0.504-1.131-1.122-1.131c-0.626,0-1.131,0.505-1.131,1.131C4.023,67.769,4.529,68.282,5.155,68.282z"/>
	<path fill-rule="evenodd" clip-rule="evenodd" fill="#FFFFFF" d="M19.184,86.053c0.617,0,1.122-0.515,1.122-1.132
		c0-0.627-0.505-1.132-1.122-1.132c-0.627,0-1.132,0.505-1.132,1.132C18.052,85.538,18.557,86.053,19.184,86.053z"/>
	<path fill-rule="evenodd" clip-rule="evenodd" fill="#FFFFFF" d="M45.641,10.357c0.317,0,0.57-0.252,0.57-0.561
		c0-0.318-0.252-0.57-0.57-0.57c-0.309,0-0.562,0.252-0.562,0.57C45.079,10.104,45.332,10.357,45.641,10.357z"/>
	<path fill-rule="evenodd" clip-rule="evenodd" fill="#FFFFFF" d="M48.81,19.831c0.309,0,0.561-0.252,0.561-0.562
		c0-0.317-0.252-0.57-0.561-0.57c-0.309,0-0.57,0.252-0.57,0.57C48.24,19.578,48.501,19.831,48.81,19.831z"/>
	<path fill-rule="evenodd" clip-rule="evenodd" fill="#FFFFFF" d="M34.885,40.676c0.309,0,0.561-0.252,0.561-0.571
		c0-0.309-0.252-0.561-0.561-0.561s-0.571,0.252-0.571,0.561C34.314,40.424,34.577,40.676,34.885,40.676z"/>
	<path fill-rule="evenodd" clip-rule="evenodd" fill="#FFFFFF" d="M22.223,34.99c0.318,0,0.57-0.252,0.57-0.562
		c0-0.318-0.252-0.57-0.57-0.57c-0.309,0-0.561,0.252-0.561,0.57C21.662,34.738,21.914,34.99,22.223,34.99z"/>
	<path fill-rule="evenodd" clip-rule="evenodd" fill="#FFFFFF" d="M76.408,15.126c0.311,0,0.562-0.252,0.562-0.57
		c0-0.309-0.252-0.561-0.562-0.561c-0.308,0-0.561,0.252-0.561,0.561C75.848,14.874,76.101,15.126,76.408,15.126z"/>
	<path fill-rule="evenodd" clip-rule="evenodd" fill="#FFFFFF" d="M82.282,21.561c0.318,0,0.569-0.253,0.569-0.561
		c0-0.309-0.251-0.561-0.569-0.561c-0.311,0-0.562,0.252-0.562,0.561C81.72,21.308,81.972,21.561,82.282,21.561z"/>
	<path fill-rule="evenodd" clip-rule="evenodd" fill="#FFFFFF" d="M84.46,77.084c0.316,0,0.571-0.251,0.571-0.562
		c0-0.317-0.255-0.57-0.571-0.57c-0.309,0-0.562,0.253-0.562,0.57C83.898,76.833,84.151,77.084,84.46,77.084z"/>
	<path fill-rule="evenodd" clip-rule="evenodd" fill="#FFFFFF" d="M56.47,81.881c0.317,0,0.569-0.252,0.569-0.562
		c0-0.308-0.252-0.56-0.569-0.56c-0.308,0-0.562,0.252-0.562,0.56C55.908,81.629,56.162,81.881,56.47,81.881z"/>
	<path fill-rule="evenodd" clip-rule="evenodd" fill="#FFFFFF" d="M82.46,65.982c1.241,0,2.262-1.01,2.262-2.254
		c0-1.253-1.021-2.264-2.262-2.264c-1.255,0-2.265,1.011-2.265,2.264C80.195,64.973,81.205,65.982,82.46,65.982z"/>
	<circle fill-rule="evenodd" clip-rule="evenodd" fill="#FFFFFF" cx="72.536" cy="20.476" r="1.132"/>
	<path fill-rule="evenodd" clip-rule="evenodd" fill="#FFFFFF" d="M40.366,11.741c0.626,0,1.131-0.505,1.131-1.131
		c0-0.618-0.505-1.123-1.131-1.123c-0.618,0-1.132,0.505-1.132,1.123C39.234,11.236,39.748,11.741,40.366,11.741z"/>
	<path fill-rule="evenodd" clip-rule="evenodd" fill="#FFFFFF" d="M69.992,15.595c0.627,0,1.133-0.515,1.133-1.132
		c0-0.627-0.506-1.132-1.133-1.132c-0.626,0-1.131,0.505-1.131,1.132C68.861,15.08,69.366,15.595,69.992,15.595z"/>
	<path fill-rule="evenodd" clip-rule="evenodd" fill="#FFFFFF" d="M21.568,58.669c0.626,0,1.132-0.505,1.132-1.131
		c0-0.618-0.505-1.121-1.132-1.121c-0.627,0-1.131,0.503-1.131,1.121C20.437,58.164,20.941,58.669,21.568,58.669z"/>
	<path fill-rule="evenodd" clip-rule="evenodd" fill="#FFFFFF" d="M17.172,28.725c0.627,0,1.132-0.505,1.132-1.132
		c0-0.626-0.504-1.131-1.132-1.131c-0.617,0-1.122,0.505-1.122,1.131C16.05,28.22,16.555,28.725,17.172,28.725z"/>
	<path fill-rule="evenodd" clip-rule="evenodd" fill="#FFFFFF" d="M64.007,14.248c0.626,0,1.132-0.504,1.132-1.122
		c0-0.627-0.506-1.132-1.132-1.132c-0.615,0-1.131,0.505-1.131,1.132C62.876,13.743,63.392,14.248,64.007,14.248z"/>
	<path fill-rule="evenodd" clip-rule="evenodd" fill="#FFFFFF" d="M16.199,76.867c0.627,0,1.132-0.503,1.132-1.129
		c0-0.618-0.505-1.123-1.132-1.123c-0.617,0-1.122,0.505-1.122,1.123C15.078,76.364,15.583,76.867,16.199,76.867z"/>
	<circle fill-rule="evenodd" clip-rule="evenodd" fill="#FFFFFF" cx="13.89" cy="57.425" r="1.132"/>
	<path fill-rule="evenodd" clip-rule="evenodd" fill="#FFFFFF" d="M29.471,57.061c0.617,0,1.122-0.514,1.122-1.132
		c0-0.625-0.505-1.13-1.122-1.13c-0.626,0-1.131,0.505-1.131,1.13C28.339,56.547,28.844,57.061,29.471,57.061z"/>
	<circle fill-rule="evenodd" clip-rule="evenodd" fill="#FFFFFF" cx="26.908" cy="84.201" r="1.132"/>
	<path fill-rule="evenodd" clip-rule="evenodd" fill="#FFFFFF" d="M31.341,68.282c0.617,0,1.123-0.514,1.123-1.13
		c0-0.626-0.505-1.131-1.123-1.131c-0.626,0-1.131,0.505-1.131,1.131C30.209,67.769,30.714,68.282,31.341,68.282z"/>
	<path fill-rule="evenodd" clip-rule="evenodd" fill="#FFFFFF" d="M84.647,55.19c0.616,0,1.122-0.514,1.122-1.131
		c0-0.627-0.506-1.132-1.122-1.132c-0.627,0-1.133,0.505-1.133,1.132C83.515,54.677,84.021,55.19,84.647,55.19z"/>
	<path fill-rule="evenodd" clip-rule="evenodd" fill="#FFFFFF" d="M95.87,54.255c0.617,0,1.123-0.514,1.123-1.131
		c0-0.628-0.506-1.133-1.123-1.133c-0.628,0-1.132,0.505-1.132,1.133C94.738,53.741,95.242,54.255,95.87,54.255z"/>
	<path fill-rule="evenodd" clip-rule="evenodd" fill="#FFFFFF" d="M4.22,50.514c0.617,0,1.122-0.513,1.122-1.131
		c0-0.626-0.505-1.132-1.122-1.132c-0.627,0-1.131,0.505-1.131,1.132C3.089,50.001,3.593,50.514,4.22,50.514z"/>
	<path fill-rule="evenodd" clip-rule="evenodd" fill="#FFFFFF" d="M67.477,80.45c0.617,0,1.122-0.505,1.122-1.122
		c0-0.626-0.505-1.132-1.122-1.132c-0.626,0-1.132,0.506-1.132,1.132C66.345,79.945,66.851,80.45,67.477,80.45z"/>
	<path fill-rule="evenodd" clip-rule="evenodd" fill="#FFFFFF" d="M78.427,71.557c0.628,0,1.132-0.506,1.132-1.131
		c0-0.627-0.504-1.132-1.132-1.132c-0.616,0-1.131,0.505-1.131,1.132C77.296,71.051,77.811,71.557,78.427,71.557z"/>
	<path fill-rule="evenodd" clip-rule="evenodd" fill="#FFFFFF" d="M75.53,81.665c0.309,0,0.561-0.252,0.561-0.568
		c0-0.309-0.252-0.562-0.561-0.562c-0.318,0-0.572,0.254-0.572,0.562C74.958,81.413,75.212,81.665,75.53,81.665z"/>
	<path fill-rule="evenodd" clip-rule="evenodd" fill="#FFFFFF" d="M70.124,91.178c0.318,0,0.569-0.253,0.569-0.562
		c0-0.318-0.251-0.571-0.569-0.571c-0.311,0-0.562,0.253-0.562,0.571C69.562,90.925,69.813,91.178,70.124,91.178z"/>
	<path fill-rule="evenodd" clip-rule="evenodd" fill="#FFFFFF" d="M88.752,50.244c0.311,0,0.562-0.253,0.562-0.571
		c0-0.309-0.252-0.561-0.562-0.561c-0.308,0-0.561,0.252-0.561,0.561C88.191,49.991,88.444,50.244,88.752,50.244z"/>
	<path fill-rule="evenodd" clip-rule="evenodd" fill="#FFFFFF" d="M69.581,72.267c1.253,0,2.264-1.019,2.264-2.263
		c0-1.243-1.011-2.253-2.264-2.253c-1.243,0-2.264,1.01-2.264,2.253C67.317,71.248,68.338,72.267,69.581,72.267z"/>
	<path fill-rule="evenodd" clip-rule="evenodd" fill="#FFFFFF" d="M68.889,37.73c1.242,0,2.254-1.01,2.254-2.254
		c0-1.252-1.012-2.263-2.254-2.263c-1.252,0-2.264,1.01-2.264,2.263C66.625,36.721,67.637,37.73,68.889,37.73z"/>
	<path fill-rule="evenodd" clip-rule="evenodd" fill="#FFFFFF" d="M86.247,42.462c1.252,0,2.263-1.009,2.263-2.254
		c0-1.253-1.011-2.263-2.263-2.263c-1.244,0-2.253,1.01-2.253,2.263C83.994,41.453,85.003,42.462,86.247,42.462z"/>
	<path fill-rule="evenodd" clip-rule="evenodd" fill="#FFFFFF" d="M64.27,22.375c1.01,0,1.833-0.823,1.833-1.843
		c0-1.01-0.823-1.833-1.833-1.833c-1.011,0-1.834,0.822-1.834,1.833C62.436,21.551,63.259,22.375,64.27,22.375z"/>
	<path fill-rule="evenodd" clip-rule="evenodd" fill="#FFFFFF" d="M24.757,53.778c1.458,0,2.637-1.186,2.637-2.656
		c0-1.459-1.178-2.646-2.637-2.646c-1.459,0-2.638,1.188-2.638,2.646C22.119,52.593,23.298,53.778,24.757,53.778z"/>
	<path fill-rule="evenodd" clip-rule="evenodd" fill="#FFFFFF" d="M75.099,66.32c1.46,0,2.639-1.188,2.639-2.656
		c0-1.459-1.179-2.646-2.639-2.646c-1.458,0-2.637,1.188-2.637,2.646C72.462,65.132,73.641,66.32,75.099,66.32z"/>
	<path fill-rule="evenodd" clip-rule="evenodd" fill="#FFFFFF" d="M23.392,69.51c1.253,0,2.262-1.012,2.262-2.265
		c0-1.243-1.009-2.252-2.262-2.252c-1.244,0-2.263,1.009-2.263,2.252C21.129,68.498,22.148,69.51,23.392,69.51z"/>
	<path fill-rule="evenodd" clip-rule="evenodd" fill="#FFFFFF" d="M25,28.06c1.253,0,2.263-1.009,2.263-2.263
		c0-1.243-1.01-2.253-2.263-2.253c-1.244,0-2.263,1.01-2.263,2.253C22.737,27.051,23.756,28.06,25,28.06z"/>
	<path fill-rule="evenodd" clip-rule="evenodd" fill="#FFFFFF" d="M29.882,79.348c1.253,0,2.264-1.012,2.264-2.264
		c0-1.244-1.01-2.254-2.264-2.254c-1.244,0-2.254,1.01-2.254,2.254C27.627,78.336,28.638,79.348,29.882,79.348z"/>
	<path fill-rule="evenodd" clip-rule="evenodd" fill="#FFFFFF" d="M83.937,70.443c0.309,0,0.561-0.253,0.561-0.57
		c0-0.309-0.252-0.562-0.561-0.562c-0.317,0-0.569,0.253-0.569,0.562C83.367,70.19,83.619,70.443,83.937,70.443z"/>
	<path fill-rule="evenodd" clip-rule="evenodd" fill="#FFFFFF" d="M57.536,8.337c0.626,0,1.132-0.514,1.132-1.132
		c0-0.626-0.506-1.132-1.132-1.132c-0.627,0-1.133,0.505-1.133,1.132C56.403,7.823,56.909,8.337,57.536,8.337z"/>
	<path fill-rule="evenodd" clip-rule="evenodd" fill="#FFFFFF" d="M34.857,85.098c0.627,0,1.131-0.506,1.131-1.123
		c0-0.625-0.504-1.129-1.131-1.129c-0.626,0-1.132,0.504-1.132,1.129C33.725,84.592,34.23,85.098,34.857,85.098z"/>
	<circle fill-rule="evenodd" clip-rule="evenodd" fill="#FFFFFF" cx="29.498" cy="16.604" r="1.132"/>
	<path fill-rule="evenodd" clip-rule="evenodd" fill="#FFFFFF" d="M74.464,76.42c0.309,0,0.561-0.254,0.561-0.562
		c0-0.318-0.252-0.569-0.561-0.569c-0.308,0-0.563,0.251-0.563,0.569C73.9,76.166,74.156,76.42,74.464,76.42z"/>
	<path fill-rule="evenodd" clip-rule="evenodd" fill="#FFFFFF" d="M22.569,79.749c0.309,0,0.561-0.252,0.561-0.57
		c0-0.308-0.252-0.562-0.561-0.562s-0.561,0.254-0.561,0.562C22.008,79.497,22.26,79.749,22.569,79.749z"/>
	<path fill-rule="evenodd" clip-rule="evenodd" fill="#FFFFFF" d="M36.185,93.927c0.309,0,0.562-0.253,0.562-0.57
		c0-0.31-0.253-0.562-0.562-0.562s-0.561,0.252-0.561,0.562C35.624,93.674,35.876,93.927,36.185,93.927z"/>
	<path fill-rule="evenodd" clip-rule="evenodd" fill="#FFFFFF" d="M79.971,86.987c0.616,0,1.122-0.515,1.122-1.132
		c0-0.626-0.506-1.13-1.122-1.13c-0.626,0-1.132,0.504-1.132,1.13C78.839,86.473,79.345,86.987,79.971,86.987z"/>
	<path fill-rule="evenodd" clip-rule="evenodd" fill="#FFFFFF" d="M52.095,87.164c0-2.207-1.787-4.001-3.995-4.001
		c-2.208,0-3.994,1.794-3.994,4.001c0,2.208,1.786,3.994,3.994,3.994C50.308,91.158,52.095,89.372,52.095,87.164z"/>
	<path fill-rule="evenodd" clip-rule="evenodd" fill="#FFFFFF" d="M73.545,27.116c0-1.805-1.468-3.273-3.272-3.273
		c-1.806,0-3.273,1.468-3.273,3.273s1.468,3.273,3.273,3.273C72.077,30.389,73.545,28.921,73.545,27.116z"/>
	<path fill-rule="evenodd" clip-rule="evenodd" fill="#FFFFFF" d="M19.81,44.221c0-2.207-1.786-4.003-3.993-4.003
		c-2.207,0-3.993,1.796-3.993,4.003c0,2.198,1.787,3.994,3.993,3.994C18.023,48.214,19.81,46.418,19.81,44.221z"/>
	<path fill-rule="evenodd" clip-rule="evenodd" fill="#FFFFFF" d="M60.137,74.887c1.683-1.861,2.188-2.976,3.021-3.836
		c0.318-0.327,0.615-1.281,0.859-1.664c0.253-0.385,4.284-5.068,4.807-5.742c0.524-0.673,1.487-1.89,1.908-2.104
		c0.411-0.216,3.152-3.18,3.573-3.825c0.412-0.646,0.513-1.104,0.569-1.759c0.047-0.653,0.252-1.6,0.271-2.16
		c0.02-0.748,2.825-7.014,3.573-8.173c0.748-1.16,1.422-1.337,1.495-2.319c0.065-0.982-0.019-1.282,0.31-2.646
		c0.318-1.375,0.448-2.581,0.972-2.833c0.533-0.243,3.049-4.442,3.658-4.826c0.616-0.374,1.504-1.048,0.232-1.665
		c-1.411-0.692-1.272-1.047-3.459-0.673c-2.181,0.365-3.555,1.646-4.368,2.263c-2.095,1.59-5.219,6.051-5.443,6.528
		c-0.243,0.505-0.626,1.673-0.626,1.673s-0.738,1.487-1.262,2.582c-0.516,1.103-2.938,4.731-3.547,5.106
		c-0.606,0.374-1.13,1.047-1.251,0.645c-0.114-0.393-1.058-6.967-1.16-8.959c-0.104-1.992,0.279-9.745-0.253-10.774
		c-0.541-1.019-0.673-3.104-1.965-5.508c-1.289-2.403-3.403-7.219-4.46-7.996c-1.057-0.767-2.778-3.031-3.415-3.17
		c-0.635-0.141-0.905-0.234-1.484-0.225c-0.619,0.009-1.264,0.345-1.647,1.084c-0.374,0.739-0.833,1.637-0.552,2.366
		c0.356,0.926,2.769,6.312,3.011,6.771c0.252,0.458,2.041,7.061,2.133,7.35c0.084,0.299-0.233,2.498-0.057,3.517
		c0.17,1.01,0.299,3.517,0.44,4.012c0.142,0.486-0.44,1.225-0.916,1.749c-0.468,0.524-1.122,0.103-1.122,0.103
		s-0.89-6.2-1.739-7.734c-0.926-1.646-3.461-5.995-3.751-6.977c-0.28-0.973-3.628-6.472-4.209-7.258
		c-0.579-0.794-1.299-2.066-2.72-2.094c-1.422-0.028-2.348,0.019-2.862,1.104c-0.515,1.084-1.001,1.852-0.636,2.693
		c0.355,0.851,2.945,6.715,3.563,7.407c0.458,0.523,2.131,5.835,3.067,7.883c0.524,1.047,1,2.431,1.048,2.917
		c0.075,0.758,1.3,4.629,1.3,4.629l-1.151,1.151c0,0-2.263-7.108-2.095-6.098c0.169,1.01-3.124-4.751-3.816-5.929
		c-0.691-1.188-2.871-5.537-3.721-5.622c-0.842-0.083-2.834-0.065-3.348,0.599s-0.646,1.02-0.393,2.31
		c0.252,1.3,1.356,4.368,1.824,5.181c0.467,0.824,2.235,5.396,2.899,6.491c0.664,1.085,2.254,5.835,2.498,6.294
		c0.252,0.468,1.075,0.879,0.009,1.271c-1.066,0.384-1.72,0.982-1.879,0.814c-0.169-0.169-1.731-1.123-2.152-2.591
		c-0.421-1.478-1.206-1.365-1.814-2.685c-0.608-1.309-1.562-2.207-1.898-2.964c-0.328-0.749-1.31-4.433-1.945-4.995
		c-0.626-0.57-2.114-1.113-2.469-0.99c-1.113,0.383-1.412,1.486-1.637,1.944c-0.225,0.449-0.468,1.15-0.636,2.694
		c-0.168,1.421,0.851,3.862,2.216,5.386c1.366,1.534,1.956,4.012,2.797,4.938c0.851,0.936,2.347,4.554,2.478,5.04
		c0.14,0.496-0.375,1.159-0.317,1.356c0.055,0.195,0.252,1.729,0.345,2.439c0.085,0.721,0.58,2.068,0.58,2.068
		s-0.075,0.552,0.094,1.57c0.168,1.012,0.309,2.769,1.084,5.106c0.786,2.346,1.946,4.377,1.843,5.257
		c-0.103,0.868-0.439,0.963-0.132,2.047c0.309,1.085,0.346,2.04,0.655,3.123c0.3,1.096,1.74,1.89,3.143,2.171
		C43.311,80.366,54.233,81.403,60.137,74.887z"/>
	<path fill-rule="evenodd" clip-rule="evenodd" fill="#FFFFFF" d="M27.89,64.009c1.459,0,2.646-1.187,2.646-2.646
		c0-1.469-1.188-2.656-2.646-2.656c-1.458,0-2.637,1.188-2.637,2.656C25.253,62.822,26.431,64.009,27.89,64.009z"/>
	<path fill-rule="evenodd" clip-rule="evenodd" fill="#FFFFFF" d="M60.743,90.233c1.104,0,2-0.898,2-2.003
		c0-1.102-0.896-1.991-2-1.991c-1.103,0-1.992,0.89-1.992,1.991C58.751,89.335,59.641,90.233,60.743,90.233z"/>
	<path fill-rule="evenodd" clip-rule="evenodd" fill="#FFFFFF" d="M18.435,65.412c0.319,0,0.571-0.252,0.571-0.562
		c0-0.317-0.252-0.568-0.571-0.568c-0.308,0-0.561,0.251-0.561,0.568C17.874,65.16,18.126,65.412,18.435,65.412z"/>
	<path fill-rule="evenodd" clip-rule="evenodd" fill="#FFFFFF" d="M0.937,44.922c0.123,0.243,0.421,0.337,0.665,0.215
		c0.234-0.121,0.327-0.412,0.206-0.655c-0.131-0.243-0.43-0.345-0.664-0.224C0.9,44.38,0.806,44.679,0.937,44.922z"/>
	<path fill-rule="evenodd" clip-rule="evenodd" fill="#FFFFFF" d="M22.447,43.987c0.122,0.243,0.421,0.336,0.665,0.215
		c0.233-0.122,0.327-0.412,0.206-0.655c-0.131-0.243-0.431-0.346-0.665-0.224C22.409,43.444,22.316,43.744,22.447,43.987z"/>
	<path fill-rule="evenodd" clip-rule="evenodd" fill="#FFFFFF" d="M98.198,48.663c0.122,0.243,0.421,0.336,0.664,0.215
		c0.235-0.122,0.327-0.411,0.207-0.654c-0.132-0.243-0.432-0.346-0.665-0.225C98.16,48.121,98.067,48.42,98.198,48.663z"/>
	<path fill-rule="evenodd" clip-rule="evenodd" fill="#FFFFFF" d="M94.186,61.671c0.318,0,0.57-0.253,0.57-0.562
		c0-0.316-0.252-0.568-0.57-0.568c-0.308,0-0.561,0.252-0.561,0.568C93.625,61.418,93.878,61.671,94.186,61.671z"/>
	<path fill-rule="evenodd" clip-rule="evenodd" fill="#FFFFFF" d="M77.578,27.546c0.626,0,1.129-0.505,1.129-1.132
		c0-0.617-0.503-1.122-1.129-1.122s-1.132,0.505-1.132,1.122C76.446,27.041,76.952,27.546,77.578,27.546z"/>
	<path fill-rule="evenodd" clip-rule="evenodd" fill="#FFFFFF" d="M60.863,80.992c0.629,0,1.135-0.506,1.135-1.131
		c0-0.616-0.506-1.123-1.135-1.123c-0.626,0-1.129,0.507-1.129,1.123C59.734,80.486,60.237,80.992,60.863,80.992z"/>
	<path fill-rule="evenodd" clip-rule="evenodd" fill="#FFFFFF" d="M63.4,76.578c0.616,0,1.13-0.513,1.13-1.13
		c0-0.628-0.514-1.133-1.13-1.133c-0.626,0-1.135,0.505-1.135,1.133C62.266,76.065,62.774,76.578,63.4,76.578z"/>
	<path fill-rule="evenodd" clip-rule="evenodd" fill="#FFFFFF" d="M79.458,57.631c0.626,0,1.129-0.513,1.129-1.131
		c0-0.626-0.503-1.132-1.129-1.132c-0.628,0-1.134,0.506-1.134,1.132C78.324,57.118,78.83,57.631,79.458,57.631z"/>
	<path fill-rule="evenodd" clip-rule="evenodd" fill="#FFFFFF" d="M81.354,51.31c0.626,0,1.132-0.506,1.132-1.132
		c0-0.616-0.506-1.122-1.132-1.122c-0.616,0-1.129,0.505-1.129,1.122C80.226,50.804,80.738,51.31,81.354,51.31z"/>
	<path fill-rule="evenodd" clip-rule="evenodd" fill="#FFFFFF" d="M51.586,25.965c0.629,0,1.135-0.504,1.135-1.131
		c0-0.626-0.506-1.131-1.135-1.131c-0.616,0-1.12,0.505-1.12,1.131C50.466,25.461,50.97,25.965,51.586,25.965z"/>
</g>
</svg>
