<?xml version="1.0" encoding="utf-8"?>
<!-- Generator: Adobe Illustrator 16.0.0, SVG Export Plug-In . SVG Version: 6.00 Build 0)  -->
<!DOCTYPE svg PUBLIC "-//W3C//DTD SVG 1.1//EN" "http://www.w3.org/Graphics/SVG/1.1/DTD/svg11.dtd">
<svg version="1.1" id="Layer_1" xmlns="http://www.w3.org/2000/svg" xmlns:xlink="http://www.w3.org/1999/xlink" x="0px" y="0px"
	 width="100px" height="100px" viewBox="0 0 100 100" enable-background="new 0 0 100 100" xml:space="preserve">
<g id="Captions">
</g>
<g>
	<path fill-rule="evenodd" clip-rule="evenodd" fill="#FFFFFF" d="M8.65,56.204c-2.025,1.021-2.816,3.491-1.768,5.507
		c1.04,2.026,3.527,2.844,5.553,1.813c2.026-1.021,2.816-3.492,1.768-5.518C13.154,55.99,10.667,55.182,8.65,56.204z"/>
	<path fill-rule="evenodd" clip-rule="evenodd" fill="#FFFFFF" d="M78.557,13.739c-2.051,1.031-2.834,3.536-1.74,5.588
		c1.084,2.061,3.633,2.896,5.686,1.865c2.051-1.04,2.834-3.544,1.74-5.605C83.16,13.535,80.609,12.708,78.557,13.739z"/>
	<path fill-rule="evenodd" clip-rule="evenodd" fill="#FFFFFF" d="M31.961,78.352c-2.034,1.03-2.825,3.518-1.759,5.569
		c1.075,2.044,3.598,2.87,5.641,1.839c2.035-1.03,2.825-3.527,1.75-5.569C36.519,78.146,34.005,77.329,31.961,78.352z"/>
	<path fill-rule="evenodd" clip-rule="evenodd" fill="#FFFFFF" d="M30.327,75.783c0.24,0.472,0.817,0.657,1.279,0.427
		s0.631-0.8,0.391-1.271c-0.249-0.461-0.817-0.648-1.279-0.418C30.255,74.753,30.078,75.321,30.327,75.783z"/>
	<path fill-rule="evenodd" clip-rule="evenodd" fill="#FFFFFF" d="M32.023,13.232c0.409,0.32,1.004,0.249,1.324-0.151
		c0.32-0.409,0.249-1.004-0.16-1.324c-0.418-0.32-1.013-0.249-1.333,0.16C31.535,12.327,31.615,12.913,32.023,13.232z"/>
	<path fill-rule="evenodd" clip-rule="evenodd" fill="#FFFFFF" d="M31.384,7.28c0.231,0.462,0.791,0.648,1.253,0.418
		c0.453-0.231,0.63-0.791,0.4-1.253c-0.24-0.462-0.8-0.648-1.253-0.417S31.153,6.818,31.384,7.28z"/>
	<path fill-rule="evenodd" clip-rule="evenodd" fill="#FFFFFF" d="M48.61,8.177c0.417,0.32,1.013,0.258,1.333-0.151
		s0.239-0.995-0.169-1.314c-0.409-0.32-1.004-0.249-1.324,0.151C48.13,7.271,48.201,7.858,48.61,8.177z"/>
	<path fill-rule="evenodd" clip-rule="evenodd" fill="#FFFFFF" d="M47.455,86.959c0.249,0.472,0.826,0.658,1.288,0.427
		c0.462-0.23,0.64-0.8,0.391-1.27c-0.249-0.472-0.827-0.658-1.288-0.427C47.383,85.92,47.206,86.489,47.455,86.959z"/>
	<path fill-rule="evenodd" clip-rule="evenodd" fill="#FFFFFF" d="M43.102,83.148c0.249,0.471,0.817,0.658,1.288,0.427
		c0.462-0.232,0.631-0.809,0.391-1.271c-0.249-0.47-0.827-0.656-1.289-0.425C43.031,82.109,42.853,82.677,43.102,83.148z"/>
	<path fill-rule="evenodd" clip-rule="evenodd" fill="#FFFFFF" d="M16.406,65.318c0.302,0.578,1.013,0.809,1.59,0.524
		c0.568-0.293,0.791-0.995,0.488-1.572c-0.302-0.578-1.004-0.809-1.581-0.516C16.334,64.04,16.112,64.741,16.406,65.318z"/>
	<path fill-rule="evenodd" clip-rule="evenodd" fill="#FFFFFF" d="M15.571,55.387c0.24,0.462,0.799,0.648,1.261,0.408
		c0.453-0.231,0.631-0.79,0.391-1.243c-0.24-0.463-0.8-0.648-1.253-0.418C15.508,54.365,15.331,54.925,15.571,55.387z"/>
	<path fill-rule="evenodd" clip-rule="evenodd" fill="#FFFFFF" d="M9.965,69.413c0.24,0.463,0.808,0.649,1.271,0.419
		c0.462-0.231,0.631-0.792,0.391-1.262c-0.24-0.462-0.808-0.649-1.262-0.418C9.903,68.383,9.725,68.952,9.965,69.413z"/>
	<path fill-rule="evenodd" clip-rule="evenodd" fill="#FFFFFF" d="M13.119,70.009c0.24,0.462,0.809,0.648,1.271,0.418
		c0.453-0.23,0.631-0.8,0.391-1.262c-0.24-0.461-0.809-0.648-1.271-0.418C13.048,68.978,12.878,69.538,13.119,70.009z"/>
	<path fill-rule="evenodd" clip-rule="evenodd" fill="#FFFFFF" d="M82.084,43.446c0.238,0.471,0.799,0.657,1.262,0.427
		c0.461-0.231,0.641-0.8,0.398-1.262c-0.24-0.471-0.807-0.658-1.27-0.426C82.012,42.416,81.836,42.984,82.084,43.446z"/>
	<path fill-rule="evenodd" clip-rule="evenodd" fill="#FFFFFF" d="M35.062,90.531c0.24,0.471,0.808,0.656,1.271,0.426
		c0.461-0.231,0.639-0.799,0.399-1.271c-0.249-0.47-0.817-0.657-1.279-0.427C34.991,89.491,34.813,90.06,35.062,90.531z"/>
	<path fill-rule="evenodd" clip-rule="evenodd" fill="#FFFFFF" d="M41.396,92.529c0.24,0.463,0.817,0.657,1.279,0.427
		c0.462-0.231,0.64-0.809,0.4-1.279c-0.249-0.47-0.827-0.657-1.289-0.427S41.147,92.059,41.396,92.529z"/>
	<path fill-rule="evenodd" clip-rule="evenodd" fill="#FFFFFF" d="M19.319,61.275c0.24,0.463,0.809,0.649,1.271,0.419
		c0.454-0.231,0.631-0.792,0.391-1.262c-0.24-0.462-0.809-0.649-1.27-0.418C19.249,60.255,19.08,60.814,19.319,61.275z"/>
	<path fill-rule="evenodd" clip-rule="evenodd" fill="#FFFFFF" d="M78.141,39.777c0.238,0.462,0.809,0.657,1.26,0.427
		c0.463-0.231,0.641-0.8,0.4-1.262c-0.24-0.471-0.809-0.657-1.271-0.427C78.078,38.747,77.9,39.315,78.141,39.777z"/>
	<path fill-rule="evenodd" clip-rule="evenodd" fill="#FFFFFF" d="M25.201,77.303c0.249,0.462,0.817,0.648,1.279,0.418
		c0.462-0.231,0.63-0.799,0.391-1.263c-0.24-0.47-0.817-0.656-1.279-0.425C25.139,76.264,24.961,76.832,25.201,77.303z"/>
	<path fill-rule="evenodd" clip-rule="evenodd" fill="#FFFFFF" d="M24.063,64.208c0.24,0.462,0.809,0.649,1.271,0.417
		c0.462-0.23,0.64-0.799,0.391-1.261c-0.239-0.463-0.808-0.648-1.27-0.418C23.993,63.178,23.824,63.737,24.063,64.208z"/>
	<path fill-rule="evenodd" clip-rule="evenodd" fill="#FFFFFF" d="M5.159,42.638c0.231,0.462,0.799,0.649,1.253,0.418
		c0.462-0.231,0.64-0.791,0.399-1.253c-0.24-0.462-0.808-0.639-1.262-0.409C5.087,41.625,4.919,42.185,5.159,42.638z"/>
	<path fill-rule="evenodd" clip-rule="evenodd" fill="#FFFFFF" d="M8.393,43.225c0.23,0.462,0.799,0.648,1.252,0.417
		s0.631-0.791,0.4-1.253c-0.24-0.462-0.808-0.648-1.262-0.417C8.33,42.203,8.153,42.762,8.393,43.225z"/>
	<path fill-rule="evenodd" clip-rule="evenodd" fill="#FFFFFF" d="M11.404,40.062c0.24,0.462,0.8,0.64,1.262,0.409
		c0.453-0.23,0.631-0.79,0.391-1.244c-0.24-0.462-0.8-0.64-1.262-0.409C11.342,39.049,11.165,39.609,11.404,40.062z"/>
	<path fill-rule="evenodd" clip-rule="evenodd" fill="#FFFFFF" d="M2.467,48.937c0.24,0.462,0.8,0.64,1.262,0.409
		c0.453-0.231,0.631-0.791,0.391-1.253c-0.24-0.453-0.799-0.64-1.261-0.408C2.405,47.915,2.227,48.475,2.467,48.937z"/>
	<path fill-rule="evenodd" clip-rule="evenodd" fill="#FFFFFF" d="M72.986,89.35c0.24,0.453,0.809,0.639,1.262,0.408
		c0.463-0.23,0.631-0.791,0.4-1.253c-0.24-0.453-0.809-0.64-1.262-0.407C72.924,88.328,72.756,88.887,72.986,89.35z"/>
	<path fill-rule="evenodd" clip-rule="evenodd" fill="#FFFFFF" d="M55.076,89.35c0.24,0.453,0.809,0.639,1.262,0.408
		s0.631-0.791,0.393-1.253c-0.242-0.453-0.801-0.64-1.254-0.407C55.015,88.328,54.837,88.887,55.076,89.35z"/>
	<path fill-rule="evenodd" clip-rule="evenodd" fill="#FFFFFF" d="M21.496,51.176c0.24,0.461,0.799,0.648,1.262,0.417
		c0.453-0.231,0.63-0.79,0.391-1.252c-0.24-0.463-0.799-0.64-1.261-0.409C21.434,50.162,21.256,50.723,21.496,51.176z"/>
	<path fill-rule="evenodd" clip-rule="evenodd" fill="#FFFFFF" d="M7.673,32.617c0.125,0.231,0.399,0.32,0.631,0.204
		c0.222-0.116,0.311-0.391,0.195-0.622c-0.125-0.23-0.4-0.319-0.63-0.204C7.646,32.11,7.558,32.395,7.673,32.617z"/>
	<path fill-rule="evenodd" clip-rule="evenodd" fill="#FFFFFF" d="M5.79,36.517c0.24,0.454,0.799,0.64,1.252,0.409
		c0.462-0.23,0.631-0.79,0.399-1.252c-0.239-0.454-0.808-0.64-1.261-0.409C5.728,35.495,5.549,36.055,5.79,36.517z"/>
	<path fill-rule="evenodd" clip-rule="evenodd" fill="#FFFFFF" d="M34.6,19.727c0.906,0.479,2.035,0.142,2.514-0.755
		c0.489-0.897,0.133-2.016-0.781-2.496c-0.907-0.489-2.035-0.151-2.514,0.746C33.338,18.119,33.685,19.238,34.6,19.727z"/>
	<path fill-rule="evenodd" clip-rule="evenodd" fill="#FFFFFF" d="M24.304,13.552c0.906,0.48,2.034,0.151,2.523-0.746
		c0.479-0.906,0.133-2.025-0.782-2.505c-0.916-0.488-2.043-0.151-2.523,0.746C23.051,11.944,23.397,13.063,24.304,13.552z"/>
	<path fill-rule="evenodd" clip-rule="evenodd" fill="#FFFFFF" d="M17.756,52.081c0.249,0.462,0.809,0.649,1.271,0.418
		c0.462-0.23,0.63-0.791,0.391-1.252c-0.24-0.462-0.809-0.649-1.261-0.419C17.694,51.06,17.516,51.62,17.756,52.081z"/>
	<path fill-rule="evenodd" clip-rule="evenodd" fill="#FFFFFF" d="M86.225,31.444c0.248,0.471,0.824,0.666,1.287,0.427
		c0.471-0.231,0.641-0.8,0.391-1.271c-0.248-0.471-0.826-0.658-1.297-0.427C86.145,30.405,85.975,30.974,86.225,31.444z"/>
	<path fill-rule="evenodd" clip-rule="evenodd" fill="#FFFFFF" d="M58.914,94.538c0.25,0.471,0.826,0.666,1.299,0.425
		c0.461-0.23,0.639-0.808,0.391-1.278s-0.836-0.666-1.297-0.427C58.844,93.489,58.666,94.058,58.914,94.538z"/>
	<path fill-rule="evenodd" clip-rule="evenodd" fill="#FFFFFF" d="M72.195,84.747c0.25,0.472,0.836,0.657,1.297,0.427
		c0.463-0.239,0.641-0.809,0.391-1.279c-0.248-0.471-0.834-0.657-1.295-0.427C72.117,83.699,71.947,84.276,72.195,84.747z"/>
	<path fill-rule="evenodd" clip-rule="evenodd" fill="#FFFFFF" d="M17.383,36.863c0.125,0.231,0.4,0.32,0.631,0.205
		c0.231-0.116,0.32-0.391,0.195-0.622c-0.115-0.231-0.399-0.32-0.631-0.205C17.348,36.357,17.268,36.633,17.383,36.863z"/>
	<path fill-rule="evenodd" clip-rule="evenodd" fill="#FFFFFF" d="M20.972,45.081c0.124,0.231,0.399,0.319,0.631,0.204
		c0.23-0.115,0.319-0.391,0.195-0.621c-0.115-0.231-0.4-0.32-0.622-0.205C20.945,44.575,20.856,44.851,20.972,45.081z"/>
	<path fill-rule="evenodd" clip-rule="evenodd" fill="#FFFFFF" d="M61.793,89.35c0.24,0.453,0.809,0.639,1.262,0.408
		s0.631-0.791,0.391-1.253c-0.23-0.453-0.799-0.64-1.252-0.407C61.73,88.328,61.553,88.887,61.793,89.35z"/>
	<path fill-rule="evenodd" clip-rule="evenodd" fill="#FFFFFF" d="M4.457,55.404c0.116,0.23,0.4,0.319,0.631,0.204
		c0.222-0.116,0.311-0.391,0.196-0.622c-0.125-0.231-0.409-0.328-0.631-0.213C4.421,54.889,4.333,55.173,4.457,55.404z"/>
	<path fill-rule="evenodd" clip-rule="evenodd" fill="#FFFFFF" d="M44.434,91.828c0.116,0.23,0.4,0.319,0.631,0.204
		c0.222-0.116,0.311-0.391,0.195-0.622c-0.125-0.231-0.408-0.328-0.63-0.213C44.398,91.312,44.31,91.597,44.434,91.828z"/>
	<path fill-rule="evenodd" clip-rule="evenodd" fill="#FFFFFF" d="M55.095,94.493c0.115,0.23,0.399,0.319,0.63,0.205
		c0.223-0.117,0.311-0.392,0.197-0.623c-0.125-0.231-0.41-0.328-0.632-0.213C55.059,93.978,54.971,94.263,55.095,94.493z"/>
	<path fill-rule="evenodd" clip-rule="evenodd" fill="#FFFFFF" d="M85.619,39.173c0.125,0.231,0.408,0.329,0.641,0.213
		c0.221-0.116,0.311-0.4,0.195-0.631c-0.125-0.231-0.408-0.329-0.641-0.213C85.594,38.658,85.504,38.942,85.619,39.173z"/>
	<path fill-rule="evenodd" clip-rule="evenodd" fill="#FFFFFF" d="M78.211,81.834c0.123,0.23,0.408,0.328,0.629,0.213
		c0.232-0.116,0.322-0.399,0.205-0.632c-0.125-0.239-0.408-0.327-0.639-0.212C78.184,81.318,78.094,81.603,78.211,81.834z"/>
	<path fill-rule="evenodd" clip-rule="evenodd" fill="#FFFFFF" d="M20.91,76.139c0.125,0.239,0.409,0.329,0.64,0.214
		c0.222-0.116,0.311-0.4,0.195-0.631c-0.125-0.231-0.409-0.329-0.639-0.214C20.874,75.623,20.786,75.908,20.91,76.139z"/>
	<path fill-rule="evenodd" clip-rule="evenodd" fill="#FFFFFF" d="M22.278,55.439c0.115,0.223,0.4,0.32,0.622,0.204
		c0.231-0.114,0.32-0.399,0.195-0.63c-0.116-0.222-0.399-0.321-0.622-0.205C22.242,54.925,22.154,55.208,22.278,55.439z"/>
	<path fill-rule="evenodd" clip-rule="evenodd" fill="#FFFFFF" d="M21.914,79.63c0.125,0.23,0.409,0.33,0.64,0.205
		c0.231-0.115,0.32-0.399,0.196-0.631c-0.125-0.231-0.409-0.329-0.64-0.213C21.878,79.105,21.79,79.391,21.914,79.63z"/>
	<path fill-rule="evenodd" clip-rule="evenodd" fill="#FFFFFF" d="M13.536,50.128c0.124,0.23,0.4,0.319,0.631,0.203
		c0.231-0.115,0.32-0.399,0.195-0.622c-0.116-0.23-0.399-0.328-0.631-0.213C13.5,49.612,13.421,49.896,13.536,50.128z"/>
	<path fill-rule="evenodd" clip-rule="evenodd" fill="#FFFFFF" d="M15.953,44.237c0.125,0.23,0.4,0.319,0.63,0.204
		c0.231-0.115,0.32-0.391,0.196-0.622c-0.115-0.231-0.399-0.319-0.631-0.204C15.926,43.73,15.837,44.006,15.953,44.237z"/>
	<path fill-rule="evenodd" clip-rule="evenodd" fill="#FFFFFF" d="M16.61,80.971c0.124,0.232,0.409,0.33,0.64,0.214
		c0.222-0.114,0.311-0.399,0.195-0.639c-0.124-0.231-0.408-0.329-0.64-0.204C16.575,80.456,16.485,80.731,16.61,80.971z"/>
	<path fill-rule="evenodd" clip-rule="evenodd" fill="#FFFFFF" d="M19.435,70.88c0.489,0.934,1.625,1.315,2.549,0.844
		c0.924-0.462,1.271-1.59,0.782-2.523c-0.479-0.932-1.625-1.305-2.541-0.844C19.302,68.827,18.955,69.956,19.435,70.88z"/>
	<path fill-rule="evenodd" clip-rule="evenodd" fill="#FFFFFF" d="M86.445,25.066c0.57,1.093,1.902,1.528,2.984,0.986
		c1.076-0.542,1.494-1.875,0.934-2.958c-0.568-1.092-1.9-1.537-2.984-0.995C86.303,22.649,85.887,23.973,86.445,25.066z"/>
	<path fill-rule="evenodd" clip-rule="evenodd" fill="#FFFFFF" d="M48.494,94.556c0.578,1.102,1.928,1.546,3.02,1.003
		c1.094-0.55,1.512-1.892,0.926-2.993c-0.578-1.094-1.928-1.546-3.021-0.995C48.334,92.121,47.917,93.454,48.494,94.556z"/>
	<path fill-rule="evenodd" clip-rule="evenodd" fill="#FFFFFF" d="M91.51,34.385c0.561,1.075,1.875,1.51,2.949,0.969
		c1.076-0.542,1.492-1.857,0.934-2.932c-0.561-1.075-1.885-1.51-2.949-0.968C91.367,32.004,90.949,33.31,91.51,34.385z"/>
	<path fill-rule="evenodd" clip-rule="evenodd" fill="#FFFFFF" d="M7.033,50.917c0.479,0.925,1.608,1.289,2.523,0.827
		c0.915-0.463,1.271-1.582,0.791-2.506c-0.48-0.915-1.608-1.288-2.523-0.826C6.909,48.874,6.553,49.994,7.033,50.917z"/>
	<path fill-rule="evenodd" clip-rule="evenodd" fill="#FFFFFF" d="M78.094,30.13c0.668,1.27,2.24,1.785,3.52,1.146
		c1.27-0.648,1.768-2.203,1.092-3.473c-0.666-1.271-2.248-1.786-3.518-1.138C77.918,27.305,77.42,28.859,78.094,30.13z"/>
	<path fill-rule="evenodd" clip-rule="evenodd" fill="#FFFFFF" d="M9.272,37.281c0.622,0.809,1.777,0.977,2.576,0.373
		c0.809-0.604,0.951-1.759,0.329-2.568c-0.622-0.808-1.777-0.977-2.576-0.364C8.801,35.327,8.65,36.473,9.272,37.281z"/>
	<path fill-rule="evenodd" clip-rule="evenodd" fill="#FFFFFF" d="M39.042,12.495c0.906,0.489,2.035,0.151,2.523-0.747
		c0.48-0.897,0.134-2.025-0.782-2.505c-0.915-0.479-2.043-0.142-2.522,0.755C37.789,10.896,38.136,12.016,39.042,12.495z"/>
	<path fill-rule="evenodd" clip-rule="evenodd" fill="#FFFFFF" d="M41.325,5.22c0.48,0.924,1.617,1.306,2.532,0.834
		c0.915-0.461,1.271-1.59,0.791-2.514c-0.489-0.924-1.617-1.297-2.532-0.835C41.2,3.176,40.845,4.295,41.325,5.22z"/>
	<path fill-rule="evenodd" clip-rule="evenodd" fill="#FFFFFF" d="M14.425,76.743c0.479,0.925,1.625,1.306,2.541,0.845
		c0.924-0.464,1.271-1.6,0.791-2.532c-0.488-0.925-1.625-1.306-2.541-0.845C14.291,74.673,13.945,75.811,14.425,76.743z"/>
	<path fill-rule="evenodd" clip-rule="evenodd" fill="#FFFFFF" d="M27.919,69.805c0.489,0.933,1.626,1.306,2.55,0.844
		c0.924-0.471,1.271-1.6,0.782-2.531c-0.489-0.934-1.625-1.307-2.55-0.845C27.777,67.744,27.43,68.872,27.919,69.805z"/>
	<path fill-rule="evenodd" clip-rule="evenodd" fill="#FFFFFF" d="M21.967,84.205c0.489,0.934,1.626,1.315,2.55,0.854
		c0.924-0.463,1.279-1.6,0.791-2.533c-0.488-0.94-1.625-1.322-2.549-0.852C21.833,82.136,21.479,83.272,21.967,84.205z"/>
	<path fill-rule="evenodd" clip-rule="evenodd" fill="#FFFFFF" d="M16.681,41.616c0.471,0.916,1.599,1.279,2.514,0.817
		c0.906-0.462,1.262-1.581,0.782-2.497c-0.471-0.915-1.599-1.279-2.505-0.817C16.557,39.582,16.202,40.701,16.681,41.616z"/>
	<path fill-rule="evenodd" clip-rule="evenodd" fill="#FFFFFF" d="M65.488,89.624c0.488,0.942,1.635,1.324,2.559,0.862
		c0.924-0.471,1.279-1.608,0.791-2.55s-1.643-1.323-2.566-0.861C65.346,87.546,65,88.683,65.488,89.624z"/>
	<path fill-rule="evenodd" clip-rule="evenodd" fill="#FFFFFF" d="M40.134,87.377c0.249,0.462,0.827,0.658,1.288,0.427
		c0.462-0.241,0.64-0.809,0.391-1.28c-0.249-0.461-0.817-0.656-1.279-0.425C40.063,86.338,39.895,86.906,40.134,87.377z"/>
	<path fill-rule="evenodd" clip-rule="evenodd" fill="#FFFFFF" d="M10.782,47.054c0.24,0.462,0.809,0.648,1.261,0.417
		c0.462-0.23,0.631-0.8,0.391-1.252c-0.24-0.462-0.8-0.648-1.262-0.418C10.72,46.031,10.542,46.592,10.782,47.054z"/>
	<path fill-rule="evenodd" clip-rule="evenodd" fill="#FFFFFF" d="M22.562,13.65c0.719,0.169,9.852,9.399,13.405,12.109
		c1.395,1.066,7.613,6.609,8.698,6.609c1.083,0,1.812-1.954,2.531-3.305c0.729-1.342,2.115-3.731,2.452-4.682
		c0.453-1.279,1.174-2.781,1.538-3.758c0.364-0.978,2.896-4.318,3.624-5.784c0.719-1.466,2.656-6.698,3.625-8.164
		c0.969-1.475,0.906-1.848,2.123-2.23c2.514-0.791,15.902,5.259,16.105,6.734c0.08,0.524-2.531,4.299-3.375,5.401
		c-0.844,1.101-2.051,3.917-2.896,5.143c-0.852,1.227-1.848,4.255-2.807,5.233c-0.969,0.978-1.787,3.456-1.91,5.046
		c-0.115,1.59-0.48,6.236-0.355,6.609c0.115,0.364,0.355,0.729,0.719,2.203c0.365,1.466,0.729,4.77,0.729,4.77
		s3.67,3.163,3.98,4.034c0.641,1.75,0,3.064,0,3.678s1.572,1.954,1.447,2.932c-0.115,0.986-0.719,1.964-1.803,2.203
		c-1.092,0.248-3.26-1.466-3.26-1.466s0.604,3.767,0.719,5.598c0.125,1.838-1.447,4.806-1.812,5.907
		c-0.363,1.101,0,3.544-0.24,3.793c-0.238,0.24-0.363,0.853-1.572,0.853c-1.207,0-2.416-1.226-2.895-2.566
		c-0.48-1.352-0.453-4.834-0.09-5.321c0.365-0.489,0.328-2.027,0.09-2.027c-0.24,0-1.814,0.373-1.814,0.373s-0.176,1.13-0.541,2.106
		c-0.363,0.986-1.146,1.688-1.99,1.928c-0.852,0.248-1.811,0-2.176,0c-0.363,0,0.24,1.84,0,2.691
		c-0.24,0.862-0.845,1.591-1.938,1.715c-1.438,0.17-2.051,0.373-2.051,0.373s1.093,0.605,1.093,1.466
		c0,0.854-0.303,1.714-1.271,1.839c-0.97,0.116-1.751,0.364-2.719-0.373c-0.968-0.729-2.532-2.203-2.532-2.203
		s0.302,0.737,0.178,1.839s-0.24,2.381-1.448,2.381c-1.208,0-1.99-0.55-2.718-1.279c-0.729-0.737-1.448-1.839-1.448-2.567v-2.203
		c0,0-1.057-0.062-1.448-0.736c-0.817-1.378-2.568-2.053-2.452-3.029c0.125-0.978,0.755-0.978,0.276-1.102
		c-0.48-0.125-0.604-0.339-1.084-1.19c-0.489-0.862-1.333-2.027-1.812-2.755c-0.489-0.737-0.729-1.59-0.364-1.838
		c0.364-0.241-0.364-1.343-1.084-2.204c-0.551-0.641-1.004-2.754-1.092-3.306c-0.213-1.332,1.936-4.521,2.176-4.77
		c0.24-0.239,0.844-1.466,0-2.932c-0.844-1.476-6.156-5.393-8.697-6.983c-2.532-1.59-10.75-6.726-12.917-8.315
		c-2.177-1.59-2.799-1.893-3.029-2.195C7.558,28.771,19.773,12.993,22.562,13.65z"/>
	<path fill-rule="evenodd" clip-rule="evenodd" fill="#FFFFFF" d="M45.322,11.109c0.116,0.231,0.4,0.329,0.631,0.213
		c0.231-0.115,0.32-0.399,0.196-0.631c-0.116-0.23-0.4-0.328-0.631-0.213C45.287,10.594,45.198,10.878,45.322,11.109z"/>
	<path fill-rule="evenodd" clip-rule="evenodd" fill="#FFFFFF" d="M36.368,6.623c0.116,0.231,0.4,0.329,0.631,0.214
		c0.231-0.116,0.32-0.4,0.195-0.631c-0.115-0.24-0.4-0.329-0.631-0.213C36.333,6.108,36.244,6.392,36.368,6.623z"/>
	<path fill-rule="evenodd" clip-rule="evenodd" fill="#FFFFFF" d="M52.038,3.256c0.125,0.23,0.401,0.328,0.632,0.213
		c0.23-0.125,0.319-0.4,0.203-0.631c-0.123-0.24-0.408-0.329-0.639-0.213C52.004,2.741,51.915,3.025,52.038,3.256z"/>
	<path fill-rule="evenodd" clip-rule="evenodd" fill="#FFFFFF" d="M56.518,5.503c0.123,0.231,0.398,0.32,0.629,0.205
		s0.32-0.4,0.205-0.631c-0.125-0.231-0.408-0.329-0.641-0.204C56.48,4.988,56.393,5.264,56.518,5.503z"/>
	<path fill-rule="evenodd" clip-rule="evenodd" fill="#FFFFFF" d="M27.555,86.497c0.116,0.231,0.4,0.319,0.631,0.205
		c0.222-0.116,0.311-0.392,0.196-0.623c-0.125-0.23-0.409-0.328-0.631-0.212C27.519,85.982,27.43,86.267,27.555,86.497z"/>
</g>
</svg>
