<?xml version="1.0" encoding="utf-8"?>
<!-- Generator: Adobe Illustrator 16.0.0, SVG Export Plug-In . SVG Version: 6.00 Build 0)  -->
<!DOCTYPE svg PUBLIC "-//W3C//DTD SVG 1.1//EN" "http://www.w3.org/Graphics/SVG/1.1/DTD/svg11.dtd">
<svg version="1.1" id="Layer_1" xmlns="http://www.w3.org/2000/svg" xmlns:xlink="http://www.w3.org/1999/xlink" x="0px" y="0px"
	 width="100px" height="100px" viewBox="0 0 100 100" enable-background="new 0 0 100 100" xml:space="preserve">
<g id="Captions">
</g>
<g id="Layer_1_1_">
	<path fill="#FCFCFC" d="M82.188,52.398c0.713,0,1.278-0.576,1.278-1.277c0-0.712-0.565-1.278-1.278-1.278
		c-0.701,0-1.277,0.566-1.277,1.278C80.911,51.822,81.487,52.398,82.188,52.398z"/>
	<path fill="#FCFCFC" d="M83.57,6.583c0.35,0,0.643-0.283,0.643-0.634c0-0.362-0.294-0.644-0.643-0.644
		c-0.351,0-0.635,0.282-0.635,0.644C82.936,6.3,83.219,6.583,83.57,6.583z"/>
	<path fill="#FCFCFC" d="M84.113,25.972c0.35,0,0.643-0.294,0.643-0.645s-0.294-0.635-0.643-0.635c-0.352,0-0.635,0.284-0.635,0.635
		C83.479,25.679,83.762,25.972,84.113,25.972z"/>
	<path fill="#FCFCFC" d="M89.361,47.285c0.362,0,0.645-0.294,0.645-0.645c0-0.351-0.282-0.635-0.645-0.635
		c-0.351,0-0.634,0.283-0.634,0.635C88.728,46.991,89.01,47.285,89.361,47.285z"/>
	<path fill="#FCFCFC" d="M88.195,34.977c0.351,0,0.634-0.283,0.634-0.632c0-0.351-0.283-0.646-0.634-0.646
		c-0.362,0-0.644,0.294-0.644,0.646C87.552,34.693,87.833,34.977,88.195,34.977z"/>
	<path fill="#FCFCFC" d="M86.318,50.306c0.351,0,0.634-0.294,0.634-0.645s-0.283-0.644-0.634-0.644
		c-0.362,0-0.646,0.294-0.646,0.644C85.673,50.011,85.956,50.306,86.318,50.306z"/>
	<path fill="#FCFCFC" d="M84.18,60.171c1.414,0,2.567-1.155,2.567-2.569c0-1.401-1.153-2.556-2.567-2.556s-2.557,1.154-2.557,2.556
		C81.623,59.016,82.766,60.171,84.18,60.171z"/>
	<path fill="#FCFCFC" d="M83.637,34.819c1.414,0,2.567-1.143,2.567-2.557c0-1.414-1.153-2.557-2.567-2.557s-2.557,1.143-2.557,2.557
		C81.08,33.676,82.223,34.819,83.637,34.819z"/>
	<path fill="#FCFCFC" d="M61.283,38.077c0.701,0,1.278-0.577,1.278-1.29c0-0.701-0.577-1.278-1.278-1.278
		c-0.713,0-1.277,0.577-1.277,1.278C60.006,37.5,60.57,38.077,61.283,38.077z"/>
	<path fill="#FCFCFC" d="M64.96,40.125c0.713,0,1.29-0.577,1.29-1.279c0-0.701-0.577-1.278-1.29-1.278
		c-0.701,0-1.277,0.577-1.277,1.278C63.682,39.547,64.259,40.125,64.96,40.125z"/>
	<path fill="#FCFCFC" d="M59.169,17.668c0.7,0,1.277-0.577,1.277-1.278c0-0.712-0.577-1.278-1.277-1.278
		c-0.714,0-1.28,0.566-1.28,1.278C57.889,17.092,58.455,17.668,59.169,17.668z"/>
	<path fill="#FCFCFC" d="M52.64,22.035c0.713,0,1.279-0.576,1.279-1.277c0-0.713-0.566-1.279-1.279-1.279
		c-0.701,0-1.278,0.566-1.278,1.279C51.361,21.459,51.938,22.035,52.64,22.035z"/>
	<path fill="#FCFCFC" d="M36.6,20.396c0.712,0,1.278-0.566,1.278-1.278c0-0.702-0.566-1.278-1.278-1.278
		c-0.702,0-1.277,0.577-1.277,1.278C35.322,19.83,35.897,20.396,36.6,20.396z"/>
	<path fill="#FCFCFC" d="M27.357,37.33c0.713,0,1.278-0.577,1.278-1.278c0-0.711-0.566-1.277-1.278-1.277
		c-0.701,0-1.278,0.566-1.278,1.277C26.079,36.753,26.656,37.33,27.357,37.33z"/>
	<path fill="#FCFCFC" d="M27.628,23.132c0.713,0,1.278-0.577,1.278-1.289c0-0.702-0.566-1.279-1.278-1.279
		c-0.701,0-1.278,0.577-1.278,1.279C26.351,22.556,26.927,23.132,27.628,23.132z"/>
	<path fill="#FCFCFC" d="M39.269,39.412c0.351,0,0.645-0.283,0.645-0.634c0-0.35-0.294-0.644-0.645-0.644s-0.645,0.294-0.645,0.644
		C38.625,39.128,38.918,39.412,39.269,39.412z"/>
	<path fill="#FCFCFC" d="M63.468,10.474c0.352,0,0.634-0.282,0.634-0.644c0-0.352-0.282-0.635-0.634-0.635
		c-0.351,0-0.646,0.282-0.646,0.635C62.822,10.192,63.117,10.474,63.468,10.474z"/>
	<path fill="#FCFCFC" d="M69.721,11.573c0.352,0,0.635-0.295,0.635-0.646c0-0.35-0.283-0.645-0.635-0.645
		c-0.361,0-0.643,0.295-0.643,0.645C69.078,11.277,69.361,11.573,69.721,11.573z"/>
	<path fill="#FCFCFC" d="M79.779,16.753c0.352,0,0.634-0.283,0.634-0.635c0-0.362-0.282-0.645-0.634-0.645
		c-0.362,0-0.645,0.283-0.645,0.645C79.135,16.47,79.417,16.753,79.779,16.753z"/>
	<path fill="#FCFCFC" d="M33.885,45.441c0.35,0,0.644-0.294,0.644-0.645c0-0.351-0.294-0.635-0.644-0.635
		c-0.352,0-0.646,0.283-0.646,0.635C33.239,45.147,33.534,45.441,33.885,45.441z"/>
	<path fill="#FCFCFC" d="M67.312,28.234c0.352,0,0.646-0.282,0.646-0.634c0-0.363-0.294-0.645-0.646-0.645
		c-0.35,0-0.633,0.282-0.633,0.645C66.68,27.952,66.962,28.234,67.312,28.234z"/>
	<path fill="#FCFCFC" d="M62.867,45.702c0.363,0,0.646-0.294,0.646-0.644c0-0.351-0.282-0.634-0.646-0.634
		c-0.351,0-0.634,0.282-0.634,0.634C62.234,45.407,62.517,45.702,62.867,45.702z"/>
	<path fill="#FCFCFC" d="M57.551,10.542c1.414,0,2.568-1.155,2.568-2.557c0-1.415-1.154-2.568-2.568-2.568s-2.558,1.154-2.558,2.568
		C54.995,9.387,56.137,10.542,57.551,10.542z"/>
	<path fill="#FCFCFC" d="M75.966,31.277c1.143,0,2.071-0.928,2.071-2.069c0-1.155-0.929-2.082-2.071-2.082
		c-1.152,0-2.081,0.927-2.081,2.082C73.887,30.35,74.813,31.277,75.966,31.277z"/>
	<path fill="#FCFCFC" d="M40.502,50.271c1.154,0,2.082-0.929,2.082-2.082c0-1.144-0.928-2.069-2.082-2.069
		c-1.143,0-2.071,0.927-2.071,2.069C38.433,49.343,39.36,50.271,40.502,50.271z"/>
	<path fill="#FCFCFC" d="M40.751,14.999c1.652,0,2.986-1.345,2.986-2.999c0-1.662-1.334-3.009-2.986-3.009S37.752,10.338,37.752,12
		C37.753,13.653,39.099,14.999,40.751,14.999z"/>
	<path fill="#FCFCFC" d="M71.42,24.738c1.414,0,2.557-1.141,2.557-2.555c0-1.415-1.143-2.557-2.557-2.557s-2.567,1.142-2.567,2.557
		C68.853,23.597,70.006,24.738,71.42,24.738z"/>
	<path fill="#FCFCFC" d="M45.627,42.285c1.414,0,2.568-1.142,2.568-2.556s-1.154-2.555-2.568-2.555
		c-1.415,0-2.557,1.141-2.557,2.555S44.212,42.285,45.627,42.285z"/>
	<path fill="#FCFCFC" d="M67.438,34.57c0.35,0,0.632-0.283,0.632-0.635c0-0.35-0.282-0.644-0.632-0.644
		c-0.352,0-0.646,0.294-0.646,0.644C66.793,34.288,67.087,34.57,67.438,34.57z"/>
	<path fill="#FCFCFC" d="M43.534,29.185c0.712,0,1.278-0.577,1.278-1.278c0-0.712-0.566-1.278-1.278-1.278
		c-0.702,0-1.277,0.566-1.277,1.278C42.255,28.608,42.833,29.185,43.534,29.185z"/>
	<path fill="#FCFCFC" d="M44.71,35.046c0.702,0,1.278-0.577,1.278-1.278c0-0.702-0.577-1.279-1.278-1.279
		c-0.712,0-1.29,0.577-1.29,1.279C43.421,34.468,43.998,35.046,44.71,35.046z"/>
	<path fill="#FCFCFC" d="M59.19,49.04c0.702,0,1.278-0.578,1.278-1.279c0-0.713-0.576-1.278-1.278-1.278
		c-0.713,0-1.278,0.566-1.278,1.278C57.912,48.461,58.478,49.04,59.19,49.04z"/>
	<path fill="#FCFCFC" d="M18.454,21.651c0.712,0,1.29-0.566,1.29-1.279c0-0.701-0.578-1.279-1.29-1.279
		c-0.702,0-1.278,0.578-1.278,1.279C17.176,21.085,17.753,21.651,18.454,21.651z"/>
	<path fill="#FCFCFC" d="M50.695,30.656c0.362,0,0.645-0.283,0.645-0.635c0-0.351-0.282-0.645-0.645-0.645
		c-0.352,0-0.634,0.294-0.634,0.645C50.062,30.374,50.344,30.656,50.695,30.656z"/>
	<path fill="#FCFCFC" d="M51.949,46.052c0.352,0,0.646-0.294,0.646-0.645c0-0.351-0.294-0.633-0.646-0.633
		c-0.35,0-0.643,0.283-0.643,0.633C51.307,45.757,51.601,46.052,51.949,46.052z"/>
	<path fill="#FCFCFC" d="M25.118,41.188c0.701,0,1.277-0.577,1.277-1.278s-0.576-1.278-1.277-1.278c-0.713,0-1.28,0.577-1.28,1.278
		S24.404,41.188,25.118,41.188z"/>
	<path fill="#FCFCFC" d="M84.915,41.481c0.712,0,1.277-0.577,1.277-1.278c0-0.712-0.565-1.278-1.277-1.278
		c-0.702,0-1.278,0.566-1.278,1.278C83.637,40.905,84.213,41.481,84.915,41.481z"/>
	<path fill="#FCFCFC" d="M82.676,45.339c0.7,0,1.277-0.566,1.277-1.278c0-0.701-0.577-1.278-1.277-1.278
		c-0.714,0-1.278,0.577-1.278,1.278C81.397,44.774,81.962,45.339,82.676,45.339z"/>
	<path fill="#FCFCFC" d="M24.495,30.078c0.351,0,0.633-0.284,0.633-0.634c0-0.351-0.282-0.646-0.633-0.646s-0.644,0.294-0.644,0.646
		C23.851,29.796,24.145,30.078,24.495,30.078z"/>
	<path fill="#FCFCFC" d="M28.297,27.646c0.35,0,0.645-0.282,0.645-0.635c0-0.362-0.294-0.644-0.645-0.644
		c-0.351,0-0.633,0.282-0.633,0.644C27.664,27.364,27.946,27.646,28.297,27.646z"/>
	<path fill="#FCFCFC" d="M71.623,43.959c0.701,0,1.277-0.576,1.277-1.277c0-0.713-0.577-1.278-1.277-1.278
		c-0.713,0-1.278,0.566-1.278,1.278C70.345,43.383,70.91,43.959,71.623,43.959z"/>
	<path fill="#FCFCFC" d="M76.521,39.784c0.362,0,0.646-0.294,0.646-0.644c0-0.351-0.283-0.635-0.646-0.635
		c-0.351,0-0.632,0.283-0.632,0.635C75.889,39.491,76.17,39.784,76.521,39.784z"/>
	<path fill="#FCFCFC" d="M76.646,46.12c0.352,0,0.634-0.282,0.634-0.645c0-0.35-0.282-0.634-0.634-0.634
		c-0.351,0-0.645,0.283-0.645,0.634C76.001,45.838,76.295,46.12,76.646,46.12z"/>
	<path fill="#FCFCFC" d="M44.994,49.977c-0.011-0.135-0.046-0.271-0.102-0.396c-0.227,0.339-0.612,0.566-1.052,0.566
		c-0.701,0-1.278-0.555-1.29-1.255c-0.825,0.362-1.425,1.008-1.867,1.482c0.181,0.215,0.294,0.498,0.294,0.802
		c0,0.712-0.576,1.278-1.29,1.278c-0.191,0-0.385-0.046-0.553-0.124c-0.283,0.463-0.51,0.848-0.781,1.119
		c-0.837,0.836-2.522,3.225-3.145,3.688c-0.61,0.464-2.296,2.307-2.76,3.234c-0.464,0.918-2.071,2.659-2.296,2.772
		c-0.554,0.271-1.844-0.928-2.308-0.928c-0.463,0-1.991-0.929-1.843-1.381c0.159-0.464,0.464-1.232,0.464-2.772
		c0-1.537,0.689-2.308,0.689-2.624c0-0.305,0.465-2.069,0-3.145c-0.463-1.086-1.301-2.851-2.533-3.474
		c-1.222-0.611-1.686,0-1.845,0.929c-0.147,0.928-0.147,1.459-0.147,2.227c0,0.77-0.305,1.154-0.77,1.925
		c-0.463,0.771-1.402,3.496-1.9,4.162c-0.52,0.691-1.606,2.941-2.24,5.081c-0.227,0.747,0,1.685-0.464,3.225
		c-0.464,1.548-0.611,4.242-1.539,5.158c-0.656,0.666-1.844,1.616-2.149,1.774c-0.305,0.147-4.434,1.155-4.943,1.957
		c-0.656,1.02,3.723,5.046,6.787,8.429c0.804,0.688,4.185,4.378,5.533,3.925c0.69-0.228,3.371-2.467,4.605-3.236
		c1.221-0.769,4.83-0.836,7.126-1.606c2.309-0.779,5.612-2.002,7.908-2.93c2.308-0.928,6.323-4.265,7.682-5.08
		c0.758-0.463,2.295-2.081,2.602-2.85s2.454-4.458,2.309-5.081c-0.159-0.61,0.462-2.726-0.081-3.539
		c-0.304-0.454-1.232-0.69-1.685-0.386c-0.769,0.386-1.403,1.517-1.833,2.229c-0.385,0.622-0.938,1.618-0.938,1.618
		s0.396-1.063,1.255-2.658c0.329-0.622,1.233-1.696,1.357-1.878c0.611-0.927,1.073-2.001,1.686-3.234
		c0.712-1.415,0.498-2.559,0.237-2.771c-0.769-0.611-1.537-0.838-2.534,0.157c-1.392,1.392-4.842,6.742-4.842,6.312
		c0-0.769,1.686-2.976,2.195-3.642c0.576-0.748,1.866-2.897,2.239-3.746c0.305-0.688,0.633-1.537,0.633-2.467
		c0-0.768-0.858-1.346-1.549-1.287c-0.52,0.045-1.232,0.385-1.9,0.983c-0.577,0.521-1.923,3.234-2.534,4.152
		c-0.612,0.927-3.835,4.854-4.605,5.622c-0.77,0.77-1.38,1.764-1.844,1.764c-0.454,0-0.61-0.451-0.916-0.916
		c-0.306-0.464,2.918-4.614,3.676-5.543c0.769-0.927,2.25-4.141,2.839-4.854C44.88,51.754,45.072,50.747,44.994,49.977z"/>
	<path fill="#FCFCFC" d="M38.669,95.159c0.385-0.689,5.306-4.897,7.286-6.391c1.844-1.381,4.604-3.383,5.374-4.391
		c0.655-0.859,0-2.84,0.849-5.305c0.248-0.746,0.994-1.617,1.448-2.229c0.462-0.622,2.917-2.771,3.224-3.542
		c0.317-0.769,0.407-2.012,0.622-3.698c0.068-0.61,0.146-3.687,0.305-5.544c0.147-1.843-0.431-4.41,0.611-5.462
		c0.689-0.69,2.069-0.227,2.534,0.543c0.361,0.61,0.611,1.697,0.769,2.998c0.249,2.148,0.146,3.235,0.227,4.229
		c0.091,1.12-0.306,3.869,0.463,3.7c1.381-0.307,1.03,0.091,1.154-1.459c0.147-1.924,0.611-3.157,0.452-4.389
		c-0.147-1.233-0.226-2.771-0.226-4.312c0-1.538-0.103-4.74,0.146-5.689c0.237-0.849,0.701-1.312,1.312-1.471
		c1.414-0.35,2.081,0.984,2.454,2.309c0.307,1.086,0.307,3.393,0.465,4.311c0.147,0.927,0.531,2.771,0.385,3.856
		c-0.158,1.074,0.307,2.533,0.146,3.146c-0.146,0.622,1.074-2.149,1.074-3.529c0-1.391,0.159-3.541,0-4.773
		c-0.158-1.233-0.158-2.241-0.531-3.699c-0.395-1.493-0.26-2.512,0.611-3.383c0.463-0.465,1.911-0.159,2.07,0.146
		c0.464,0.928,0.996,1.086,1.459,2.387c0.408,1.178,0.69,3.665,0.69,5.079c0,1.392,0.159,3.927-0.08,6.007
		c0.08,0.77,0.929-2.002,0.997-1.617c0.079,0.385,0.057-3.076,0.079-3.688c0.022-0.734,0.066-1.154,0.034-1.923
		c-0.114-2.161-0.114-3.858-0.114-4.696c0.463-0.7,1.051-1.379,2.148-1.164c0.385,0.078,1.234,0.158,1.845,2.002
		c0.612,1.854,0.543,2.93,0.543,4.469c0,1.538-0.079,2.533-0.237,2.851c-0.092,0.191,1.23-0.386,2.611-1.087
		c0.838-0.419,2.41-0.261,2.919-0.067c1.222,0.452,2.614,2.636,1.528,2.997c-0.69,0.227-1.833,0.996-2.762,1.617
		c-0.689,0.454-1.222,0.997-1.844,2.534c-0.611,1.54-1.223,3.847-3.225,7.387c-1.99,3.542-3.676,4.933-5.056,6.936
		c-1.381,2.003-2.693,2.612-4.3,4.231c-1.697,1.697-3.268,6.48-3.992,6.842C56.85,96.393,46.498,96.234,38.669,95.159z"/>
	<path fill="#FCFCFC" d="M70.437,51.595c1.142,0,2.069-0.927,2.069-2.069c0-1.153-0.928-2.081-2.069-2.081
		c-1.144,0-2.071,0.928-2.071,2.081C68.365,50.668,69.292,51.595,70.437,51.595z"/>
	<path fill="#FCFCFC" d="M59.383,56.675c1.143,0,2.069-0.928,2.069-2.069c0-1.156-0.928-2.083-2.069-2.083s-2.068,0.927-2.068,2.083
		C57.312,55.747,58.24,56.675,59.383,56.675z"/>
	<circle fill="#FCFCFC" cx="58.331" cy="26.798" r="4.525"/>
</g>
</svg>
