<?xml version="1.0" encoding="utf-8"?>
<!-- Generator: Adobe Illustrator 16.0.0, SVG Export Plug-In . SVG Version: 6.00 Build 0)  -->
<!DOCTYPE svg PUBLIC "-//W3C//DTD SVG 1.1//EN" "http://www.w3.org/Graphics/SVG/1.1/DTD/svg11.dtd">
<svg version="1.1" id="Layer_1" xmlns="http://www.w3.org/2000/svg" xmlns:xlink="http://www.w3.org/1999/xlink" x="0px" y="0px"
	 width="200px" height="100px" viewBox="0 0 200 100" enable-background="new 0 0 200 100" xml:space="preserve">
<path fill="#017F85" d="M96.704,51.056c0,23.749-19.251,42.999-43,42.999c-23.748,0-43-19.25-43-42.999c0-23.749,19.252-43,43-43
	C77.453,8.056,96.704,27.307,96.704,51.056z M32.997,75.637c0,1.643,0.312,3.188,0.937,4.631c0.623,1.447,1.625,2.711,3.005,3.793
	c1.379,1.084,3.136,1.938,5.271,2.564c2.133,0.624,4.68,0.937,7.635,0.937c5.715,0,9.918-1.134,12.611-3.4
	c2.692-2.266,4.072-5.105,4.139-8.522V15.242H58.22v12.612v1.872c0,0.788-0.148,1.478-0.443,2.068
	c-0.296,0.592-0.64,1.118-1.035,1.577c-0.395,0.461-0.805,0.806-1.231,1.034c-0.428,0.232-0.773,0.412-1.034,0.542
	c-0.264,0.067-0.921,0.296-1.971,0.689c-1.051,0.395-2.266,0.838-3.645,1.331c-1.379,0.493-2.825,1.002-4.335,1.527
	c-1.512,0.526-2.857,0.984-4.04,1.379c-2.431,0.854-4.286,2.3-5.566,4.334c-1.281,2.037-1.922,4.303-1.922,6.798 M45.855,79.627
	c-1.084-0.359-1.938-0.836-2.562-1.428c-0.625-0.591-1.083-1.279-1.379-2.067c-0.295-0.789-0.477-1.608-0.542-2.464V53.272v-0.493
	c0-1.246,0.246-2.28,0.739-3.103c0.492-0.82,1.034-1.493,1.625-2.021c0.722-0.654,1.478-1.147,2.266-1.477
	c1.05-0.395,2.167-0.789,3.35-1.183c0.985-0.328,2.052-0.69,3.202-1.083c1.148-0.395,2.217-0.755,3.202-1.084
	c0.524-0.13,1.034-0.36,1.527-0.69c0.493-0.328,0.803-0.852,0.936-1.576v12.216v0.493V74.16c0,0.659-0.133,1.348-0.395,2.068
	c-0.263,0.723-0.707,1.38-1.33,1.971c-0.625,0.592-1.478,1.068-2.562,1.428c-1.083,0.363-2.447,0.542-4.089,0.542
	C48.269,80.169,46.938,79.99,45.855,79.627z M99.089,81.083c0,6.136,4.062,9.938,10.544,9.938c6.396,0,10.459-3.803,10.459-9.938
	V72.7c0-1.729-1.382-3.111-3.11-3.111h-2.248c-1.729,0-3.112,1.383-3.112,3.111v8.21c0,2.68-0.777,2.853-1.986,2.853
	c-1.298,0-2.074-0.173-2.074-2.853V27.324c0-3.112,0.949-3.63,2.074-3.63c1.036,0,1.986,0.518,1.986,3.63v12.187
	c0,1.729,1.383,3.111,3.112,3.111h2.248c1.729,0,3.11-1.382,3.11-3.111V26.373c0-6.05-4.062-9.939-10.459-9.939
	c-6.482,0-10.544,3.89-10.544,9.939V81.083z M136.168,65.784V80.91c0,2.68-0.777,2.853-1.988,2.853
	c-1.297,0-2.073-0.173-2.073-2.853V48.153h9.42c1.729,0,3.111-1.383,3.111-3.111V26.373c0-6.05-4.062-9.939-10.458-9.939
	c-6.482,0-10.544,3.89-10.544,9.939v54.71c0,6.136,4.062,9.938,10.544,9.938c6.396,0,10.458-3.803,10.458-9.938V65.784
	c0-1.728-1.383-3.111-3.111-3.111h-2.247C137.55,62.673,136.168,64.057,136.168,65.784z M136.168,41.24h-4.062V26.633
	c0-2.679,0.777-2.938,2.074-2.938c1.21,0,1.987,0.259,1.987,2.938V41.24L136.168,41.24z M151.294,90.33h2.249
	c1.727,0,3.11-1.381,3.11-3.111V28.621c0-1.729,0.086-3.631,2.247-3.631c1.729,0,1.815,1.902,1.815,3.631v51.684
	c0,1.729,1.384,3.112,3.111,3.112h2.248c1.728,0,3.111-1.384,3.111-3.112V27.151c0-6.223-0.086-10.717-6.482-10.717
	c-2.335,0-4.58,1.383-5.704,4.149h-0.346l-0.605-2.334c-0.174-0.604-0.692-1.037-1.298-1.037h-3.457
	c-1.729,0-3.112,1.383-3.112,3.112v66.895C148.182,88.949,149.565,90.33,151.294,90.33z M180.421,2.26l-4.926,3.025
	c-0.95,0.518-1.468,1.469-1.468,2.593v23.163h-1.125c-0.776,0-1.383,0.604-1.383,1.382v5.101c0,0.778,0.606,1.382,1.383,1.382h1.125
	v43.561c0,2.248,1.123,7.863,6.309,7.863h1.728c1.729,0,3.112-1.381,3.112-3.111v-3.888c0-0.434-0.434-0.864-0.864-0.864
	c-0.866,0-1.816-0.347-1.816-4.754V38.906h1.297c0.778,0,1.384-0.605,1.384-1.382v-5.101c0-0.778-0.605-1.382-1.384-1.382h-1.297
	V3.469c0-0.865-0.691-1.469-1.383-1.469C180.854,2,180.681,2.086,180.421,2.26z M74.498,56.438H87.29
	c0.778,0,1.382-0.604,1.382-1.382v-4.668c0-0.776-0.604-1.382-1.382-1.382H74.498c-0.778,0-1.383,0.605-1.383,1.382v4.668
	C73.115,55.835,73.72,56.438,74.498,56.438z"/>
</svg>
