<?xml version="1.0" encoding="utf-8"?>
<!-- Generator: Adobe Illustrator 16.0.0, SVG Export Plug-In . SVG Version: 6.00 Build 0)  -->
<!DOCTYPE svg PUBLIC "-//W3C//DTD SVG 1.1//EN" "http://www.w3.org/Graphics/SVG/1.1/DTD/svg11.dtd">
<svg version="1.1" id="Layer_1" xmlns="http://www.w3.org/2000/svg" xmlns:xlink="http://www.w3.org/1999/xlink" x="0px" y="0px"
	 width="100px" height="26px" viewBox="0 0 100 26" enable-background="new 0 0 100 26" xml:space="preserve">
<g>
	<path fill-rule="evenodd" clip-rule="evenodd" fill="#392D5B" d="M22.347,20.673l-8.661,4.875c-1.006,0.565-2.345,0.565-3.35,0
		l-8.661-4.875C0.669,20.107,0,18.978,0,17.846V8.098c0-1.131,0.669-2.262,1.675-2.827l8.661-4.875c1.005-0.566,2.344-0.565,3.35,0
		l8.661,4.875c1.005,0.564,1.674,1.696,1.674,2.827l0.001,9.748C24.022,18.978,23.352,20.107,22.347,20.673"/>
	<path fill-rule="evenodd" clip-rule="evenodd" fill="#EDF0F1" d="M21.802,20.268l-8.204,4.616c-0.954,0.537-2.222,0.537-3.174,0
		l-8.206-4.616c-0.952-0.536-1.586-1.607-1.586-2.679V8.354c0-1.071,0.634-2.142,1.586-2.677l8.206-4.619
		c0.953-0.536,2.22-0.536,3.174,0l8.205,4.618c0.952,0.535,1.586,1.607,1.586,2.678v9.235
		C23.389,18.661,22.755,19.732,21.802,20.268"/>
	<path fill-rule="evenodd" clip-rule="evenodd" fill="#392D5B" d="M12.368,7.692l4.196,2.312l1.651-0.927
		c0.168-0.095,0.384-0.037,0.482,0.129c0.099,0.166,0.042,0.378-0.125,0.473l-1.647,0.926v4.727l1.647,0.926
		c0.167,0.095,0.224,0.306,0.125,0.472c-0.098,0.168-0.314,0.226-0.482,0.131l-1.675-0.942l-4.173,2.328v1.905
		c0,0.188-0.16,0.342-0.357,0.342s-0.357-0.153-0.357-0.342v-1.905L7.481,15.92l-1.675,0.942c-0.168,0.095-0.384,0.037-0.482-0.131
		c-0.098-0.166-0.042-0.377,0.125-0.472l1.648-0.926v-4.727L5.449,9.679C5.281,9.584,5.226,9.372,5.324,9.206
		C5.422,9.04,5.638,8.982,5.806,9.077l1.651,0.927l4.196-2.312V5.785c0-0.188,0.16-0.343,0.357-0.343s0.357,0.154,0.357,0.343V7.692
		z"/>
	<path fill="#392D5B" d="M13.439,3.392c0,0.756-0.64,1.367-1.429,1.367s-1.428-0.611-1.428-1.367c0-0.756,0.639-1.37,1.428-1.37
		S13.439,2.635,13.439,3.392"/>
	<path fill="#392D5B" d="M13.439,22.546c0-0.757-0.64-1.368-1.429-1.368s-1.428,0.611-1.428,1.368c0,0.756,0.639,1.369,1.428,1.369
		S13.439,23.303,13.439,22.546"/>
	<path fill="#392D5B" d="M4.215,18.962c0.672-0.378,0.895-1.223,0.501-1.889c-0.395-0.666-1.258-0.9-1.93-0.522
		c-0.671,0.378-0.897,1.224-0.502,1.889C2.679,19.108,3.544,19.341,4.215,18.962"/>
	<path fill="#392D5B" d="M2.787,9.386c0.672,0.378,1.535,0.143,1.93-0.522c0.395-0.667,0.171-1.512-0.501-1.891
		C3.544,6.596,2.679,6.828,2.285,7.494C1.89,8.16,2.116,9.007,2.787,9.386"/>
	<path fill-rule="evenodd" clip-rule="evenodd" fill="#EDF0F1" d="M12.011,9.547c1.938,0,3.51,1.532,3.51,3.421
		c0,1.89-1.572,3.421-3.51,3.421c-1.938,0-3.51-1.531-3.51-3.421C8.501,11.079,10.073,9.547,12.011,9.547"/>
	<path fill-rule="evenodd" clip-rule="evenodd" fill="#392D5B" d="M12.011,10.916c-0.188,0-0.372,0.025-0.545,0.07
		c-0.188,0.048-0.379-0.06-0.43-0.241c-0.05-0.184,0.061-0.371,0.248-0.421c0.231-0.06,0.476-0.092,0.727-0.092
		s0.495,0.033,0.727,0.092c0.188,0.05,0.298,0.237,0.249,0.421c-0.05,0.182-0.243,0.29-0.431,0.241
		C12.383,10.941,12.199,10.916,12.011,10.916"/>
	<path fill-rule="evenodd" clip-rule="evenodd" fill="#392D5B" d="M12.011,15.022c-0.188,0-0.372-0.026-0.545-0.07
		c-0.188-0.048-0.379,0.06-0.43,0.241c-0.05,0.182,0.061,0.372,0.248,0.419c0.231,0.062,0.476,0.094,0.727,0.094
		s0.495-0.032,0.727-0.094c0.188-0.047,0.298-0.237,0.249-0.419c-0.05-0.182-0.243-0.29-0.431-0.241
		C12.383,14.997,12.199,15.022,12.011,15.022"/>
	<path fill-rule="evenodd" clip-rule="evenodd" fill="#392D5B" d="M13.834,11.942c-0.094-0.158-0.208-0.301-0.335-0.424
		c-0.137-0.135-0.137-0.351,0-0.483c0.138-0.134,0.359-0.134,0.497-0.001c0.17,0.167,0.32,0.355,0.446,0.567
		c0.125,0.211,0.218,0.434,0.28,0.66c0.051,0.181-0.061,0.369-0.248,0.418c-0.188,0.049-0.38-0.059-0.43-0.24
		C13.999,12.268,13.928,12.101,13.834,11.942"/>
	<path fill-rule="evenodd" clip-rule="evenodd" fill="#392D5B" d="M10.188,13.995c-0.095-0.159-0.164-0.327-0.211-0.495
		c-0.05-0.181-0.243-0.291-0.43-0.242c-0.187,0.05-0.298,0.237-0.248,0.421c0.062,0.225,0.155,0.448,0.281,0.659
		c0.125,0.212,0.276,0.402,0.446,0.567c0.137,0.134,0.359,0.134,0.496,0c0.137-0.134,0.137-0.35,0-0.483
		C10.395,14.297,10.281,14.153,10.188,13.995"/>
	<path fill-rule="evenodd" clip-rule="evenodd" fill="#392D5B" d="M13.834,13.995c0.094-0.159,0.164-0.327,0.21-0.495
		c0.05-0.181,0.242-0.291,0.43-0.242c0.187,0.05,0.298,0.237,0.248,0.421c-0.062,0.225-0.155,0.448-0.28,0.659
		c-0.126,0.212-0.277,0.402-0.446,0.567c-0.137,0.134-0.359,0.134-0.497,0c-0.137-0.134-0.137-0.35,0-0.483
		C13.626,14.297,13.74,14.153,13.834,13.995"/>
	<path fill-rule="evenodd" clip-rule="evenodd" fill="#392D5B" d="M10.188,11.942c0.093-0.158,0.208-0.301,0.334-0.424
		c0.137-0.135,0.137-0.351,0-0.483c-0.137-0.134-0.359-0.134-0.496-0.001c-0.17,0.167-0.321,0.355-0.446,0.567
		c-0.126,0.211-0.218,0.434-0.281,0.66c-0.05,0.181,0.061,0.369,0.248,0.418c0.188,0.049,0.38-0.059,0.43-0.24
		C10.023,12.268,10.093,12.101,10.188,11.942"/>
	<path fill="#392D5B" d="M21.235,9.386c-0.673,0.378-1.536,0.143-1.93-0.522c-0.394-0.667-0.171-1.512,0.501-1.891
		c0.671-0.377,1.537-0.143,1.931,0.522C22.131,8.161,21.906,9.007,21.235,9.386"/>
	<path fill="#392D5B" d="M19.806,18.962c-0.672-0.378-0.895-1.224-0.501-1.89c0.395-0.665,1.257-0.899,1.93-0.521
		c0.671,0.376,0.896,1.224,0.501,1.889C21.343,19.108,20.478,19.341,19.806,18.962"/>
	<path fill="#392D5B" d="M64.918,13.696h-1.404v2.009h-0.868v-5.467c0.627,0,1.71,0,2.336,0c2.307,0,2.618,2.584,0.895,3.283
		l1.285,2.184h-0.978l-1.146-2.012C64.999,13.694,64.958,13.696,64.918,13.696 M63.514,10.983v1.908h1.5
		c1.467,0,1.451-1.908-0.018-1.908H63.514z"/>
	<path fill="#392D5B" d="M60.799,11.569c-0.505-0.414-1.089-0.643-1.752-0.643c-1.258,0-2.11,0.842-2.11,2.065
		c0,1.15,0.808,2.036,2.012,2.036c0.702,0,1.31-0.192,1.843-0.631v0.943c-0.529,0.363-1.129,0.51-1.771,0.51
		c-1.719,0-3.05-1.158-3.05-2.867c0-1.696,1.354-2.876,3.035-2.876c0.675,0,1.287,0.197,1.844,0.565L60.799,11.569z"/>
	<path fill="#392D5B" d="M54.867,12.982L54.867,12.982c0,0.388-0.075,0.756-0.227,1.102c-0.152,0.347-0.374,0.655-0.665,0.925
		c-0.293,0.271-0.625,0.48-0.993,0.625c-0.37,0.143-0.757,0.215-1.161,0.215c-0.412,0-0.803-0.072-1.177-0.218
		c-0.373-0.145-0.702-0.353-0.988-0.622c-0.291-0.271-0.512-0.579-0.663-0.92c-0.149-0.345-0.226-0.712-0.226-1.106
		c0-0.392,0.077-0.76,0.226-1.104c0.15-0.347,0.372-0.657,0.663-0.931c0.291-0.272,0.622-0.479,0.99-0.619
		c0.368-0.142,0.759-0.213,1.175-0.213c0.41,0,0.798,0.071,1.166,0.213c0.368,0.14,0.696,0.347,0.987,0.619
		c0.292,0.276,0.513,0.589,0.665,0.935C54.792,12.23,54.867,12.596,54.867,12.982 M53.901,12.982c0-0.275-0.053-0.538-0.158-0.788
		c-0.105-0.248-0.255-0.471-0.455-0.664c-0.191-0.193-0.415-0.339-0.666-0.442c-0.254-0.103-0.521-0.156-0.8-0.156
		c-0.282,0-0.549,0.051-0.803,0.153c-0.251,0.103-0.478,0.25-0.675,0.445c-0.197,0.191-0.349,0.411-0.452,0.659
		c-0.104,0.251-0.156,0.515-0.156,0.792c0,0.277,0.052,0.538,0.156,0.787c0.104,0.244,0.255,0.466,0.452,0.66
		c0.197,0.194,0.422,0.342,0.675,0.445c0.251,0.1,0.519,0.153,0.803,0.153c0.276,0,0.543-0.053,0.791-0.153
		c0.251-0.103,0.477-0.251,0.676-0.445c0.199-0.193,0.35-0.416,0.455-0.663C53.848,13.518,53.901,13.255,53.901,12.982z"/>
	<path fill="#392D5B" d="M95.147,12.982L95.147,12.982c0,0.388-0.076,0.756-0.227,1.102c-0.154,0.347-0.375,0.655-0.665,0.925
		c-0.295,0.271-0.625,0.48-0.995,0.625c-0.368,0.143-0.754,0.215-1.161,0.215c-0.412,0-0.802-0.072-1.174-0.218
		c-0.374-0.145-0.703-0.353-0.989-0.622c-0.292-0.271-0.513-0.579-0.662-0.92c-0.151-0.345-0.226-0.712-0.226-1.106
		c0-0.392,0.075-0.76,0.226-1.104c0.149-0.347,0.371-0.657,0.662-0.931c0.292-0.272,0.621-0.479,0.99-0.619
		c0.369-0.142,0.76-0.213,1.173-0.213c0.412,0,0.801,0.071,1.167,0.213c0.368,0.14,0.697,0.347,0.988,0.619
		c0.291,0.276,0.511,0.589,0.665,0.935C95.071,12.23,95.147,12.596,95.147,12.982 M94.181,12.982c0-0.275-0.054-0.538-0.159-0.788
		c-0.104-0.248-0.255-0.471-0.453-0.664c-0.193-0.193-0.416-0.339-0.668-0.442c-0.254-0.103-0.521-0.156-0.801-0.156
		s-0.548,0.051-0.8,0.153c-0.253,0.103-0.48,0.25-0.677,0.445c-0.196,0.191-0.349,0.411-0.452,0.659
		c-0.105,0.251-0.155,0.515-0.155,0.792c0,0.277,0.05,0.538,0.155,0.787c0.103,0.244,0.255,0.466,0.452,0.66
		c0.196,0.194,0.421,0.342,0.675,0.445c0.251,0.1,0.519,0.153,0.802,0.153c0.278,0,0.543-0.053,0.793-0.153
		c0.25-0.103,0.476-0.251,0.677-0.445c0.198-0.193,0.349-0.416,0.453-0.663C94.127,13.518,94.181,13.255,94.181,12.982z"/>
	<path fill="#392D5B" d="M98.522,12.537c-0.026-0.012-0.066-0.028-0.114-0.052c-0.645-0.283-0.967-0.589-0.967-0.917
		c0-0.21,0.072-0.377,0.22-0.501c0.146-0.123,0.344-0.186,0.594-0.186c0.177,0,0.333,0.039,0.469,0.119
		c0.139,0.079,0.263,0.203,0.376,0.375l0.725-0.358c-0.11-0.291-0.304-0.514-0.589-0.67c-0.282-0.155-0.635-0.233-1.055-0.233
		c-0.512,0-0.925,0.137-1.242,0.413c-0.314,0.277-0.473,0.637-0.473,1.084c0,0.344,0.105,0.635,0.314,0.872
		c0.208,0.237,0.628,0.503,1.256,0.797c0.042,0.018,0.101,0.045,0.18,0.081c0.554,0.252,0.833,0.539,0.833,0.86
		c0,0.245-0.082,0.443-0.244,0.587c-0.163,0.148-0.382,0.222-0.658,0.222c-0.289,0-0.529-0.064-0.717-0.192
		c-0.186-0.128-0.315-0.314-0.386-0.557l-0.738,0.327c0.094,0.399,0.298,0.707,0.609,0.92c0.312,0.213,0.707,0.32,1.194,0.32
		c0.58,0,1.038-0.151,1.379-0.457c0.341-0.305,0.511-0.717,0.511-1.234c0-0.355-0.105-0.652-0.314-0.891
		C99.474,13.032,99.087,12.787,98.522,12.537"/>
	<path fill="#392D5B" d="M33.351,13.884L33.351,13.884c-0.106,0.262-0.268,0.483-0.484,0.661c-0.159,0.129-0.346,0.22-0.559,0.275
		c-0.214,0.054-0.537,0.081-0.964,0.081h-0.78v-3.868h0.336h0.335c0.478,0,0.831,0.026,1.054,0.083
		c0.224,0.054,0.418,0.148,0.578,0.277c0.216,0.176,0.377,0.395,0.484,0.658c0.109,0.262,0.164,0.568,0.164,0.916
		C33.514,13.316,33.46,13.622,33.351,13.884 M33.477,10.749c-0.251-0.184-0.541-0.313-0.872-0.394
		c-0.332-0.077-0.903-0.117-1.718-0.117h-1.25v5.467h1.25h0.25c0.674,0,1.167-0.039,1.487-0.118
		c0.318-0.077,0.601-0.209,0.853-0.392c0.329-0.245,0.579-0.555,0.749-0.93c0.17-0.374,0.255-0.804,0.255-1.29
		c0-0.483-0.085-0.916-0.255-1.294C34.056,11.302,33.805,10.992,33.477,10.749z"/>
	<polygon fill="#392D5B" points="40.105,10.991 40.105,10.238 36.082,10.238 36.082,10.244 35.849,10.244 35.849,15.711 
		36.775,15.711 36.775,15.705 40.105,15.705 40.105,14.953 36.775,14.953 36.775,13.348 38.988,13.348 38.988,12.595 36.775,12.595 
		36.775,10.991 	"/>
	<path fill="#392D5B" d="M84.681,10.238h-0.941l-1.17,2.172c-0.031,0.075-0.164,0.266-0.207,0.394
		c-0.043-0.128-0.174-0.318-0.207-0.394l-1.17-2.172h-0.942l1.854,3.379v2.088h0.928v-2.088L84.681,10.238z"/>
	<polygon fill="#392D5B" points="44.799,15.705 44.108,15.705 42.41,11.778 42.518,12.561 42.518,15.705 41.591,15.705 
		41.591,10.238 42.563,10.238 44.454,14.551 46.345,10.238 47.316,10.238 47.316,15.705 46.39,15.705 46.39,12.561 46.499,11.778 	
		"/>
	<path fill="#392D5B" d="M69.687,14.297l-0.539,1.408H68.17l2.198-5.467h1.106l2.196,5.467h-0.978l-0.538-1.408H69.687z
		 M70.886,11.165l-0.916,2.393h1.901l-0.917-2.393l-0.033-0.211L70.886,11.165z"/>
	<path fill="#392D5B" d="M79.055,11.569c-0.505-0.414-1.09-0.643-1.753-0.643c-1.256,0-2.108,0.842-2.108,2.065
		c0,1.15,0.808,2.036,2.011,2.036c0.701,0,1.311-0.192,1.843-0.631v0.943c-0.528,0.363-1.13,0.51-1.771,0.51
		c-1.719,0-3.05-1.158-3.05-2.867c0-1.696,1.354-2.876,3.036-2.876c0.674,0,1.286,0.197,1.844,0.565L79.055,11.569z"/>
	<path fill="#392D5B" d="M85.707,14.284c-0.672-0.378-0.896-1.223-0.5-1.89c0.394-0.666,1.257-0.9,1.929-0.523
		c0.671,0.379,0.897,1.225,0.501,1.892C87.242,14.43,86.378,14.662,85.707,14.284"/>
</g>
</svg>
